<?xml version="1.0" encoding="UTF-8" standalone="no"?>
<!DOCTYPE svg PUBLIC "-//W3C//DTD SVG 1.1//EN" "http://www.w3.org/Graphics/SVG/1.1/DTD/svg11.dtd">
<svg width="100%" height="100%" viewBox="0 0 1234 319" version="1.1" xmlns="http://www.w3.org/2000/svg" xmlns:xlink="http://www.w3.org/1999/xlink" xml:space="preserve" xmlns:serif="http://www.serif.com/" style="fill-rule:evenodd;clip-rule:evenodd;stroke-linejoin:round;stroke-miterlimit:2;">
    <g transform="matrix(1.42996,0,0,1.42996,-265.288,2.91887)">
        <g>
            <g transform="matrix(0,-1.30146,-1.30146,0,379.555,3.28504)">
                <path d="M-81.613,-81.613C-126.685,-81.613 -163.226,-45.073 -163.226,0.001C-163.226,45.073 -126.685,81.613 -81.613,81.613C-36.539,81.613 0.001,45.073 0.001,0.001C0.001,-45.073 -36.539,-81.613 -81.613,-81.613" style="fill:white;fill-rule:nonzero;"/>
            </g>
            <g>
                <g transform="matrix(1.30146,0,0,1.30146,379.555,213.998)">
                    <path d="M0,-160.586C-44.274,-160.586 -80.293,-124.567 -80.293,-80.293C-80.293,-36.019 -44.274,0 0,0C44.274,0 80.293,-36.019 80.293,-80.293C80.293,-124.567 44.274,-160.586 0,-160.586M0,2.639C-22.152,2.639 -42.978,-5.987 -58.642,-21.651C-74.306,-37.315 -82.932,-58.141 -82.932,-80.293C-82.932,-102.445 -74.306,-123.271 -58.642,-138.935C-42.978,-154.598 -22.152,-163.225 0,-163.225C22.152,-163.225 42.978,-154.598 58.642,-138.935C74.306,-123.271 82.932,-102.445 82.932,-80.293C82.932,-58.141 74.306,-37.315 58.642,-21.651C42.978,-5.987 22.152,2.639 0,2.639" style="fill:rgb(50,205,50);fill-rule:nonzero;"/>
                </g>
                <g transform="matrix(1.30146,0,0,1.30146,416.721,30.2873)">
                    <path d="M0,121.73C-2.046,117.8 -4.484,114.049 -7.27,110.507C-9.327,107.886 -11.582,105.374 -14.009,102.988C-17.159,99.89 -20.605,96.997 -24.312,94.339C-27.369,92.143 -30.603,90.104 -33.994,88.234C-38.295,85.858 -42.852,83.758 -47.622,81.95C-64.231,75.662 -83.432,72.975 -103.531,74.966C-104.872,75.098 -106.207,75.252 -107.531,75.428C-106.955,78.595 -106.189,81.693 -105.25,84.718C-88.792,84.102 -73.111,86.61 -59.179,91.626C-54.427,93.334 -49.877,95.336 -45.573,97.602C-42.148,99.406 -38.874,101.374 -35.776,103.505C-31.908,106.155 -28.308,109.055 -25.016,112.168C-22.493,114.555 -20.154,117.066 -18.005,119.695C-14.97,123.413 -12.323,127.362 -10.112,131.519C-8.953,133.701 -7.912,135.937 -6.999,138.229C-2.893,137.088 1.078,135.629 4.891,133.88C3.666,129.671 2.024,125.613 0,121.73M-16.352,139.277L-16.352,139.274C-18.713,134.969 -21.544,130.892 -24.796,127.072C-27.014,124.458 -29.43,121.968 -32.026,119.607C-35.432,116.509 -39.149,113.635 -43.135,111.013C-46.262,108.956 -49.558,107.054 -53.001,105.319C-57.309,103.149 -61.844,101.242 -66.577,99.622C-77.521,95.868 -89.496,93.646 -102.053,93.246C-100.216,97.407 -98.038,101.382 -95.553,105.136C-88.158,106.346 -81.059,108.208 -74.368,110.65C-69.785,112.322 -65.389,114.265 -61.224,116.465C-57.859,118.232 -54.643,120.164 -51.593,122.251C-47.564,125 -43.824,128.014 -40.418,131.266C-37.815,133.745 -35.406,136.362 -33.21,139.109C-32.682,139.765 -32.165,140.428 -31.666,141.099C-30.632,141.14 -29.599,141.158 -28.557,141.158C-24.671,141.158 -20.851,140.883 -17.115,140.348L-17.111,140.348C-16.697,140.289 -16.286,140.227 -15.872,140.161C-16.029,139.864 -16.191,139.57 -16.352,139.277M-28.557,-19.428C-72.664,-19.428 -108.462,16.135 -108.847,60.15C-108.85,60.388 -108.85,60.627 -108.85,60.865C-108.85,63.288 -108.744,65.686 -108.531,68.055C-104.568,67.285 -100.517,66.691 -96.389,66.28C-74.673,64.128 -54.002,67.439 -36.517,74.848C-31.883,76.813 -27.472,79.068 -23.325,81.583C-20.066,83.56 -16.972,85.697 -14.057,87.989C-10.592,90.705 -7.388,93.638 -4.469,96.758C-2.196,99.189 -0.103,101.734 1.807,104.388C4.312,107.875 6.493,111.549 8.304,115.384C10.434,119.878 12.062,124.597 13.129,129.503C16.796,127.274 20.268,124.755 23.516,121.983C22.709,117.312 21.404,112.799 19.637,108.472C26.574,104.766 34.06,101.642 42.002,99.219C43.963,95.618 45.657,91.853 47.054,87.945C46.412,88.047 45.771,88.157 45.125,88.271C34.075,90.236 23.681,93.514 14.178,97.851C12.506,95.186 10.647,92.615 8.616,90.152C17.478,86.328 27.069,83.417 37.217,81.613C41.32,80.883 45.397,80.355 49.437,80.025C50.049,77.521 50.544,74.966 50.918,72.374C42.471,72.161 33.763,72.795 24.95,74.361C16.235,75.908 7.927,78.276 0.143,81.338C-2.508,78.958 -5.346,76.718 -8.348,74.625C-0.777,71.703 7.278,69.433 15.721,67.934C28.004,65.752 40.081,65.378 51.534,66.588C51.659,64.846 51.725,63.094 51.732,61.323C51.736,61.169 51.736,61.019 51.736,60.865C51.736,16.52 15.787,-19.428 -28.557,-19.428" style="fill:rgb(255,255,197);fill-rule:nonzero;"/>
                </g>
                <g>
                    <g transform="matrix(1.30146,0,0,1.30146,385.269,51.733)">
                        <path d="M0,60.152C0,60.152 3.448,23.658 -22.126,11.302C-22.126,11.302 -9.674,19.827 -6.896,38.026C-6.896,38.026 -21.839,39.942 -29.406,24.137C-29.406,24.137 -34.578,12.26 -34.865,0C-34.865,0 1.054,0.766 4.981,29.118C4.981,29.118 13.218,11.59 37.451,17.432C37.451,17.432 37.451,35.536 13.889,39.367C13.889,39.367 15.325,27.969 26.341,21.934C26.341,21.934 19.731,21.072 12.835,30.076C12.835,30.076 5.939,39.558 6.609,59.577L6.609,60.152L0,60.152Z" style="fill:rgb(50,205,50);fill-rule:nonzero;"/>
                    </g>
                    <g transform="matrix(-0.599679,1.15507,1.15507,0.599679,389.344,40.639)">
                        <path d="M21.446,11.491C21.446,11.491 6.759,-3.041 -10.689,14.557C-10.689,14.557 11.446,29.504 21.446,17.104C21.446,17.104 13.223,11.324 3.692,12.634C3.692,12.634 7.725,9.441 21.446,11.491" style="fill:rgb(50,205,50);fill-rule:nonzero;"/>
                    </g>
                    <g transform="matrix(1.30146,0,0,1.30146,395.44,154.097)">
                        <path d="M0,44.142C-2.361,39.838 -5.192,35.761 -8.444,31.94C-10.662,29.326 -13.078,26.837 -15.674,24.476C-19.08,21.378 -22.797,18.503 -26.783,15.882C-29.91,13.825 -33.206,11.922 -36.649,10.188C-40.957,8.017 -45.492,6.111 -50.225,4.49C-61.169,0.736 -73.144,-1.486 -85.701,-1.885C-83.864,2.276 -81.686,6.25 -79.201,10.005C-71.806,11.214 -64.708,13.077 -58.016,15.519C-53.433,17.191 -49.038,19.134 -44.873,21.334C-41.507,23.101 -38.291,25.033 -35.241,27.119C-31.212,29.869 -27.472,32.883 -24.066,36.135C-21.463,38.613 -19.054,41.231 -16.858,43.977C-16.33,44.633 -15.813,45.297 -15.314,45.968C-14.28,46.008 -13.247,46.027 -12.205,46.027C-8.319,46.027 -4.499,45.752 -0.763,45.216L-0.759,45.216C-0.345,45.158 0.066,45.095 0.48,45.029C0.323,44.732 0.161,44.439 0,44.146L0,44.142Z" style="fill:rgb(50,205,50);fill-rule:nonzero;"/>
                    </g>
                    <g transform="matrix(1.30146,0,0,1.30146,407.259,161.339)">
                        <path d="M0,9.811C-2.057,7.19 -4.312,4.678 -6.739,2.291C-9.888,-0.807 -13.335,-3.7 -17.041,-6.358C-20.099,-8.554 -23.333,-10.592 -26.724,-12.462C-31.025,-14.838 -35.582,-16.939 -40.352,-18.746C-56.96,-25.034 -76.161,-27.721 -96.26,-25.731C-97.602,-25.599 -98.937,-25.445 -100.26,-25.269C-99.685,-22.101 -98.918,-19.003 -97.98,-15.978C-81.521,-16.594 -65.84,-14.086 -51.908,-9.071C-47.157,-7.362 -42.607,-5.36 -38.302,-3.095C-34.878,-1.291 -31.604,0.678 -28.506,2.808C-24.638,5.459 -21.038,8.359 -17.745,11.472C-15.223,13.859 -12.884,16.37 -10.735,18.999C-7.699,22.717 -5.052,26.665 -2.841,30.823C-1.683,33.004 -0.642,35.241 0.271,37.532C4.378,36.392 8.348,34.933 12.161,33.184C10.937,28.975 9.294,24.916 7.27,21.034C5.225,17.103 2.786,13.353 0,9.811" style="fill:rgb(50,205,50);fill-rule:nonzero;"/>
                    </g>
                    <g transform="matrix(1.30146,0,0,1.30146,483.791,181.881)">
                        <path d="M0,-49.892C0.125,-51.634 0.191,-53.386 0.198,-55.157C-14.797,-58.38 -31.248,-58.783 -48.081,-55.795C-56.51,-54.295 -64.554,-52.033 -72.114,-49.118C-90.797,-58.486 -113.782,-62.915 -138.082,-60.506C-145.811,-59.74 -153.268,-58.321 -160.381,-56.33C-160.385,-56.092 -160.385,-55.853 -160.385,-55.615C-160.385,-53.192 -160.278,-50.794 -160.066,-48.425C-156.102,-49.195 -152.051,-49.789 -147.923,-50.2C-126.207,-52.352 -105.536,-49.041 -88.051,-41.632C-83.417,-39.667 -79.006,-37.412 -74.86,-34.897C-71.6,-32.92 -68.506,-30.783 -65.591,-28.491C-62.126,-25.775 -58.922,-22.842 -56.004,-19.722C-53.73,-17.291 -51.637,-14.746 -49.727,-12.092C-47.223,-8.605 -45.041,-4.931 -43.23,-1.096C-41.1,3.398 -39.472,8.117 -38.405,13.023C-34.739,10.794 -31.267,8.275 -28.018,5.503C-28.825,0.832 -30.13,-3.681 -31.897,-8.008C-24.961,-11.714 -17.474,-14.838 -9.533,-17.261C-7.571,-20.862 -5.877,-24.627 -4.48,-28.535C-5.122,-28.433 -5.764,-28.323 -6.409,-28.209C-17.459,-26.244 -27.853,-22.966 -37.357,-18.629C-39.028,-21.294 -40.887,-23.865 -42.918,-26.328C-34.057,-30.152 -24.466,-33.063 -14.317,-34.867C-10.214,-35.597 -6.137,-36.125 -2.097,-36.455C-1.485,-38.959 -0.99,-41.514 -0.616,-44.106C-9.063,-44.319 -17.771,-43.685 -26.585,-42.119C-35.3,-40.572 -43.608,-38.204 -51.391,-35.142C-54.042,-37.522 -56.88,-39.762 -59.883,-41.855C-52.312,-44.777 -44.257,-47.047 -35.813,-48.546C-23.531,-50.728 -11.454,-51.102 0,-49.892" style="fill:rgb(50,205,50);fill-rule:nonzero;"/>
                    </g>
                </g>
            </g>
        </g>
        <g>
            <g transform="matrix(1.30146,0,0,1.30146,561.324,77.5788)">
                <path d="M0,-8.545C0,-12.577 -2.928,-15.89 -6.576,-15.89L-15.841,-15.89L-15.841,7.345L-6.576,7.345C-2.928,7.345 0,4.032 0,0L0,-8.545ZM-16.273,-22.082L-6.576,-22.082C1.008,-22.082 7.201,-16.033 7.201,-8.545L7.201,0C7.201,7.489 1.008,13.537 -6.576,13.537L-23.042,13.537L-23.042,-15.794C-23.042,-19.25 -20.018,-22.082 -16.273,-22.082" style="fill:rgb(29,67,84);fill-rule:nonzero;"/>
            </g>
            <g transform="matrix(1.30146,0,0,1.30146,587.122,95.1965)">
                <path d="M0,-35.619L0,-13.537C0,-9.505 2.928,-6.192 6.577,-6.192L10.417,-6.192C14.065,-6.192 16.994,-9.505 16.994,-13.537L16.994,-35.619L24.194,-35.619L24.194,-13.537C24.194,-6.048 18.001,0 10.417,0L6.577,0C-1.008,0 -7.201,-6.048 -7.201,-13.537L-7.201,-35.619L0,-35.619Z" style="fill:rgb(29,67,84);fill-rule:nonzero;"/>
            </g>
            <g transform="matrix(1.30146,0,0,1.30146,636.286,48.84)">
                <path d="M0,35.619L-7.201,35.619L-7.201,6.288C-7.201,2.832 -4.177,0 -0.433,0L9.265,0C16.849,0 23.042,4.608 23.042,12.097L23.042,13.441C23.042,19.202 19.394,23.282 14.209,24.818L23.857,35.619L14.881,35.619L6,25.538L0.479,25.538L4.32,19.346L9.265,19.346C12.913,19.346 15.841,17.473 15.841,13.441L15.841,12.097C15.841,8.065 12.913,6.192 9.265,6.192L0,6.192L0,35.619Z" style="fill:rgb(29,67,84);fill-rule:nonzero;"/>
            </g>
            <g transform="matrix(1.30146,0,0,1.30146,683.325,54.3993)">
                <path d="M0,26.595L3.84,20.403L13.44,20.403L7.345,2.929L-2.593,31.347L-10.273,31.347L0.191,1.537C1.439,-2.015 3.6,-4.752 7.345,-4.752C11.089,-4.752 13.249,-2.015 14.497,1.537L24.962,31.347L17.281,31.347L15.601,26.595L0,26.595Z" style="fill:rgb(29,67,84);fill-rule:nonzero;"/>
            </g>
            <g transform="matrix(1.30146,0,0,1.30146,739.735,87.325)">
                <path d="M0,-23.522L9.985,-0L9.985,-29.571L17.186,-29.571L17.186,-0C17.186,3.456 13.682,6.289 9.937,6.289C6.192,6.289 4.272,3.456 2.784,-0L-7.2,-23.522L-7.2,6.048L-14.401,6.048L-14.401,-23.522C-14.401,-26.979 -10.896,-29.811 -7.152,-29.811C-3.408,-29.811 -1.488,-26.979 0,-23.522" style="fill:rgb(29,67,84);fill-rule:nonzero;"/>
            </g>
            <g transform="matrix(1.30146,0,0,1.30146,800.769,77.5788)">
                <path d="M0,-8.545C0,-12.577 -2.928,-15.89 -6.576,-15.89L-15.841,-15.89L-15.841,7.345L-6.576,7.345C-2.928,7.345 0,4.032 0,0L0,-8.545ZM-16.273,-22.082L-6.576,-22.082C1.008,-22.082 7.201,-16.033 7.201,-8.545L7.201,0C7.201,7.489 1.008,13.537 -6.576,13.537L-23.042,13.537L-23.042,-15.794C-23.042,-19.25 -20.018,-22.082 -16.273,-22.082" style="fill:rgb(29,67,84);fill-rule:nonzero;"/>
            </g>
            <g transform="matrix(-1.30146,0,0,1.30146,1788.86,-385.848)">
                <rect x="738.865" y="334.001" width="7.201" height="35.619" style="fill:rgb(29,67,84);"/>
            </g>
            <g transform="matrix(1.30146,0,0,1.30146,851.992,95.1965)">
                <path d="M0,-35.619L4.8,-35.619C8.4,-35.619 13.537,-34.131 15.938,-31.731L9.696,-26.93C8.593,-28.466 6.576,-29.427 4.8,-29.427L0,-29.427C-3.36,-29.427 -6.097,-27.65 -6.097,-25.442C-6.097,-19.97 16.417,-22.178 16.417,-10.177C16.417,-4.56 10.225,0 2.64,0L-2.16,0C-5.905,0 -11.281,-1.488 -13.777,-3.888L-7.585,-8.689C-6.385,-7.153 -4.129,-6.192 -2.16,-6.192L2.64,-6.192C6.288,-6.192 9.217,-7.969 9.217,-10.177C9.217,-16.321 -13.298,-13.537 -13.298,-25.442C-13.298,-31.058 -7.345,-35.619 0,-35.619" style="fill:rgb(29,67,84);fill-rule:nonzero;"/>
            </g>
            <g transform="matrix(1.30146,0,0,1.30146,896.471,95.1965)">
                <path d="M0,-35.619L4.8,-35.619C8.4,-35.619 13.537,-34.131 15.938,-31.731L9.696,-26.93C8.593,-28.466 6.576,-29.427 4.8,-29.427L0,-29.427C-3.36,-29.427 -6.097,-27.65 -6.097,-25.442C-6.097,-19.97 16.417,-22.178 16.417,-10.177C16.417,-4.56 10.225,0 2.64,0L-2.16,0C-5.905,0 -11.281,-1.488 -13.777,-3.888L-7.585,-8.689C-6.385,-7.153 -4.129,-6.192 -2.16,-6.192L2.64,-6.192C6.288,-6.192 9.217,-7.969 9.217,-10.177C9.217,-16.321 -13.298,-13.537 -13.298,-25.442C-13.298,-31.058 -7.345,-35.619 0,-35.619" style="fill:rgb(29,67,84);fill-rule:nonzero;"/>
            </g>
            <g transform="matrix(1.30146,0,0,1.30146,934.076,56.8982)">
                <path d="M0,23.235L18.386,23.235L21.746,29.427L-0.432,29.427C-4.176,29.427 -7.2,26.595 -7.2,23.139L-7.2,0.097C-7.2,-3.359 -4.176,-6.192 -0.432,-6.192L21.746,-6.192L18.386,0.001L0,0.001L0,8.69L16.946,8.69L16.946,14.882L0,14.882L0,23.235Z" style="fill:rgb(29,67,84);fill-rule:nonzero;"/>
            </g>
        </g>
        <g>
            <g transform="matrix(1.30146,0,0,1.30146,633.224,123.804)">
                <path d="M0,35.619L-7.2,35.619L-7.2,6.289C-7.2,2.833 -4.177,0 -0.432,0L9.265,0C16.85,0 23.042,4.609 23.042,12.098L23.042,13.441C23.042,19.202 19.394,23.283 14.209,24.818L23.858,35.619L14.882,35.619L6.001,25.539L0.48,25.539L4.32,19.346L9.265,19.346C12.913,19.346 15.842,17.474 15.842,13.441L15.842,12.098C15.842,8.065 12.913,6.193 9.265,6.193L0,6.193L0,35.619Z" style="fill:rgb(50,205,50);fill-rule:nonzero;"/>
            </g>
            <g transform="matrix(1.30146,0,0,1.30146,540.707,129.363)">
                <path d="M0,26.595L3.84,20.403L13.441,20.403L7.345,2.929L-2.592,31.347L-10.273,31.347L0.192,1.537C1.44,-2.015 3.601,-4.752 7.345,-4.752C11.089,-4.752 13.249,-2.015 14.498,1.537L24.962,31.347L17.282,31.347L15.602,26.595L0,26.595Z" style="fill:rgb(50,205,50);fill-rule:nonzero;"/>
            </g>
            <g transform="matrix(1.30146,0,0,1.30146,600.429,170.161)">
                <path d="M0,-35.619C3.744,-35.619 9.121,-34.131 11.617,-31.731L5.376,-26.93C4.176,-28.466 1.968,-29.427 0,-29.427L-4.801,-29.427C-8.401,-29.427 -11.281,-26.114 -11.281,-22.082L-11.281,-13.537C-11.281,-9.504 -8.353,-6.192 -4.705,-6.192L4.56,-6.192L4.56,-17.762L11.761,-17.762L11.761,-6.288C11.761,-2.832 8.737,0 4.992,0L-4.705,0C-12.289,0 -18.482,-6.048 -18.482,-13.537L-18.482,-22.082C-18.482,-29.571 -12.337,-35.619 -4.801,-35.619L0,-35.619Z" style="fill:rgb(50,205,50);fill-rule:nonzero;"/>
            </g>
            <g transform="matrix(1.30146,0,0,1.30146,693.197,131.237)">
                <path d="M0,24.195C3.648,24.195 6.576,20.882 6.576,16.85L6.576,7.345C6.576,3.313 3.648,0.001 0,0.001L-4.801,0.001C-8.449,0.001 -11.377,3.313 -11.377,7.345L-11.377,16.85C-11.377,20.882 -8.449,24.195 -4.801,24.195L0,24.195ZM-4.801,30.387C-12.385,30.387 -18.578,24.339 -18.578,16.85L-18.578,7.345C-18.578,-0.143 -12.385,-6.192 -4.801,-6.192L0,-6.192C7.585,-6.192 13.777,-0.143 13.777,7.345L13.777,16.85C13.777,24.339 7.585,30.387 0,30.387L-4.801,30.387Z" style="fill:rgb(50,205,50);fill-rule:nonzero;"/>
            </g>
            <g transform="matrix(1.30146,0,0,1.30146,746.668,123.804)">
                <path d="M0,35.619L-7.201,35.619L-7.201,6.289C-7.201,2.833 -4.177,0 -0.433,0L21.745,0L18.385,6.193L0,6.193L0,14.882L16.945,14.882L16.945,21.074L0,21.074L0,35.619Z" style="fill:rgb(50,205,50);fill-rule:nonzero;"/>
            </g>
            <g transform="matrix(1.30146,0,0,1.30146,784.9,129.363)">
                <path d="M0,26.595L3.84,20.403L13.44,20.403L7.345,2.929L-2.593,31.347L-10.273,31.347L0.191,1.537C1.439,-2.015 3.6,-4.752 7.345,-4.752C11.089,-4.752 13.249,-2.015 14.497,1.537L24.962,31.347L17.281,31.347L15.601,26.595L0,26.595Z" style="fill:rgb(50,205,50);fill-rule:nonzero;"/>
            </g>
            <g transform="matrix(1.30146,0,0,1.30146,831.939,123.804)">
                <path d="M0,35.619L-7.201,35.619L-7.201,6.289C-7.201,2.833 -4.177,0 -0.433,0L9.265,0C16.849,0 23.042,4.609 23.042,12.098L23.042,13.441C23.042,19.202 19.394,23.283 14.209,24.818L23.857,35.619L14.881,35.619L6,25.539L0.479,25.539L4.32,19.346L9.265,19.346C12.913,19.346 15.841,17.474 15.841,13.441L15.841,12.098C15.841,8.065 12.913,6.193 9.265,6.193L0,6.193L0,35.619Z" style="fill:rgb(50,205,50);fill-rule:nonzero;"/>
            </g>
            <g transform="matrix(1.30146,0,0,1.30146,901.782,130.238)">
                <path d="M0,25.491L-7.585,25.491L-15.554,2.401L-18.29,30.675L-25.971,30.675L-22.706,1.009C-22.227,-3.12 -19.106,-5.184 -16.082,-5.184C-13.729,-5.184 -11.426,-3.936 -10.465,-1.392L-3.793,18.098L2.88,-1.392C3.84,-3.936 6.145,-5.184 8.496,-5.184C11.521,-5.184 14.641,-3.12 15.121,1.009L18.385,30.675L10.704,30.675L7.969,2.401L0,25.491Z" style="fill:rgb(50,205,50);fill-rule:nonzero;"/>
            </g>
        </g>
    </g>
</svg>
