<?xml version="1.0" encoding="UTF-8" standalone="no"?>
<!DOCTYPE svg PUBLIC "-//W3C//DTD SVG 1.1//EN" "http://www.w3.org/Graphics/SVG/1.1/DTD/svg11.dtd">
<svg width="100%" height="100%" viewBox="0 0 1234 219" version="1.1" xmlns="http://www.w3.org/2000/svg" xmlns:xlink="http://www.w3.org/1999/xlink" xml:space="preserve" xmlns:serif="http://www.serif.com/" style="fill-rule:evenodd;clip-rule:evenodd;stroke-linejoin:round;stroke-miterlimit:2;">
    <g transform="matrix(3.35849,0,0,3.35849,-242.771,-750.272)">
        <g id="Layer-1" serif:id="Layer 1">
            <g>
                <g transform="matrix(80.7923,0,0,-80.7923,72.8315,268.409)">
                    <path d="M0.82,0.114C0.812,0.106 0.803,0.099 0.794,0.093C0.782,0.083 0.769,0.074 0.756,0.065C0.753,0.062 0.749,0.06 0.745,0.057C0.738,0.053 0.732,0.049 0.725,0.045C0.72,0.042 0.714,0.039 0.709,0.036C0.703,0.032 0.696,0.029 0.69,0.025C0.683,0.022 0.676,0.018 0.669,0.015C0.663,0.012 0.656,0.009 0.649,0.005C0.593,-0.021 0.532,-0.043 0.471,-0.054C0.407,-0.065 0.344,-0.076 0.279,-0.076C0.253,-0.076 0.227,-0.074 0.201,-0.073C0.165,-0.072 0.129,-0.068 0.093,-0.063C0.085,-0.061 0.077,-0.06 0.068,-0.059C0.062,-0.058 0.055,-0.057 0.049,-0.055C0.042,-0.054 0.036,-0.053 0.029,-0.052C0.023,-0.051 0.017,-0.05 0.012,-0.049C0.008,-0.048 0.003,-0.047 0,-0.05C-0.001,-0.052 0.001,-0.054 0.003,-0.054C0.006,-0.055 0.01,-0.056 0.013,-0.057C0.023,-0.061 0.034,-0.065 0.044,-0.068C0.094,-0.087 0.148,-0.1 0.2,-0.111C0.22,-0.115 0.239,-0.118 0.259,-0.121C0.295,-0.126 0.331,-0.131 0.367,-0.132C0.395,-0.133 0.422,-0.133 0.449,-0.132C0.52,-0.131 0.59,-0.118 0.657,-0.097C0.668,-0.094 0.678,-0.091 0.688,-0.088C0.693,-0.086 0.697,-0.085 0.702,-0.083C0.704,-0.082 0.723,-0.074 0.726,-0.073C0.729,-0.072 0.732,-0.071 0.735,-0.069C0.737,-0.069 0.739,-0.068 0.74,-0.068C0.749,-0.063 0.758,-0.059 0.767,-0.055C0.774,-0.051 0.781,-0.048 0.788,-0.044C0.793,-0.041 0.799,-0.038 0.804,-0.035C0.808,-0.033 0.812,-0.03 0.816,-0.028C0.84,-0.014 0.864,0 0.886,0.017C0.899,0.027 0.912,0.038 0.925,0.049C0.935,0.058 0.945,0.066 0.955,0.075C0.969,0.09 0.984,0.105 0.998,0.12C1,0.123 1.001,0.128 0.998,0.131L0.824,0.133C0.829,0.127 0.825,0.119 0.82,0.114Z" style="fill:url(#_Linear1);fill-rule:nonzero;"/>
                </g>
                <g transform="matrix(80.0901,0,0,-80.0901,73.3914,247.429)">
                    <path d="M0.363,0.129C0.307,0.128 0.25,0.121 0.195,0.109C0.18,0.105 0.166,0.101 0.151,0.098C0.14,0.095 0.128,0.092 0.117,0.089C0.116,0.088 0.116,0.088 0.115,0.088C0.111,0.086 0.096,0.081 0.093,0.08C0.089,0.079 0.086,0.078 0.083,0.077C0.067,0.072 0.051,0.065 0.034,0.059C0.026,0.056 0.018,0.053 0.01,0.05C0.007,0.049 0.003,0.048 0.001,0.045C-0.003,0.041 0.006,0.041 0.008,0.041C0.015,0.042 0.021,0.044 0.027,0.045C0.035,0.047 0.044,0.048 0.052,0.05C0.059,0.051 0.065,0.052 0.072,0.053C0.098,0.057 0.124,0.06 0.15,0.062C0.158,0.063 0.166,0.063 0.173,0.064C0.247,0.068 0.321,0.067 0.394,0.056C0.414,0.053 0.433,0.051 0.452,0.046C0.471,0.041 0.49,0.037 0.509,0.032C0.515,0.03 0.521,0.028 0.528,0.027C0.53,0.026 0.543,0.021 0.546,0.02C0.556,0.017 0.565,0.014 0.574,0.011C0.574,0.011 0.575,0.011 0.575,0.011C0.58,0.009 0.584,0.008 0.588,0.006C0.59,0.005 0.593,0.004 0.595,0.003C0.597,0.002 0.599,0.001 0.601,0C0.618,-0.006 0.635,-0.014 0.652,-0.022C0.658,-0.025 0.665,-0.028 0.672,-0.031C0.679,-0.035 0.686,-0.039 0.693,-0.042C0.697,-0.045 0.701,-0.047 0.705,-0.049C0.712,-0.053 0.718,-0.056 0.724,-0.06C0.733,-0.066 0.743,-0.072 0.752,-0.077C0.76,-0.083 0.77,-0.089 0.778,-0.095C0.79,-0.103 0.801,-0.112 0.814,-0.12C0.817,-0.122 0.821,-0.124 0.824,-0.127L1,-0.13C0.995,-0.124 0.99,-0.119 0.984,-0.113C0.978,-0.107 0.971,-0.1 0.964,-0.094C0.961,-0.091 0.958,-0.088 0.954,-0.085C0.944,-0.077 0.935,-0.069 0.925,-0.061C0.918,-0.055 0.911,-0.049 0.903,-0.044C0.895,-0.037 0.887,-0.031 0.878,-0.025C0.87,-0.019 0.862,-0.014 0.853,-0.008C0.843,-0.002 0.833,0.005 0.823,0.011C0.818,0.014 0.813,0.017 0.808,0.019C0.802,0.023 0.796,0.026 0.79,0.029C0.784,0.032 0.779,0.035 0.773,0.038C0.766,0.041 0.76,0.045 0.753,0.048C0.737,0.055 0.721,0.063 0.705,0.069C0.697,0.072 0.688,0.075 0.68,0.078C0.665,0.084 0.65,0.089 0.636,0.094C0.632,0.095 0.628,0.096 0.624,0.097C0.611,0.101 0.598,0.104 0.585,0.107C0.585,0.107 0.584,0.108 0.584,0.108C0.578,0.109 0.572,0.111 0.565,0.112C0.532,0.119 0.498,0.125 0.464,0.128C0.444,0.13 0.424,0.13 0.403,0.13C0.39,0.13 0.377,0.13 0.363,0.129Z" style="fill:url(#_Linear2);fill-rule:nonzero;"/>
                </g>
                <g transform="matrix(10.5737,0,0,-10.5737,78.5305,258.207)">
                    <path d="M-0,0.729L-0,-0.707C-0,-0.737 0.034,-0.754 0.058,-0.736L0.986,-0.018C1.005,-0.003 1.005,0.025 0.986,0.039L0.058,0.757C0.051,0.763 0.044,0.765 0.036,0.765C0.018,0.765 -0,0.75 -0,0.729Z" style="fill:url(#_Linear3);fill-rule:nonzero;"/>
                </g>
                <g transform="matrix(28.0669,0,0,-28.0669,411.102,259.255)">
                    <path d="M0.158,0.347C0.071,0.347 0,0.276 0,0.189L0,-0.189C0,-0.276 0.071,-0.347 0.158,-0.347L0.841,-0.347C0.859,-0.347 0.914,-0.345 0.991,-0.339L0.991,-0.198L0.287,-0.198C0.244,-0.198 0.208,-0.162 0.208,-0.119L0.208,-0.116C0.208,-0.073 0.244,-0.038 0.287,-0.038L1,-0.038L1,0.189C1,0.276 0.929,0.347 0.841,0.347L0.158,0.347ZM0.207,0.134C0.207,0.157 0.225,0.176 0.248,0.176L0.751,0.176C0.775,0.176 0.793,0.157 0.793,0.134C0.793,0.111 0.775,0.092 0.751,0.092L0.248,0.092C0.225,0.092 0.207,0.111 0.207,0.134Z" style="fill:url(#_Linear4);fill-rule:nonzero;"/>
                </g>
                <g transform="matrix(23.8955,0,0,-23.8955,356.13,259.262)">
                    <path d="M0.072,0.408C0.032,0.408 0,0.374 0,0.332L0,-0.01C0.005,-0.033 0.021,-0.071 0.047,-0.071L0.764,-0.071C0.78,-0.071 0.793,-0.085 0.793,-0.103L0.793,-0.174C0.793,-0.191 0.78,-0.205 0.764,-0.205L0.013,-0.205C0.011,-0.205 0.007,-0.213 0.006,-0.214C0.004,-0.217 0.003,-0.221 0.002,-0.224C-0.001,-0.231 0,-0.239 0,-0.247L0,-0.385C0,-0.398 0.01,-0.408 0.022,-0.408L0.928,-0.408C0.968,-0.408 1,-0.374 1,-0.331L1,0.002C0.992,0.05 0.95,0.07 0.921,0.078L0.25,0.078C0.234,0.078 0.22,0.092 0.22,0.11L0.22,0.181C0.22,0.198 0.234,0.212 0.25,0.212L0.966,0.212C0.99,0.216 0.998,0.23 1,0.239L1,0.332C1,0.334 1,0.336 0.999,0.338L0.999,0.385C0.999,0.398 0.99,0.408 0.978,0.408L0.072,0.408Z" style="fill:url(#_Linear5);fill-rule:nonzero;"/>
                </g>
                <g transform="matrix(23.8955,0,0,-23.8955,383.546,259.268)">
                    <path d="M0.072,0.408C0.032,0.408 0,0.374 0,0.332L0,-0.01C0.005,-0.033 0.021,-0.072 0.048,-0.072L0.764,-0.072C0.78,-0.072 0.793,-0.085 0.793,-0.103L0.793,-0.174C0.793,-0.191 0.78,-0.205 0.764,-0.205L0.013,-0.205C0.011,-0.205 0.007,-0.213 0.006,-0.215C0.004,-0.218 0.003,-0.221 0.002,-0.224C-0.001,-0.231 0,-0.239 0,-0.247L0,-0.385C0,-0.398 0.01,-0.408 0.022,-0.408L0.928,-0.408C0.968,-0.408 1,-0.374 1,-0.331L1,0.002C0.992,0.05 0.95,0.07 0.921,0.078L0.25,0.078C0.234,0.078 0.22,0.092 0.22,0.11L0.22,0.181C0.22,0.198 0.234,0.212 0.25,0.212L0.966,0.212C0.99,0.216 0.998,0.23 1,0.239L1,0.332C1,0.334 1,0.335 0.999,0.338L0.999,0.385C0.999,0.398 0.99,0.408 0.978,0.408L0.072,0.408Z" style="fill:url(#_Linear6);fill-rule:nonzero;"/>
                </g>
                <g transform="matrix(26.3484,0,0,-26.3484,284.437,259.267)">
                    <path d="M0.014,0.333C0.001,0.313 0.001,0.289 0.001,0.266C0.001,0.217 0.001,0.168 0,0.12C0,0.06 0,-0 0,-0.06C0,-0.12 0,-0.18 0,-0.24C0.001,-0.27 0.001,-0.3 0.001,-0.33C0.001,-0.34 -0.003,-0.355 0.006,-0.363C0.015,-0.37 0.027,-0.371 0.038,-0.371C0.092,-0.37 0.145,-0.37 0.199,-0.37C0.2,-0.211 0.201,-0.051 0.202,0.109C0.202,0.127 0.203,0.148 0.216,0.161C0.23,0.175 0.255,0.175 0.273,0.166C0.291,0.156 0.304,0.14 0.316,0.124C0.44,-0.034 0.563,-0.193 0.686,-0.351C0.692,-0.358 0.698,-0.365 0.706,-0.368C0.712,-0.371 0.719,-0.371 0.726,-0.371C0.781,-0.371 0.837,-0.37 0.892,-0.37C0.918,-0.37 0.946,-0.369 0.967,-0.353C0.997,-0.331 1,-0.287 1,-0.25C1,-0.053 1,0.345 1,0.346C1,0.351 0.999,0.356 0.996,0.36C0.991,0.369 0.977,0.37 0.966,0.37C0.917,0.37 0.868,0.37 0.819,0.37C0.818,0.217 0.817,0.063 0.816,-0.091C0.816,-0.107 0.815,-0.125 0.805,-0.137C0.791,-0.154 0.765,-0.154 0.746,-0.145C0.728,-0.136 0.714,-0.118 0.701,-0.102C0.582,0.05 0.463,0.203 0.344,0.355C0.341,0.359 0.337,0.363 0.332,0.366C0.326,0.37 0.318,0.37 0.31,0.37C0.248,0.37 0.187,0.371 0.125,0.371L0.123,0.371C0.082,0.371 0.035,0.367 0.014,0.333Z" style="fill:url(#_Linear7);fill-rule:nonzero;"/>
                </g>
                <g transform="matrix(24.9776,0,0,-24.9776,195.957,259.262)">
                    <path d="M0.786,0.391L0.786,-0.149C0.786,-0.194 0.75,-0.231 0.705,-0.231L0.295,-0.231C0.28,-0.231 0.266,-0.227 0.253,-0.219L0.253,-0.219C0.23,-0.205 0.215,-0.18 0.215,-0.151L0.215,-0.15C0.214,-0.15 0.214,-0.149 0.214,-0.149L0.214,0.391L-0,0.391L-0,-0.246C-0,-0.247 -0,-0.247 0,-0.248L0,-0.25C0.002,-0.3 0.028,-0.345 0.068,-0.369C0.068,-0.369 0.068,-0.37 0.069,-0.37C0.09,-0.383 0.115,-0.391 0.141,-0.391L0.859,-0.391C0.937,-0.391 1,-0.326 1,-0.246L1,0.391L0.786,0.391Z" style="fill:url(#_Linear8);fill-rule:nonzero;"/>
                </g>
                <g transform="matrix(27.7911,0,0,-27.7911,164.533,259.269)">
                    <path d="M0,0.351L0,0.183L0.618,0.183C0.714,0.183 0.791,0.105 0.791,0.01L0.791,-0.009C0.791,-0.105 0.714,-0.183 0.618,-0.183L0.198,-0.183L0.198,0.033L0,0.033L0,-0.351L0.785,-0.351C0.904,-0.351 1,-0.274 1,-0.179L1,0.179C1,0.274 0.904,0.351 0.785,0.351L0,0.351Z" style="fill:url(#_Linear9);fill-rule:nonzero;"/>
                </g>
                <g transform="matrix(27.7911,0,0,-27.7911,315.067,259.269)">
                    <path d="M0,0.351L0,0.183L0.618,0.183C0.714,0.183 0.792,0.105 0.792,0.01L0.792,-0.009C0.792,-0.105 0.714,-0.183 0.618,-0.183L0.198,-0.183L0.198,0.033L0,0.033L0,-0.351L0.785,-0.351C0.904,-0.351 1,-0.274 1,-0.179L1,0.179C1,0.274 0.904,0.351 0.785,0.351L0,0.351Z" style="fill:url(#_Linear10);fill-rule:nonzero;"/>
                </g>
                <g transform="matrix(0,13.511,13.511,0,349.406,232.867)">
                    <path d="M0,-0.71C0,-0.744 0.04,-0.764 0.067,-0.742L0.984,-0.033C1.005,-0.016 1.005,0.016 0.984,0.033L0.067,0.742C0.04,0.764 0,0.744 0,0.709L0,-0.71Z" style="fill:url(#_Linear11);fill-rule:nonzero;"/>
                </g>
                <g transform="matrix(31.4886,0,0,-31.4886,224.299,261.044)">
                    <path d="M0,0.366L0,0.243L0.571,0.243C0.598,0.243 0.62,0.221 0.62,0.194C0.62,0.167 0.598,0.145 0.571,0.145L0,0.145L0,-0.25L0.198,-0.25L0.198,0.027L0.418,0.027L0.461,-0.02L0.769,-0.366L1,-0.366L0.65,0.027L0.686,0.027C0.741,0.027 0.786,0.073 0.786,0.129L0.786,0.264C0.786,0.32 0.741,0.366 0.686,0.366L0,0.366Z" style="fill:url(#_Linear12);fill-rule:nonzero;"/>
                </g>
                <g transform="matrix(27.2491,0,0,-27.2491,253.684,259.262)">
                    <path d="M0,0.358L0,0.201L0.726,0.201C0.756,0.201 0.781,0.176 0.781,0.146C0.781,0.116 0.756,0.091 0.726,0.091L0.084,0.091C0.049,0.091 0.019,0.073 0,0.047L0,-0.358L1,-0.358L1,0.195C1,0.285 0.927,0.358 0.837,0.358L0,0.358ZM0.196,-0.141L0.196,-0.12C0.196,-0.095 0.217,-0.073 0.243,-0.073L0.709,-0.073C0.734,-0.073 0.755,-0.095 0.755,-0.12L0.755,-0.141C0.755,-0.166 0.734,-0.187 0.709,-0.187L0.243,-0.187C0.217,-0.187 0.196,-0.166 0.196,-0.141Z" style="fill:url(#_Linear13);fill-rule:nonzero;"/>
                </g>
                <g transform="matrix(5.18003,0,0,-5.18003,346.816,259.264)">
                    <rect x="0" y="-1.883" width="1" height="3.766" style="fill:url(#_Linear14);"/>
                </g>
            </g>
        </g>
    </g>
    <defs>
        <linearGradient id="_Linear1" x1="0" y1="0" x2="1" y2="0" gradientUnits="userSpaceOnUse" gradientTransform="matrix(1,0,0,-1,0,0.000285485)"><stop offset="0" style="stop-color:rgb(0,45,71);stop-opacity:1"/><stop offset="1" style="stop-color:rgb(0,29,76);stop-opacity:1"/></linearGradient>
        <linearGradient id="_Linear2" x1="0" y1="0" x2="1" y2="0" gradientUnits="userSpaceOnUse" gradientTransform="matrix(1,0,0,-1,0,7.68884e-06)"><stop offset="0" style="stop-color:rgb(255,199,5);stop-opacity:1"/><stop offset="1" style="stop-color:rgb(255,146,5);stop-opacity:1"/></linearGradient>
        <linearGradient id="_Linear3" x1="0" y1="0" x2="1" y2="0" gradientUnits="userSpaceOnUse" gradientTransform="matrix(1,0,0,-1,0,0.0107435)"><stop offset="0" style="stop-color:rgb(255,199,5);stop-opacity:1"/><stop offset="1" style="stop-color:rgb(255,146,5);stop-opacity:1"/></linearGradient>
        <linearGradient id="_Linear4" x1="0" y1="0" x2="1" y2="0" gradientUnits="userSpaceOnUse" gradientTransform="matrix(1,0,0,-1,0,-1.90829e-05)"><stop offset="0" style="stop-color:rgb(0,45,71);stop-opacity:1"/><stop offset="1" style="stop-color:rgb(0,29,76);stop-opacity:1"/></linearGradient>
        <linearGradient id="_Linear5" x1="0" y1="0" x2="1" y2="0" gradientUnits="userSpaceOnUse" gradientTransform="matrix(1,0,0,-1,0,4.67871e-06)"><stop offset="0" style="stop-color:rgb(0,45,71);stop-opacity:1"/><stop offset="1" style="stop-color:rgb(0,29,76);stop-opacity:1"/></linearGradient>
        <linearGradient id="_Linear6" x1="0" y1="0" x2="1" y2="0" gradientUnits="userSpaceOnUse" gradientTransform="matrix(1,0,0,-1,0,-3.77812e-05)"><stop offset="0" style="stop-color:rgb(0,45,71);stop-opacity:1"/><stop offset="1" style="stop-color:rgb(0,29,76);stop-opacity:1"/></linearGradient>
        <linearGradient id="_Linear7" x1="0" y1="0" x2="1" y2="0" gradientUnits="userSpaceOnUse" gradientTransform="matrix(1,0,0,-1,0,2.21342e-05)"><stop offset="0" style="stop-color:rgb(0,45,71);stop-opacity:1"/><stop offset="1" style="stop-color:rgb(0,29,76);stop-opacity:1"/></linearGradient>
        <linearGradient id="_Linear8" x1="0" y1="0" x2="1" y2="0" gradientUnits="userSpaceOnUse" gradientTransform="matrix(1,0,0,-1,0,4.476e-06)"><stop offset="0" style="stop-color:rgb(0,45,71);stop-opacity:1"/><stop offset="1" style="stop-color:rgb(0,29,76);stop-opacity:1"/></linearGradient>
        <linearGradient id="_Linear9" x1="0" y1="0" x2="1" y2="0" gradientUnits="userSpaceOnUse" gradientTransform="matrix(1,0,0,-1,0,3.49752e-06)"><stop offset="0" style="stop-color:rgb(0,45,71);stop-opacity:1"/><stop offset="1" style="stop-color:rgb(0,29,76);stop-opacity:1"/></linearGradient>
        <linearGradient id="_Linear10" x1="0" y1="0" x2="1" y2="0" gradientUnits="userSpaceOnUse" gradientTransform="matrix(1,0,0,-1,0,3.49752e-06)"><stop offset="0" style="stop-color:rgb(0,45,71);stop-opacity:1"/><stop offset="1" style="stop-color:rgb(0,29,76);stop-opacity:1"/></linearGradient>
        <linearGradient id="_Linear11" x1="0" y1="0" x2="1" y2="0" gradientUnits="userSpaceOnUse" gradientTransform="matrix(1,0,0,-1,0,-3.97898e-05)"><stop offset="0" style="stop-color:rgb(255,199,5);stop-opacity:1"/><stop offset="1" style="stop-color:rgb(255,146,5);stop-opacity:1"/></linearGradient>
        <linearGradient id="_Linear12" x1="0" y1="0" x2="1" y2="0" gradientUnits="userSpaceOnUse" gradientTransform="matrix(1,0,0,-1,0,7.57735e-06)"><stop offset="0" style="stop-color:rgb(0,45,71);stop-opacity:1"/><stop offset="1" style="stop-color:rgb(0,29,76);stop-opacity:1"/></linearGradient>
        <linearGradient id="_Linear13" x1="0" y1="0" x2="1" y2="0" gradientUnits="userSpaceOnUse" gradientTransform="matrix(1,0,0,-1,0,4.10289e-06)"><stop offset="0" style="stop-color:rgb(0,45,71);stop-opacity:1"/><stop offset="1" style="stop-color:rgb(0,29,76);stop-opacity:1"/></linearGradient>
        <linearGradient id="_Linear14" x1="0" y1="0" x2="1" y2="0" gradientUnits="userSpaceOnUse" gradientTransform="matrix(1,0,0,-1,0,-3.23936e-05)"><stop offset="0" style="stop-color:rgb(0,45,71);stop-opacity:1"/><stop offset="1" style="stop-color:rgb(0,29,76);stop-opacity:1"/></linearGradient>
    </defs>
</svg>
