<?xml version="1.0" encoding="UTF-8" standalone="no"?>
<!DOCTYPE svg PUBLIC "-//W3C//DTD SVG 1.1//EN" "http://www.w3.org/Graphics/SVG/1.1/DTD/svg11.dtd">
<svg width="100%" height="100%" viewBox="0 0 1234 319" version="1.1" xmlns="http://www.w3.org/2000/svg" xmlns:xlink="http://www.w3.org/1999/xlink" xml:space="preserve" xmlns:serif="http://www.serif.com/" style="fill-rule:evenodd;clip-rule:evenodd;stroke-linejoin:round;stroke-miterlimit:2;">
    <g transform="matrix(7.29046,0,0,7.29046,-46.7637,-358.887)">
        <g id="Layer-1" serif:id="Layer 1">
            <g>
                <g transform="matrix(1.23581,0,0,1.23581,171.565,79.6397)">
                    <path d="M0,2.162C0.312,2.162 0.559,2.054 0.74,1.838C0.914,1.634 1,1.376 1,1.064C1,0.751 0.914,0.493 0.74,0.289C0.559,0.073 0.312,-0.035 0,-0.035C-0.308,-0.035 -0.559,0.073 -0.752,0.289C-0.933,0.493 -1.023,0.751 -1.023,1.064C-1.023,1.376 -0.933,1.634 -0.752,1.838C-0.559,2.054 -0.308,2.162 0,2.162M0.977,2.509L0.977,2.046C0.746,2.386 0.401,2.555 -0.058,2.555C-0.474,2.555 -0.813,2.411 -1.075,2.122C-1.33,1.836 -1.457,1.484 -1.457,1.064C-1.457,0.643 -1.33,0.291 -1.075,0.006C-0.813,-0.283 -0.464,-0.428 -0.029,-0.428C0.407,-0.428 0.742,-0.257 0.977,0.087L0.977,-1.538L1.411,-1.538L1.411,2.509L0.977,2.509ZM-2.608,2.509L-3.042,2.509L-3.042,-1.538L-2.608,-1.538L-2.608,2.509ZM-4.117,-0.428L-4.088,-0.428L-4.088,0.006L-4.14,0.006C-4.452,0.006 -4.706,0.131 -4.903,0.381C-5.088,0.62 -5.181,0.906 -5.181,1.237L-5.181,2.509L-5.614,2.509L-5.614,-0.382L-5.181,-0.382L-5.181,0.329C-5.088,0.029 -4.888,-0.193 -4.579,-0.336C-4.452,-0.397 -4.298,-0.428 -4.117,-0.428M-8.199,2.162C-7.887,2.162 -7.64,2.054 -7.459,1.838C-7.285,1.634 -7.198,1.376 -7.198,1.064C-7.198,0.751 -7.285,0.493 -7.459,0.289C-7.64,0.073 -7.887,-0.035 -8.199,-0.035C-8.511,-0.035 -8.758,0.073 -8.939,0.289C-9.112,0.493 -9.199,0.751 -9.199,1.064C-9.199,1.376 -9.112,1.634 -8.939,1.838C-8.758,2.054 -8.511,2.162 -8.199,2.162M-8.199,-0.428C-7.767,-0.428 -7.416,-0.283 -7.146,0.006C-6.892,0.283 -6.765,0.636 -6.765,1.064C-6.765,1.491 -6.892,1.844 -7.146,2.122C-7.416,2.411 -7.767,2.555 -8.199,2.555C-8.63,2.555 -8.981,2.411 -9.251,2.122C-9.505,1.844 -9.633,1.491 -9.633,1.064C-9.633,0.636 -9.505,0.283 -9.251,0.006C-8.981,-0.283 -8.63,-0.428 -8.199,-0.428M-12.986,-0.706L-14.021,2.509L-14.513,2.509L-15.704,-1.318L-15.247,-1.318L-14.264,1.896L-13.235,-1.318L-12.738,-1.318L-11.708,1.896L-10.725,-1.318L-10.269,-1.318L-11.46,2.509L-11.951,2.509L-12.986,-0.706ZM-19.734,-0.035C-20,-0.035 -20.223,0.048 -20.404,0.214C-20.574,0.372 -20.678,0.578 -20.717,0.832L-18.751,0.832C-18.789,0.578 -18.893,0.372 -19.063,0.214C-19.244,0.048 -19.468,-0.035 -19.734,-0.035M-19.699,2.162C-19.31,2.162 -19.03,2 -18.861,1.676L-18.386,1.676C-18.487,1.938 -18.646,2.15 -18.864,2.312C-19.081,2.474 -19.362,2.555 -19.705,2.555C-20.14,2.555 -20.495,2.411 -20.769,2.122C-21.035,1.84 -21.168,1.488 -21.168,1.064C-21.168,0.636 -21.04,0.283 -20.786,0.006C-20.516,-0.283 -20.165,-0.428 -19.734,-0.428C-19.302,-0.428 -18.951,-0.283 -18.681,0.006C-18.427,0.283 -18.3,0.636 -18.3,1.064L-18.3,1.237L-20.722,1.237C-20.692,1.503 -20.586,1.723 -20.404,1.896C-20.219,2.073 -19.984,2.162 -19.699,2.162M-24.839,-1.538L-24.405,-1.538L-24.405,0.069C-24.301,-0.07 -24.174,-0.187 -24.024,-0.283C-23.874,-0.38 -23.702,-0.428 -23.509,-0.428C-23.317,-0.428 -23.151,-0.401 -23.012,-0.347C-22.873,-0.293 -22.752,-0.212 -22.648,-0.104C-22.409,0.131 -22.289,0.441 -22.289,0.827L-22.289,2.509L-22.723,2.509L-22.723,0.838C-22.723,0.572 -22.798,0.36 -22.948,0.202C-23.099,0.044 -23.293,-0.035 -23.532,-0.035C-23.775,-0.035 -23.981,0.046 -24.151,0.208C-24.321,0.374 -24.405,0.586 -24.405,0.844L-24.405,2.509L-24.839,2.509L-24.839,-1.538ZM-26.556,2.509L-26.99,2.509L-26.99,0L-27.58,0L-27.58,-0.382L-26.99,-0.382L-26.99,-1.417L-26.556,-1.417L-26.556,-0.382L-25.891,-0.382L-25.891,0L-26.556,0L-26.556,2.509ZM-31.696,2.162C-31.384,2.162 -31.138,2.054 -30.956,1.838C-30.783,1.634 -30.696,1.376 -30.696,1.064C-30.696,0.751 -30.783,0.493 -30.956,0.289C-31.138,0.073 -31.384,-0.035 -31.696,-0.035C-32.009,-0.035 -32.255,0.073 -32.437,0.289C-32.61,0.493 -32.697,0.751 -32.697,1.064C-32.697,1.376 -32.61,1.634 -32.437,1.838C-32.255,2.054 -32.009,2.162 -31.696,2.162M-31.696,-0.428C-31.265,-0.428 -30.914,-0.283 -30.644,0.006C-30.39,0.283 -30.263,0.636 -30.263,1.064C-30.263,1.491 -30.39,1.844 -30.644,2.122C-30.914,2.411 -31.265,2.555 -31.696,2.555C-32.128,2.555 -32.479,2.411 -32.749,2.122C-33.003,1.844 -33.13,1.491 -33.13,1.064C-33.13,0.636 -33.003,0.283 -32.749,0.006C-32.479,-0.283 -32.128,-0.428 -31.696,-0.428M-34.611,2.509L-35.044,2.509L-35.044,0L-35.634,0L-35.634,-0.382L-35.044,-0.382L-35.044,-1.417L-34.611,-1.417L-34.611,-0.382L-33.946,-0.382L-33.946,0L-34.611,0L-34.611,2.509ZM-38.392,0.393L-38.831,0.393C-38.87,0.092 -39.112,-0.058 -39.557,-0.058C-40.002,-0.058 -40.225,0.081 -40.225,0.358C-40.225,0.474 -40.178,0.562 -40.083,0.621C-39.989,0.681 -39.87,0.73 -39.728,0.769C-39.585,0.807 -39.43,0.843 -39.262,0.876C-39.094,0.908 -38.939,0.955 -38.797,1.014C-38.654,1.074 -38.536,1.156 -38.441,1.26C-38.347,1.364 -38.299,1.507 -38.299,1.688C-38.299,1.969 -38.405,2.184 -38.617,2.333C-38.829,2.481 -39.117,2.555 -39.479,2.555C-39.864,2.555 -40.171,2.459 -40.398,2.266C-40.606,2.096 -40.718,1.875 -40.734,1.601L-40.283,1.601C-40.256,1.867 -40.105,2.046 -39.832,2.139C-39.731,2.17 -39.632,2.185 -39.534,2.185C-39.436,2.185 -39.344,2.179 -39.259,2.168C-39.174,2.156 -39.092,2.135 -39.011,2.104C-38.826,2.031 -38.733,1.906 -38.733,1.728C-38.733,1.609 -38.78,1.517 -38.875,1.454C-38.969,1.39 -39.088,1.338 -39.23,1.298C-39.373,1.257 -39.528,1.221 -39.696,1.188C-39.863,1.155 -40.019,1.11 -40.161,1.052C-40.304,0.994 -40.422,0.915 -40.517,0.815C-40.611,0.715 -40.658,0.576 -40.658,0.399C-40.658,0.137 -40.563,-0.067 -40.372,-0.211C-40.181,-0.356 -39.899,-0.428 -39.525,-0.428C-39.171,-0.428 -38.891,-0.343 -38.687,-0.174C-38.517,-0.031 -38.419,0.158 -38.392,0.393M-41.757,0.393L-42.196,0.393C-42.235,0.092 -42.477,-0.058 -42.922,-0.058C-43.367,-0.058 -43.59,0.081 -43.59,0.358C-43.59,0.474 -43.543,0.562 -43.448,0.621C-43.354,0.681 -43.235,0.73 -43.093,0.769C-42.95,0.807 -42.795,0.843 -42.627,0.876C-42.46,0.908 -42.304,0.955 -42.162,1.014C-42.019,1.074 -41.901,1.156 -41.806,1.26C-41.712,1.364 -41.665,1.507 -41.665,1.688C-41.665,1.969 -41.771,2.184 -41.983,2.333C-42.195,2.481 -42.482,2.555 -42.844,2.555C-43.229,2.555 -43.536,2.459 -43.763,2.266C-43.971,2.096 -44.083,1.875 -44.099,1.601L-43.648,1.601C-43.621,1.867 -43.47,2.046 -43.197,2.139C-43.096,2.17 -42.997,2.185 -42.899,2.185C-42.801,2.185 -42.709,2.179 -42.624,2.168C-42.54,2.156 -42.457,2.135 -42.376,2.104C-42.191,2.031 -42.098,1.906 -42.098,1.728C-42.098,1.609 -42.145,1.517 -42.24,1.454C-42.334,1.39 -42.453,1.338 -42.595,1.298C-42.738,1.257 -42.893,1.221 -43.061,1.188C-43.229,1.155 -43.384,1.11 -43.526,1.052C-43.669,0.994 -43.787,0.915 -43.882,0.815C-43.976,0.715 -44.024,0.576 -44.024,0.399C-44.024,0.137 -43.928,-0.067 -43.737,-0.211C-43.547,-0.356 -43.264,-0.428 -42.89,-0.428C-42.536,-0.428 -42.256,-0.343 -42.052,-0.174C-41.882,-0.031 -41.784,0.158 -41.757,0.393M-46.44,-0.035C-46.706,-0.035 -46.93,0.048 -47.111,0.214C-47.281,0.372 -47.385,0.578 -47.423,0.832L-45.457,0.832C-45.496,0.578 -45.6,0.372 -45.77,0.214C-45.951,0.048 -46.174,-0.035 -46.44,-0.035M-46.406,2.162C-46.016,2.162 -45.737,2 -45.567,1.676L-45.093,1.676C-45.193,1.938 -45.352,2.15 -45.57,2.312C-45.788,2.474 -46.068,2.555 -46.411,2.555C-46.847,2.555 -47.202,2.411 -47.475,2.122C-47.741,1.84 -47.874,1.488 -47.874,1.064C-47.874,0.636 -47.747,0.283 -47.493,0.006C-47.223,-0.283 -46.872,-0.428 -46.44,-0.428C-46.009,-0.428 -45.658,-0.283 -45.388,0.006C-45.134,0.283 -45.006,0.636 -45.006,1.064L-45.006,1.237L-47.429,1.237C-47.398,1.503 -47.292,1.723 -47.111,1.896C-46.926,2.073 -46.691,2.162 -46.406,2.162M-51.546,-0.382L-51.112,-0.382L-51.112,0.069C-51.008,-0.07 -50.881,-0.187 -50.731,-0.283C-50.58,-0.38 -50.409,-0.428 -50.216,-0.428C-50.023,-0.428 -49.857,-0.401 -49.719,-0.347C-49.58,-0.293 -49.459,-0.212 -49.354,-0.104C-49.115,0.131 -48.996,0.441 -48.996,0.827L-48.996,2.509L-49.43,2.509L-49.43,0.838C-49.43,0.572 -49.505,0.36 -49.655,0.202C-49.805,0.044 -50,-0.035 -50.239,-0.035C-50.482,-0.035 -50.688,0.046 -50.858,0.208C-51.027,0.374 -51.112,0.586 -51.112,0.844L-51.112,2.509L-51.546,2.509L-51.546,-0.382ZM-53.327,-1.434L-52.859,-1.434L-52.859,-0.867L-53.327,-0.867L-53.327,-1.434ZM-53.309,-0.382L-52.875,-0.382L-52.875,2.509L-53.309,2.509L-53.309,-0.382ZM-55.911,-0.035C-56.223,-0.035 -56.47,0.073 -56.651,0.289C-56.825,0.493 -56.911,0.751 -56.911,1.064C-56.911,1.376 -56.825,1.634 -56.651,1.838C-56.47,2.054 -56.223,2.162 -55.911,2.162C-55.603,2.162 -55.352,2.054 -55.16,1.838C-54.978,1.634 -54.888,1.376 -54.888,1.064C-54.888,0.751 -54.978,0.493 -55.16,0.289C-55.352,0.073 -55.603,-0.035 -55.911,-0.035M-56.888,-0.382L-56.888,0.081C-56.657,-0.258 -56.312,-0.428 -55.853,-0.428C-55.437,-0.428 -55.1,-0.283 -54.842,0.006C-54.583,0.291 -54.454,0.643 -54.454,1.064C-54.454,1.484 -54.583,1.836 -54.842,2.122C-55.1,2.411 -55.447,2.555 -55.882,2.555C-56.318,2.555 -56.653,2.384 -56.888,2.041L-56.888,3.654L-57.322,3.654L-57.322,-0.382L-56.888,-0.382ZM-59.924,-0.035C-60.236,-0.035 -60.483,0.073 -60.664,0.289C-60.837,0.493 -60.924,0.751 -60.924,1.064C-60.924,1.376 -60.837,1.634 -60.664,1.838C-60.483,2.054 -60.236,2.162 -59.924,2.162C-59.615,2.162 -59.365,2.054 -59.172,1.838C-58.991,1.634 -58.9,1.376 -58.9,1.064C-58.9,0.751 -58.991,0.493 -59.172,0.289C-59.365,0.073 -59.615,-0.035 -59.924,-0.035M-60.901,-0.382L-60.901,0.081C-60.67,-0.258 -60.325,-0.428 -59.866,-0.428C-59.45,-0.428 -59.112,-0.283 -58.854,0.006C-58.596,0.291 -58.467,0.643 -58.467,1.064C-58.467,1.484 -58.596,1.836 -58.854,2.122C-59.112,2.411 -59.459,2.555 -59.895,2.555C-60.33,2.555 -60.666,2.384 -60.901,2.041L-60.901,3.654L-61.335,3.654L-61.335,-0.382L-60.901,-0.382ZM-64.075,2.162C-63.763,2.162 -63.516,2.054 -63.335,1.838C-63.162,1.634 -63.075,1.376 -63.075,1.064C-63.075,0.751 -63.162,0.493 -63.335,0.289C-63.516,0.073 -63.763,-0.035 -64.075,-0.035C-64.384,-0.035 -64.634,0.073 -64.827,0.289C-65.008,0.493 -65.099,0.751 -65.099,1.064C-65.099,1.376 -65.008,1.634 -64.827,1.838C-64.634,2.054 -64.384,2.162 -64.075,2.162M-63.098,2.509L-63.098,2.046C-63.329,2.386 -63.674,2.555 -64.133,2.555C-64.549,2.555 -64.889,2.411 -65.151,2.122C-65.405,1.836 -65.532,1.484 -65.532,1.064C-65.532,0.643 -65.405,0.291 -65.151,0.006C-64.889,-0.283 -64.54,-0.428 -64.104,-0.428C-63.669,-0.428 -63.333,-0.257 -63.098,0.087L-63.098,-0.382L-62.664,-0.382L-62.664,2.509L-63.098,2.509ZM-67.157,-1.318L-66.723,-1.318L-66.723,2.509L-67.157,2.509L-67.157,0.803L-69.383,0.803L-69.383,2.509L-69.817,2.509L-69.817,-1.318L-69.383,-1.318L-69.383,0.381L-67.157,0.381L-67.157,-1.318ZM-74.46,2.116C-74.302,2.116 -74.161,2.088 -74.037,2.032C-73.914,1.976 -73.808,1.9 -73.719,1.804C-73.546,1.603 -73.459,1.349 -73.459,1.04C-73.459,0.732 -73.546,0.478 -73.719,0.277C-73.908,0.069 -74.155,-0.035 -74.46,-0.035C-74.772,-0.035 -75.022,0.069 -75.211,0.277C-75.392,0.482 -75.483,0.736 -75.483,1.04C-75.483,1.345 -75.392,1.599 -75.211,1.804C-75.022,2.012 -74.772,2.116 -74.46,2.116M-73.482,0.081L-73.482,-0.382L-73.049,-0.382L-73.049,2.422C-73.049,2.838 -73.167,3.155 -73.404,3.373C-73.641,3.591 -73.96,3.7 -74.361,3.7C-74.762,3.7 -75.075,3.623 -75.301,3.469C-75.526,3.314 -75.68,3.11 -75.76,2.856L-75.281,2.856C-75.157,3.156 -74.876,3.307 -74.436,3.307C-74.101,3.307 -73.858,3.23 -73.708,3.075C-73.558,2.921 -73.482,2.694 -73.482,2.393L-73.482,1.994C-73.718,2.337 -74.063,2.509 -74.517,2.509C-74.934,2.509 -75.273,2.366 -75.535,2.081C-75.789,1.804 -75.917,1.457 -75.917,1.04C-75.917,0.624 -75.789,0.277 -75.535,0C-75.273,-0.285 -74.923,-0.428 -74.486,-0.428C-74.048,-0.428 -73.714,-0.258 -73.482,0.081M-79.588,-0.382L-79.154,-0.382L-79.154,0.069C-79.05,-0.07 -78.923,-0.187 -78.773,-0.283C-78.623,-0.38 -78.451,-0.428 -78.258,-0.428C-78.066,-0.428 -77.9,-0.401 -77.761,-0.347C-77.622,-0.293 -77.501,-0.212 -77.397,-0.104C-77.158,0.131 -77.038,0.441 -77.038,0.827L-77.038,2.509L-77.472,2.509L-77.472,0.838C-77.472,0.572 -77.547,0.36 -77.697,0.202C-77.848,0.044 -78.042,-0.035 -78.281,-0.035C-78.524,-0.035 -78.73,0.046 -78.9,0.208C-79.07,0.374 -79.154,0.586 -79.154,0.844L-79.154,2.509L-79.588,2.509L-79.588,-0.382ZM-81.369,-1.434L-80.901,-1.434L-80.901,-0.867L-81.369,-0.867L-81.369,-1.434ZM-81.352,-0.382L-80.918,-0.382L-80.918,2.509L-81.352,2.509L-81.352,-0.382ZM-84.092,2.116C-83.934,2.116 -83.794,2.088 -83.67,2.032C-83.547,1.976 -83.441,1.9 -83.352,1.804C-83.179,1.603 -83.092,1.349 -83.092,1.04C-83.092,0.732 -83.179,0.478 -83.352,0.277C-83.541,0.069 -83.788,-0.035 -84.092,-0.035C-84.404,-0.035 -84.655,0.069 -84.844,0.277C-85.025,0.482 -85.116,0.736 -85.116,1.04C-85.116,1.345 -85.025,1.599 -84.844,1.804C-84.655,2.012 -84.404,2.116 -84.092,2.116M-83.115,0.081L-83.115,-0.382L-82.681,-0.382L-82.681,2.422C-82.681,2.838 -82.8,3.155 -83.037,3.373C-83.274,3.591 -83.593,3.7 -83.994,3.7C-84.395,3.7 -84.708,3.623 -84.934,3.469C-85.159,3.314 -85.312,3.11 -85.393,2.856L-84.913,2.856C-84.79,3.156 -84.509,3.307 -84.069,3.307C-83.734,3.307 -83.491,3.23 -83.341,3.075C-83.19,2.921 -83.115,2.694 -83.115,2.393L-83.115,1.994C-83.35,2.337 -83.695,2.509 -84.15,2.509C-84.566,2.509 -84.906,2.366 -85.168,2.081C-85.422,1.804 -85.549,1.457 -85.549,1.04C-85.549,0.624 -85.422,0.277 -85.168,0C-84.906,-0.285 -84.556,-0.428 -84.118,-0.428C-83.681,-0.428 -83.346,-0.258 -83.115,0.081M-89.221,-0.382L-88.787,-0.382L-88.787,0.069C-88.683,-0.07 -88.556,-0.187 -88.406,-0.283C-88.255,-0.38 -88.084,-0.428 -87.891,-0.428C-87.698,-0.428 -87.532,-0.401 -87.394,-0.347C-87.255,-0.293 -87.134,-0.212 -87.029,-0.104C-86.79,0.131 -86.671,0.441 -86.671,0.827L-86.671,2.509L-87.105,2.509L-87.105,0.838C-87.105,0.572 -87.18,0.36 -87.33,0.202C-87.48,0.044 -87.675,-0.035 -87.914,-0.035C-88.157,-0.035 -88.363,0.046 -88.533,0.208C-88.702,0.374 -88.787,0.586 -88.787,0.844L-88.787,2.509L-89.221,2.509L-89.221,-0.382ZM-91.002,-1.434L-90.534,-1.434L-90.534,-0.867L-91.002,-0.867L-91.002,-1.434ZM-90.984,-0.382L-90.55,-0.382L-90.55,2.509L-90.984,2.509L-90.984,-0.382ZM-92.06,-0.428L-92.031,-0.428L-92.031,0.006L-92.083,0.006C-92.395,0.006 -92.649,0.131 -92.846,0.381C-93.031,0.62 -93.124,0.906 -93.124,1.237L-93.124,2.509L-93.557,2.509L-93.557,-0.382L-93.124,-0.382L-93.124,0.329C-93.031,0.029 -92.831,-0.193 -92.522,-0.336C-92.395,-0.397 -92.241,-0.428 -92.06,-0.428M-97.437,2.098L-96.009,2.098C-95.743,2.098 -95.539,2.043 -95.396,1.934C-95.253,1.824 -95.182,1.669 -95.182,1.468C-95.182,1.276 -95.251,1.118 -95.39,0.994C-95.544,0.855 -95.766,0.786 -96.055,0.786L-97.437,0.786L-97.437,2.098ZM-97.437,-0.908L-97.437,0.393L-96.153,0.393C-95.799,0.393 -95.562,0.272 -95.442,0.029C-95.4,-0.056 -95.379,-0.148 -95.379,-0.246C-95.379,-0.344 -95.392,-0.431 -95.419,-0.506C-95.446,-0.581 -95.488,-0.648 -95.546,-0.706C-95.673,-0.84 -95.86,-0.908 -96.107,-0.908L-97.437,-0.908ZM-94.945,-0.307C-94.945,0.114 -95.116,0.401 -95.459,0.555C-95.143,0.659 -94.928,0.85 -94.812,1.127C-94.77,1.235 -94.748,1.36 -94.748,1.503C-94.748,1.965 -94.993,2.274 -95.483,2.428C-95.645,2.482 -95.835,2.509 -96.055,2.509L-97.871,2.509L-97.871,-1.318L-96.153,-1.318C-95.741,-1.318 -95.427,-1.207 -95.211,-0.983C-95.034,-0.806 -94.945,-0.58 -94.945,-0.307" style="fill:rgb(252,184,0);fill-rule:nonzero;"/>
                </g>
                <g transform="matrix(1.23581,0,0,1.23581,172.735,57.9984)">
                    <path d="M0,13.332L-2.261,13.332L-9.738,2.683L-9.805,2.683L-9.805,9.94C-9.805,10.502 -9.785,10.947 -9.746,11.273C-9.707,11.599 -9.622,11.853 -9.493,12.033C-9.363,12.213 -9.183,12.331 -8.953,12.387C-8.722,12.443 -8.421,12.477 -8.05,12.488L-8.05,13.163L-13.062,13.163L-13.062,12.488C-12.646,12.477 -12.311,12.44 -12.058,12.378C-11.805,12.317 -11.608,12.201 -11.467,12.033C-11.327,11.864 -11.234,11.625 -11.189,11.315C-11.144,11.006 -11.121,10.587 -11.121,10.058L-11.121,3.274C-11.121,2.801 -11.144,2.41 -11.189,2.101C-11.234,1.791 -11.318,1.547 -11.442,1.367C-11.566,1.187 -11.743,1.06 -11.974,0.987C-12.204,0.914 -12.511,0.866 -12.893,0.844L-12.893,0.169L-8.185,0.169L-1.384,9.923L-1.316,9.923L-1.316,3.392C-1.316,2.841 -1.336,2.399 -1.375,2.067C-1.415,1.735 -1.499,1.479 -1.629,1.299C-1.758,1.119 -1.938,1.001 -2.169,0.945C-2.399,0.889 -2.7,0.855 -3.071,0.844L-3.071,0.169L1.941,0.169L1.941,0.844C1.524,0.855 1.19,0.891 0.937,0.953C0.683,1.015 0.487,1.13 0.346,1.299C0.205,1.468 0.113,1.71 0.068,2.025C0.023,2.34 0,2.756 0,3.274L0,13.332ZM-22.142,12.235C-21.489,12.235 -20.898,12.108 -20.37,11.855C-19.841,11.602 -19.391,11.242 -19.019,10.775C-18.648,10.308 -18.364,9.74 -18.167,9.071C-17.97,8.401 -17.872,7.65 -17.872,6.818C-17.872,5.94 -17.97,5.15 -18.167,4.447C-18.364,3.743 -18.648,3.142 -19.019,2.641C-19.391,2.14 -19.841,1.758 -20.37,1.493C-20.898,1.229 -21.489,1.097 -22.142,1.097C-22.805,1.097 -23.399,1.229 -23.922,1.493C-24.445,1.758 -24.892,2.14 -25.264,2.641C-25.635,3.142 -25.919,3.743 -26.116,4.447C-26.313,5.15 -26.411,5.94 -26.411,6.818C-26.411,7.65 -26.313,8.401 -26.116,9.071C-25.919,9.74 -25.635,10.308 -25.264,10.775C-24.892,11.242 -24.445,11.602 -23.922,11.855C-23.399,12.108 -22.805,12.235 -22.142,12.235M-22.142,0C-21.129,0 -20.184,0.174 -19.306,0.523C-18.429,0.872 -17.667,1.35 -17.02,1.957C-16.373,2.565 -15.864,3.279 -15.492,4.101C-15.121,4.922 -14.935,5.811 -14.935,6.767C-14.935,7.678 -15.124,8.534 -15.501,9.332C-15.878,10.131 -16.39,10.826 -17.037,11.417C-17.683,12.007 -18.446,12.474 -19.323,12.817C-20.201,13.16 -21.14,13.332 -22.142,13.332C-23.143,13.332 -24.082,13.16 -24.96,12.817C-25.837,12.474 -26.602,12.007 -27.255,11.417C-27.908,10.826 -28.419,10.131 -28.791,9.332C-29.162,8.534 -29.348,7.678 -29.348,6.767C-29.348,5.811 -29.162,4.922 -28.791,4.101C-28.419,3.279 -27.91,2.565 -27.263,1.957C-26.617,1.35 -25.854,0.872 -24.977,0.523C-24.099,0.174 -23.154,0 -22.142,0M-31.575,8.86L-31.795,13.163L-44.148,13.163L-44.148,12.775L-35.659,1.046L-39.929,1.046C-40.762,1.046 -41.389,1.254 -41.811,1.671C-42.233,2.087 -42.522,2.734 -42.68,3.611L-43.338,3.611L-43.068,0.169L-32.132,0.169L-32.132,0.557L-40.537,12.218L-35.71,12.218C-35.102,12.218 -34.605,12.168 -34.216,12.066C-33.828,11.965 -33.513,11.785 -33.271,11.526C-33.03,11.267 -32.841,10.924 -32.706,10.497C-32.571,10.069 -32.453,9.524 -32.352,8.86L-31.575,8.86ZM-52.822,3.105L-54.831,8.219L-50.814,8.219L-52.755,3.105L-52.822,3.105ZM-50.055,10.244L-50.443,9.231L-55.219,9.231C-55.748,10.424 -56.012,11.251 -56.012,11.712C-56.012,12.049 -55.885,12.263 -55.632,12.353C-55.379,12.443 -54.999,12.488 -54.493,12.488L-54.493,13.163L-59.117,13.163L-59.117,12.488C-58.847,12.454 -58.614,12.409 -58.417,12.353C-58.22,12.297 -58.046,12.218 -57.894,12.117C-57.742,12.016 -57.61,11.883 -57.497,11.72C-57.385,11.557 -57.278,11.357 -57.177,11.121L-52.738,0L-51.489,0L-47.456,9.855C-47.22,10.429 -47.02,10.879 -46.857,11.206C-46.694,11.532 -46.519,11.782 -46.334,11.957C-46.148,12.131 -45.934,12.252 -45.692,12.319C-45.45,12.387 -45.138,12.438 -44.756,12.471L-44.756,13.163L-51.135,13.163L-51.135,12.471C-50.595,12.449 -50.207,12.393 -49.97,12.303C-49.734,12.213 -49.616,12.033 -49.616,11.763C-49.616,11.605 -49.655,11.402 -49.734,11.155C-49.813,10.907 -49.92,10.604 -50.055,10.244M-67.437,1.198L-69.547,1.198C-69.738,1.198 -69.834,1.294 -69.834,1.485L-69.834,10.21C-69.834,10.862 -69.631,11.346 -69.226,11.661C-68.821,11.976 -68.197,12.134 -67.353,12.134C-65.879,12.134 -64.745,11.689 -63.952,10.801C-63.159,9.912 -62.763,8.618 -62.763,6.919C-62.763,6.019 -62.869,5.215 -63.083,4.506C-63.297,3.797 -63.606,3.198 -64.011,2.708C-64.416,2.219 -64.909,1.845 -65.488,1.586C-66.067,1.327 -66.717,1.198 -67.437,1.198M-67.049,13.163L-74.086,13.163L-74.086,12.488C-73.715,12.477 -73.414,12.446 -73.184,12.395C-72.953,12.345 -72.773,12.249 -72.644,12.108C-72.514,11.968 -72.427,11.777 -72.382,11.535C-72.337,11.293 -72.314,10.969 -72.314,10.564L-72.314,2.767C-72.314,2.374 -72.331,2.056 -72.365,1.814C-72.399,1.572 -72.472,1.381 -72.584,1.24C-72.697,1.1 -72.852,1.004 -73.049,0.953C-73.245,0.903 -73.501,0.866 -73.816,0.844L-73.816,0.169L-67.404,0.169C-66.323,0.169 -65.328,0.337 -64.416,0.675C-63.505,1.012 -62.718,1.479 -62.054,2.076C-61.39,2.672 -60.872,3.381 -60.501,4.202C-60.13,5.023 -59.944,5.918 -59.944,6.885C-59.944,7.808 -60.119,8.654 -60.467,9.425C-60.816,10.196 -61.303,10.857 -61.927,11.408C-62.552,11.959 -63.3,12.39 -64.172,12.699C-65.044,13.009 -66.003,13.163 -67.049,13.163M-83.571,1.687L-83.571,5.974C-82.851,5.974 -82.271,5.951 -81.833,5.906C-81.394,5.861 -81.054,5.769 -80.812,5.628C-80.57,5.487 -80.398,5.282 -80.297,5.012C-80.196,4.742 -80.117,4.376 -80.061,3.915L-79.436,3.915L-79.436,8.86L-80.061,8.86C-80.128,8.41 -80.218,8.05 -80.331,7.78C-80.443,7.51 -80.623,7.304 -80.871,7.164C-81.118,7.023 -81.453,6.933 -81.875,6.894C-82.297,6.854 -82.862,6.835 -83.571,6.835L-83.571,10.311C-83.571,10.671 -83.523,10.975 -83.427,11.222C-83.332,11.47 -83.171,11.67 -82.946,11.822C-82.721,11.973 -82.423,12.08 -82.052,12.142C-81.681,12.204 -81.225,12.235 -80.685,12.235C-80.044,12.235 -79.501,12.19 -79.057,12.1C-78.612,12.01 -78.244,11.853 -77.951,11.628C-77.659,11.402 -77.422,11.102 -77.242,10.725C-77.062,10.348 -76.91,9.872 -76.787,9.299L-76.112,9.299L-76.382,13.163L-87.824,13.163L-87.824,12.488C-87.452,12.477 -87.149,12.443 -86.912,12.387C-86.676,12.331 -86.496,12.235 -86.372,12.1C-86.249,11.965 -86.164,11.774 -86.119,11.526C-86.074,11.279 -86.052,10.958 -86.052,10.564L-86.052,2.767C-86.052,2.374 -86.071,2.056 -86.111,1.814C-86.15,1.572 -86.226,1.381 -86.339,1.24C-86.451,1.1 -86.611,1.004 -86.82,0.953C-87.028,0.903 -87.301,0.866 -87.638,0.844L-87.638,0.169L-76.972,0.169L-76.854,3.476L-77.58,3.476C-77.647,3.004 -77.754,2.613 -77.9,2.303C-78.047,1.994 -78.249,1.746 -78.508,1.561C-78.767,1.375 -79.102,1.246 -79.512,1.173C-79.923,1.1 -80.426,1.063 -81.023,1.063L-82.93,1.063C-83.222,1.063 -83.402,1.1 -83.47,1.173C-83.537,1.246 -83.571,1.417 -83.571,1.687M-96.042,7.172L-96.042,10.446C-96.042,10.874 -96.014,11.22 -95.958,11.484C-95.902,11.748 -95.786,11.951 -95.612,12.092C-95.438,12.232 -95.19,12.331 -94.87,12.387C-94.549,12.443 -94.119,12.477 -93.578,12.488L-93.578,13.163L-100.295,13.163L-100.295,12.488C-99.924,12.477 -99.62,12.443 -99.384,12.387C-99.148,12.331 -98.968,12.235 -98.844,12.1C-98.72,11.965 -98.636,11.774 -98.591,11.526C-98.546,11.279 -98.523,10.958 -98.523,10.564L-98.523,2.767C-98.523,2.374 -98.543,2.056 -98.582,1.814C-98.622,1.572 -98.698,1.381 -98.81,1.24C-98.923,1.1 -99.083,1.004 -99.291,0.953C-99.499,0.903 -99.772,0.866 -100.11,0.844L-100.11,0.169L-89.781,0.169L-89.579,3.729L-90.288,3.729C-90.355,3.246 -90.454,2.838 -90.583,2.506C-90.712,2.174 -90.895,1.904 -91.131,1.696C-91.368,1.488 -91.671,1.339 -92.043,1.249C-92.414,1.159 -92.87,1.114 -93.41,1.114L-95.739,1.114C-95.941,1.114 -96.042,1.209 -96.042,1.401L-96.042,6.278C-95.356,6.278 -94.796,6.25 -94.363,6.193C-93.93,6.137 -93.584,6.027 -93.325,5.864C-93.067,5.701 -92.881,5.479 -92.768,5.198C-92.656,4.916 -92.577,4.545 -92.532,4.084L-91.908,4.084L-91.908,9.366L-92.532,9.366C-92.6,8.894 -92.695,8.514 -92.819,8.227C-92.943,7.94 -93.131,7.721 -93.384,7.569C-93.638,7.417 -93.978,7.313 -94.405,7.257C-94.833,7.2 -95.379,7.172 -96.042,7.172" style="fill:rgb(252,184,0);fill-rule:nonzero;"/>
                </g>
                <g transform="matrix(1.23581,0,0,1.23581,32.6755,67.9394)">
                    <path d="M0,5.123C-0.181,5.123 -0.32,5.263 -0.32,5.443C-0.32,5.624 -0.181,5.763 0,5.763C0.181,5.763 0.32,5.624 0.32,5.443C0.32,5.263 0.181,5.123 0,5.123M-5.123,5.123C-5.303,5.123 -5.443,5.263 -5.443,5.443C-5.443,5.624 -5.303,5.763 -5.123,5.763C-4.942,5.763 -4.803,5.624 -4.803,5.443C-4.803,5.263 -4.942,5.123 -5.123,5.123M-5.123,4.483C-4.596,4.483 -4.162,4.916 -4.162,5.443C-4.162,5.867 -4.439,6.217 -4.823,6.344L-4.823,7.364C-4.823,8.61 -3.837,9.605 -2.581,9.605C-1.326,9.605 -0.32,8.61 -0.32,7.364L-0.32,6.344C-0.695,6.212 -0.961,5.86 -0.961,5.443C-0.961,4.916 -0.527,4.483 0,4.483C0.527,4.483 0.961,4.916 0.961,5.443C0.961,5.86 0.695,6.212 0.32,6.344L0.32,7.364C0.32,8.956 -0.984,10.246 -2.581,10.246C-4.179,10.246 -5.463,8.956 -5.463,7.364L-5.463,6.344C-5.828,6.207 -6.083,5.854 -6.083,5.443C-6.083,4.916 -5.649,4.483 -5.123,4.483M-9.285,3.842L-9.285,11.526L3.522,11.526L3.522,3.842L-9.285,3.842ZM-4.482,-0.32C-4.663,-0.32 -4.803,-0.18 -4.803,0C-4.803,0.181 -4.663,0.32 -4.482,0.32C-4.302,0.32 -4.162,0.181 -4.162,0C-4.162,-0.18 -4.302,-0.32 -4.482,-0.32M-9.605,-0.32C-9.786,-0.32 -9.925,-0.18 -9.925,0C-9.925,0.181 -9.786,0.32 -9.605,0.32C-9.425,0.32 -9.285,0.181 -9.285,0C-9.285,-0.18 -9.425,-0.32 -9.605,-0.32M-14.408,-0.64L-14.408,11.206C-14.408,11.389 -14.271,11.526 -14.088,11.526L-13.067,11.526C-13.102,11.428 -13.127,11.316 -13.127,11.206L-13.127,-0.64C-13.135,-0.636 -13.139,-0.626 -13.147,-0.62C-13.536,-0.435 -13.999,-0.435 -14.388,-0.62C-14.396,-0.624 -14.399,-0.634 -14.408,-0.64M-12.167,-1.921C-12.304,-1.921 -12.42,-1.836 -12.467,-1.721C-12.482,-1.682 -12.487,-1.646 -12.487,-1.601L-12.487,11.206C-12.487,11.343 -12.402,11.459 -12.287,11.506C-12.248,11.52 -12.212,11.526 -12.167,11.526L-9.925,11.526L-9.925,3.522C-9.925,3.345 -9.782,3.202 -9.605,3.202L-1.601,3.202L-1.601,-1.601C-1.601,-1.784 -1.738,-1.921 -1.921,-1.921L-4.142,-1.921L-4.142,-0.9C-3.777,-0.764 -3.522,-0.41 -3.522,0C-3.522,0.527 -3.956,0.961 -4.482,0.961C-5.009,0.961 -5.443,0.527 -5.443,0C-5.443,-0.423 -5.166,-0.774 -4.783,-0.9L-4.783,-1.921L-9.285,-1.921L-9.285,-0.9C-8.91,-0.769 -8.645,-0.417 -8.645,0C-8.645,0.527 -9.078,0.961 -9.605,0.961C-10.132,0.961 -10.566,0.527 -10.566,0C-10.566,-0.417 -10.3,-0.769 -9.925,-0.9L-9.925,-1.921L-12.167,-1.921ZM-14.088,-1.921C-14.133,-1.921 -14.169,-1.917 -14.208,-1.901C-14.246,-1.885 -14.279,-1.85 -14.308,-1.821C-14.332,-1.794 -14.374,-1.755 -14.388,-1.721C-14.403,-1.682 -14.408,-1.646 -14.408,-1.601C-14.407,-1.458 -14.312,-1.299 -14.108,-1.2C-13.902,-1.103 -13.632,-1.103 -13.427,-1.2C-13.223,-1.297 -13.128,-1.458 -13.127,-1.601C-13.127,-1.71 -13.102,-1.822 -13.067,-1.921L-14.088,-1.921ZM-8.304,-7.044C-9.902,-7.044 -11.206,-5.753 -11.206,-4.162L-11.206,-2.561L-10.566,-2.561L-10.566,-4.162C-10.566,-5.408 -9.56,-6.403 -8.304,-6.403C-8.096,-6.403 -7.895,-6.374 -7.704,-6.323C-8.974,-6.018 -9.925,-4.879 -9.925,-3.522L-9.925,-2.561L-9.285,-2.561L-9.285,-3.522C-9.285,-4.767 -8.28,-5.763 -7.024,-5.763C-6.915,-5.763 -6.808,-5.756 -6.704,-5.743C-6.297,-5.338 -6.063,-4.785 -6.063,-4.162L-6.063,-2.561L-5.423,-2.561L-5.423,-4.162C-5.423,-4.56 -5.496,-4.938 -5.643,-5.283C-5.115,-4.874 -4.783,-4.245 -4.783,-3.522L-4.783,-2.561L-4.142,-2.561L-4.142,-3.522C-4.142,-4.907 -5.114,-6.067 -6.423,-6.343C-6.93,-6.777 -7.584,-7.044 -8.304,-7.044M-5.443,-12.161C2.692,-12.161 9.28,-5.575 9.28,2.56C9.28,10.696 2.692,17.285 -5.443,17.285C-13.578,17.285 -20.166,10.696 -20.166,2.56C-20.166,-5.575 -13.578,-12.161 -5.443,-12.161M-5.443,-12.807C-13.927,-12.807 -20.811,-5.924 -20.811,2.56C-20.811,11.044 -13.927,17.93 -5.443,17.93C3.041,17.93 9.925,11.044 9.925,2.56C9.925,-5.924 3.041,-12.807 -5.443,-12.807" style="fill:rgb(252,184,0);fill-rule:nonzero;"/>
                </g>
            </g>
        </g>
    </g>
</svg>
