<?xml version="1.0" encoding="UTF-8" standalone="no"?>
<!DOCTYPE svg PUBLIC "-//W3C//DTD SVG 1.1//EN" "http://www.w3.org/Graphics/SVG/1.1/DTD/svg11.dtd">
<svg width="100%" height="100%" viewBox="0 0 1234 319" version="1.1" xmlns="http://www.w3.org/2000/svg" xmlns:xlink="http://www.w3.org/1999/xlink" xml:space="preserve" xmlns:serif="http://www.serif.com/" style="fill-rule:evenodd;clip-rule:evenodd;stroke-linejoin:round;stroke-miterlimit:2;">
    <g transform="matrix(1,0,0,1,-51.9551,-0.0508335)">
        <g transform="matrix(1.14011,0,0,1.14011,107.48,237.062)">
            <path d="M0,-135.972L0,-0L117.76,67.986L235.52,-0L235.52,-135.972L117.76,-203.958L0,-135.972Z" style="fill:rgb(3,76,181);fill-rule:nonzero;"/>
        </g>
        <g transform="matrix(1.14011,0,0,1.14011,252.362,291.41)">
            <path d="M0,-166.762L0,-5.381L-9.318,0L-27.953,-10.762L-30.282,-12.09L-58.235,-28.233L-60.564,-29.584L-69.882,-34.964L-79.2,-40.345L-79.2,-121.036L-60.564,-131.798L-60.564,-51.107L-51.247,-45.726L-48.917,-44.375L-48.917,-138.506L-30.282,-149.268L-30.282,-33.613L-20.965,-28.233L-18.635,-26.905L-18.635,-156L0,-166.762Z" style="fill:white;fill-rule:nonzero;"/>
        </g>
        <g transform="matrix(1.14011,0,0,1.14011,297.51,205.575)">
            <path d="M0,-127.791L-27.953,-111.648L-30.282,-110.297L-58.235,-94.154L-60.564,-92.803L-79.2,-82.041L-88.517,-76.684L-90.847,-75.333L-118.799,-59.19L-121.129,-57.862L-130.446,-52.458L-130.446,28.232L-139.787,22.828L-149.082,17.47L-149.082,-98.208L-139.787,-103.565L-139.764,-103.565L-130.446,-108.969L-128.14,-110.297L-118.799,-115.678L-100.164,-126.44L-97.835,-127.791L-69.882,-143.934L-67.553,-145.262L-48.917,-156.023L-30.282,-145.262L-58.235,-129.119L-60.564,-127.791L-88.517,-111.648L-90.847,-110.297L-118.799,-94.154L-121.129,-92.803L-130.446,-87.446L-130.446,-73.982L-128.117,-75.333L-100.164,-91.476L-97.858,-92.803L-97.835,-92.803L-88.517,-98.208L-79.2,-103.565L-69.882,-108.946L-67.553,-110.297L-39.6,-126.44L-37.27,-127.791L-18.635,-138.553L0,-127.791Z" style="fill:white;fill-rule:nonzero;"/>
        </g>
        <g transform="matrix(1.14011,0,0,1.14011,321.412,243.871)">
            <path d="M0,-125.042L2.329,-126.393L0,-127.744L-9.318,-133.125L-18.635,-127.744L-20.965,-126.393L-30.282,-121.012L-30.282,-72.63L-27.976,-73.958L-18.635,-79.339L0,-90.101L2.329,-91.452L30.282,-107.595L30.282,-16.119L20.988,-10.762L11.647,-5.357L9.341,-4.03L0,1.351L-9.318,6.732L-18.635,12.113L-20.965,13.464L-48.917,29.607L-48.917,-26.904L-39.6,-32.285L-30.282,-37.643L-27.953,-38.994L-9.318,-49.756L0,-55.137L0,-33.613L-18.635,-22.851L-20.941,-21.523L-20.965,-21.523L-30.282,-16.119L-30.282,-2.679L-27.953,-4.03L0,-20.172L2.329,-21.523L2.353,-21.523L11.647,-26.881L11.647,-75.309L9.318,-73.958L-18.635,-57.815L-20.988,-56.464L-30.282,-51.107L-39.6,-45.726L-48.917,-51.107L-48.917,-131.774L-30.282,-142.536L-27.953,-143.887L-9.318,-154.649L0,-149.268L9.341,-143.887L11.647,-142.559L20.965,-137.155L20.988,-137.155L30.282,-131.797L30.282,-121.035L11.647,-110.274L9.318,-108.923L0,-103.565L-9.318,-98.161L-9.341,-98.161L-18.635,-92.803L-18.635,-114.303L-9.318,-119.684L0,-125.042Z" style="fill:white;fill-rule:nonzero;"/>
        </g>
        <g transform="matrix(1.14011,0,0,1.14011,1203.74,95.0126)">
            <path d="M0,42.707C0,36.006 0.005,30.516 -0.001,25.027C-0.013,14.026 0.11,3.022 -0.09,-7.976C-0.248,-16.647 -1.36,-17.86 -9.821,-19.7C-11.714,-20.112 -12.197,-21.017 -12.216,-22.716C-12.238,-24.747 -11.115,-25.149 -9.383,-25.143C0.498,-25.105 10.379,-25.131 20.26,-25.096C21.768,-25.09 23.274,-24.955 23.398,-22.843C23.523,-20.741 22.498,-19.703 20.517,-19.755C11.642,-19.991 9.675,-14.665 9.696,-6.786C9.759,16.038 9.608,38.863 9.818,61.686C9.857,65.902 8.417,66.475 4.543,66.939C-3.661,67.922 -8.488,64.818 -13.053,58.013C-26.683,37.694 -41.117,17.91 -55.261,-2.065C-56.159,-3.335 -56.792,-4.924 -59.076,-5.835L-59.076,4.191C-59.077,17.984 -59.091,31.777 -59.061,45.57C-59.057,47.532 -58.976,49.513 -58.694,51.452C-57.723,58.155 -56.482,59.459 -49.752,60.359C-47.782,60.623 -46.749,61.094 -46.77,63.265C-46.791,65.57 -48.063,65.924 -49.959,65.917C-59.511,65.879 -69.063,65.897 -78.615,65.902C-80.337,65.903 -81.961,65.887 -82.12,63.515C-82.284,61.061 -80.933,60.615 -78.82,60.356C-70.979,59.394 -69.319,57.84 -68.966,49.726C-68.104,29.887 -67.982,10.031 -69.053,-9.806C-69.423,-16.653 -71.201,-18.44 -77.762,-19.568C-79.62,-19.888 -80.912,-20.286 -80.935,-22.437C-80.96,-24.73 -79.487,-25.116 -77.668,-25.117C-68.61,-25.122 -59.552,-25.043 -50.495,-25.171C-47.391,-25.215 -46.277,-23.032 -44.886,-21.046C-30.656,-0.732 -16.439,19.592 -2.213,39.908C-1.78,40.527 -1.277,41.097 0,42.707" style="fill:rgb(4,72,179);fill-rule:nonzero;"/>
        </g>
        <g transform="matrix(1.14011,0,0,1.14011,937.284,161.89)">
            <path d="M0,-77.137C-11.462,-77.137 -21.662,-77.302 -31.853,-77.083C-39.494,-76.918 -44.262,-72.52 -46.892,-65.613C-47.415,-64.24 -47.797,-62.797 -48.08,-61.354C-48.425,-59.595 -49.638,-59.557 -51.035,-59.52C-52.907,-59.472 -53.249,-60.6 -53.151,-62.059C-52.722,-68.437 -52.273,-74.814 -51.801,-81.19C-51.553,-84.55 -48.895,-83.752 -46.942,-83.758C-29.002,-83.814 -11.063,-83.792 6.876,-83.792C11.156,-83.792 15.438,-83.892 19.712,-83.744C21.525,-83.681 23.94,-84.793 24.958,-82.337C25.766,-80.388 24.135,-78.953 23.101,-77.524C14.435,-65.558 5.728,-53.621 -2.948,-41.663C-12.108,-29.037 -21.258,-16.404 -30.377,-3.749C-31.097,-2.75 -32.641,-1.802 -31.905,-0.427C-31.178,0.932 -29.5,0.227 -28.275,0.203C-16.768,-0.02 -5.256,0.707 6.251,-0.207C14.892,-0.892 19.656,-5.627 21.565,-13.729C22.09,-15.96 22.835,-18.177 23.032,-20.44C23.256,-23.017 24.729,-23.172 26.731,-23.151C29.107,-23.126 29.293,-21.753 29.193,-19.893C28.772,-12.04 28.37,-4.186 28.061,3.672C27.954,6.415 26.673,7.288 24.01,7.282C-2.488,7.219 -28.986,7.249 -55.483,7.229C-56.737,7.228 -58.342,7.656 -58.926,6.065C-59.58,4.284 -58.316,2.961 -57.352,1.638C-44.109,-16.542 -30.859,-34.718 -17.617,-52.899C-11.953,-60.677 -6.303,-68.465 0,-77.137" style="fill:rgb(4,72,179);fill-rule:nonzero;"/>
        </g>
        <g transform="matrix(1.14011,0,0,1.14011,559.591,67.6593)">
            <path d="M0,89.896C-11.855,89.896 -23.71,89.944 -35.563,89.846C-37.401,89.83 -40.125,91.058 -40.446,87.482C-40.755,84.033 -38.243,84.562 -36.21,84.289C-30.732,83.554 -28.328,81.324 -28.277,75.491C-28.096,54.644 -28.086,33.793 -28.279,12.947C-28.333,7.099 -30.281,5.361 -36.289,4.395C-38.233,4.083 -39.312,3.553 -39.273,1.412C-39.231,-0.949 -37.723,-1.139 -35.945,-1.138C-13.224,-1.133 9.497,-1.117 32.218,-1.157C34.663,-1.162 35.887,-0.239 35.941,2.255C36.067,8.159 36.244,14.061 36.429,19.964C36.463,21.062 36.226,22.012 35.023,22.149C33.758,22.293 32.343,22.639 31.357,21.407C31.065,21.043 30.916,20.515 30.835,20.039C28.775,7.941 19.98,5.586 9.65,5.493C4.382,5.446 -0.887,5.522 -6.155,5.465C-9.272,5.431 -10.51,6.761 -10.455,9.951C-10.304,18.649 -10.401,27.351 -10.404,36.052C-10.405,37.74 -10.507,39.615 -8.044,39.45C-3.793,39.165 0.465,38.852 4.686,38.289C9.858,37.6 12.169,34.085 13.079,29.287C13.422,27.477 13.21,24.988 16.185,25.171C19.469,25.373 18.293,27.992 18.312,29.686C18.414,38.549 18.378,47.415 18.341,56.28C18.335,57.641 18.861,59.368 16.575,59.66C14.498,59.926 13.783,58.899 13.201,57.039C10.274,47.693 1.472,43.201 -8.434,45.676C-10.505,46.193 -10.4,47.517 -10.401,49.002C-10.404,56.389 -10.517,63.779 -10.369,71.163C-10.249,77.123 -7.283,80.685 -1.458,81.916C6.371,83.57 14.262,83.436 22.048,81.7C28.775,80.201 32.709,75.552 34.867,69.252C35.45,67.551 35.851,65.79 36.368,64.065C36.954,62.11 38.596,62.424 40.038,62.489C41.817,62.57 41.463,63.945 41.397,65.039C40.945,72.568 40.425,80.093 40.017,87.624C39.857,90.577 37.717,89.869 36.058,89.874C24.039,89.914 12.019,89.896 0,89.896" style="fill:rgb(4,72,179);fill-rule:nonzero;"/>
        </g>
        <g transform="matrix(1.14011,0,0,1.14011,457.342,170.061)">
            <path d="M0,-90.958C10.534,-90.958 21.069,-90.867 31.6,-91.014C34.71,-91.057 35.934,-90.209 35.967,-86.9C36.027,-80.846 36.629,-74.799 36.939,-68.746C37.012,-67.326 37.271,-65.715 34.908,-65.673C33.01,-65.639 32.08,-66.139 31.43,-68.148C27.081,-81.599 25.175,-83.106 10.991,-84.064C6.075,-84.396 1.119,-84.094 -3.816,-84.207C-6.677,-84.273 -8.029,-83.24 -7.996,-80.203C-7.894,-70.686 -7.925,-61.167 -7.979,-51.649C-7.99,-49.697 -7.529,-48.573 -5.284,-48.566C-0.992,-48.554 3.281,-48.604 7.443,-49.802C12.733,-51.326 14.962,-55.37 15.766,-60.348C16.095,-62.382 16.402,-63.782 18.953,-63.544C21.619,-63.294 20.95,-61.39 20.956,-59.895C20.996,-50.049 21.005,-40.202 20.945,-30.356C20.936,-28.904 21.72,-26.925 19.085,-26.572C16.646,-26.246 16.184,-27.611 15.624,-29.592C12.994,-38.895 3.946,-43.927 -5.783,-41.848C-7.796,-41.418 -7.967,-40.229 -7.961,-38.66C-7.932,-30.947 -8.095,-23.229 -7.836,-15.525C-7.611,-8.813 -4.92,-6.28 1.892,-5.584C3.363,-5.434 4.849,-5.353 6.327,-5.361C8.078,-5.369 9.131,-4.791 9.204,-2.857C9.285,-0.734 8.282,0.082 6.244,0.079C-7.746,0.06 -21.736,0.054 -35.726,0.094C-37.63,0.099 -38.377,-0.673 -38.348,-2.542C-38.323,-4.228 -37.952,-5.073 -35.954,-5.423C-26.99,-6.993 -25.878,-8.039 -25.782,-17.137C-25.583,-36.17 -25.599,-55.209 -25.808,-74.242C-25.9,-82.637 -26.478,-83.059 -34.758,-85.503C-36.677,-86.07 -36.981,-87.262 -36.847,-88.805C-36.674,-90.79 -35.136,-90.947 -33.576,-90.949C-26.992,-90.954 -20.409,-90.956 -13.825,-90.958C-9.217,-90.959 -4.608,-90.958 0,-90.958" style="fill:rgb(4,72,179);fill-rule:nonzero;"/>
        </g>
        <g transform="matrix(1.14011,0,0,1.14011,708.35,90.4946)">
            <path d="M0,46.976C-6.162,59.597 -25.129,66.18 -37.91,60.4C-42.869,58.158 -44.794,54.053 -44.818,48.896C-44.863,39.211 -44.831,29.525 -44.831,19.84C-44.831,10.318 -44.641,0.792 -44.92,-8.722C-45.039,-12.778 -43.49,-13.931 -39.748,-13.728C-35.152,-13.48 -30.513,-13.842 -25.936,-13.442C-11.142,-12.147 -1.612,-4.321 2.263,9.989C5.651,22.502 5.834,35.027 0,46.976M-12.282,-19.132C-31.404,-23.409 -50.976,-20.492 -70.335,-21.122C-72.214,-21.183 -72.921,-20.109 -72.888,-18.312C-72.853,-16.421 -71.869,-15.768 -70.095,-15.696C-65.311,-15.502 -62.914,-12.823 -62.727,-8.185C-61.867,13.115 -61.755,34.422 -62.773,55.715C-63.072,61.962 -64.972,63.532 -71.317,64.283C-73.333,64.522 -74.799,64.73 -74.678,67.317C-74.549,70.095 -72.687,69.859 -70.867,69.861C-63.463,69.868 -56.059,69.864 -48.656,69.866C-38.303,69.795 -27.918,70.385 -17.615,69.133C-0.616,67.068 13.255,59.873 20.682,43.655C32.596,17.638 16.878,-12.609 -12.282,-19.132" style="fill:rgb(4,72,179);fill-rule:nonzero;"/>
        </g>
        <g transform="matrix(1.14011,0,0,1.14011,1072.73,94.1343)">
            <path d="M0,37.551C-4.068,51.988 -15.048,60.251 -28.8,59.712C-42.484,59.176 -53.115,49.555 -56.086,34.922C-56.967,30.581 -57.631,26.198 -57.446,23.512C-57.282,13.796 -56.175,6.074 -52.673,-1.181C-47.443,-12.013 -38.805,-17.803 -26.787,-17.483C-14.689,-17.16 -6.429,-10.571 -1.934,0.403C3.016,12.488 3.531,25.019 0,37.551M8.41,-11.688C-10.493,-29.846 -43.883,-30.006 -63.183,-12.28C-82.018,5.02 -83.534,33.466 -66.322,51.612C-55.952,62.544 -42.854,67.472 -27.852,67.552C-23.058,67.557 -18.304,67.225 -13.683,65.925C3.841,60.996 16.675,50.633 21.44,32.749C25.982,15.703 21.162,0.562 8.41,-11.688" style="fill:rgb(4,72,179);fill-rule:nonzero;"/>
        </g>
        <g transform="matrix(1.14011,0,0,1.14011,805.162,104.898)">
            <path d="M0,22.114C-7.225,22.104 -14.451,22.072 -21.676,22.131C-23.859,22.149 -24.157,21.315 -23.419,19.462C-19.252,8.993 -15.135,-1.496 -10.518,-13.203C-6.003,-1.349 -2.037,9.176 2.032,19.66C2.938,21.995 1.701,22.116 0,22.114M43.55,51.611C36.195,51.387 32.508,46.709 29.963,40.546C20.262,17.055 10.475,-6.401 0.841,-29.919C-0.512,-33.22 -1.831,-35.205 -6.096,-35.2C-10.419,-35.194 -11.187,-32.72 -12.364,-29.78C-21.811,-6.182 -31.354,17.38 -40.767,40.992C-42.966,46.51 -45.989,50.904 -52.443,51.582C-54.736,51.822 -55,53.227 -54.867,55.034C-54.716,57.079 -53.262,57.229 -51.688,57.228C-42.794,57.226 -33.901,57.183 -25.008,57.253C-21.441,57.281 -21.929,54.949 -22.445,52.896C-22.878,51.175 -24.64,51.912 -25.846,51.798C-32.559,51.165 -33.652,49.599 -32.258,42.926C-31.512,39.353 -29.843,36.134 -28.72,32.718C-27.899,30.219 -26.481,29.504 -23.985,29.567C-18.224,29.715 -12.457,29.614 -6.693,29.614C6.207,29.614 6.207,29.614 10.279,41.878C12.64,48.991 11.706,50.639 4.273,51.551C2.006,51.83 1.026,52.553 1.122,54.861C1.225,57.319 2.879,57.232 4.576,57.232C10.834,57.23 17.093,57.231 23.351,57.23C29.774,57.23 36.197,57.206 42.619,57.244C44.473,57.255 45.911,56.993 45.838,54.646C45.789,53.047 45.651,51.674 43.55,51.611" style="fill:rgb(4,72,179);fill-rule:nonzero;"/>
        </g>
        <g transform="matrix(1.14011,0,0,1.14011,497.29,252.805)">
            <path d="M0,-47.481C0.283,-48.47 0.283,-48.47 1.343,-48.47L4.381,-48.47L-11.234,0.989L-15.685,0.989L-25.86,-29.393L-30.17,-43.101L-34.48,-29.393L-44.654,0.989L-49.106,0.989L-63.166,-43.524C-64.084,-46.492 -65.639,-47.764 -67.052,-47.764L-67.052,-48.47L-63.873,-48.47C-61.823,-48.47 -60.411,-47.623 -59.775,-45.644L-50.165,-15.262L-46.633,-3.392L-42.959,-15.262L-31.866,-48.47L-28.474,-48.47L-17.381,-15.262L-13.707,-3.392L-10.174,-15.262L0,-47.481Z" style="fill:rgb(4,72,179);fill-rule:nonzero;"/>
        </g>
        <g transform="matrix(1.14011,0,0,1.14011,527.663,253.933)">
            <path d="M0,-49.459L36.6,-49.459L36.6,-46.138L7.066,-46.138L7.066,-26.143L32.855,-26.143L32.855,-22.822L7.066,-22.822L7.066,-3.321L36.6,-3.321L36.6,0L3.179,0L3.179,-44.513C3.179,-47.198 1.908,-48.752 0,-48.752L0,-49.459Z" style="fill:rgb(4,72,179);fill-rule:nonzero;"/>
        </g>
        <g transform="matrix(1.14011,0,0,1.14011,625.542,201.33)">
            <path d="M0,42.817C8.479,42.817 11.658,38.012 11.658,32.289C11.658,26.567 8.479,21.691 0,21.691L-17.805,21.691L-17.805,42.817L0,42.817ZM-17.805,0L-17.805,18.37L-1.767,18.37C6.712,18.37 9.892,14.555 9.892,9.185C9.892,3.815 6.712,0 -1.767,0L-17.805,0ZM-24.871,-3.321L-1.767,-3.321C8.408,-3.321 13.778,0.989 13.778,9.185C13.778,14.202 11.799,17.734 7.772,19.784C13.354,21.974 15.544,26.637 15.544,32.078L15.544,32.431C15.544,39.991 11.305,46.138 -0.636,46.138L-21.691,46.138L-21.691,1.625C-21.691,-1.06 -22.963,-2.614 -24.871,-2.614L-24.871,-3.321Z" style="fill:rgb(4,72,179);fill-rule:nonzero;"/>
        </g>
        <g transform="matrix(1.14011,0,0,1.14011,711.741,207.291)">
            <path d="M0,32.36C3.25,34.974 9.044,37.871 17.876,37.871C25.507,37.871 32.007,35.328 32.007,28.404C32.007,20.066 25.294,18.724 17.593,17.452C9.468,16.11 0.283,13.636 0.283,3.745C0.283,-4.734 8.055,-8.903 17.31,-8.903C23.952,-8.903 30.876,-6.854 34.974,-3.533L33.349,-0.707C29.746,-3.462 23.458,-5.582 17.31,-5.582C10.174,-5.582 4.169,-2.897 4.169,3.674C4.169,10.245 10.528,12.294 17.593,13.424C25.93,14.767 35.963,17.028 35.963,27.838C35.963,37.377 27.697,41.263 17.452,41.263C9.044,41.263 2.544,38.649 -1.625,35.257L0,32.36Z" style="fill:rgb(4,72,179);fill-rule:nonzero;"/>
        </g>
        <g transform="matrix(1.14011,0,0,1.14011,780.296,253.933)">
            <path d="M0,-49.459L36.6,-49.459L36.6,-46.138L7.066,-46.138L7.066,-26.143L32.855,-26.143L32.855,-22.822L7.066,-22.822L7.066,-3.321L36.6,-3.321L36.6,0L3.18,0L3.18,-44.513C3.18,-47.198 1.908,-48.752 0,-48.752L0,-49.459Z" style="fill:rgb(4,72,179);fill-rule:nonzero;"/>
        </g>
        <g transform="matrix(1.14011,0,0,1.14011,857.873,222.195)">
            <path d="M0,6.217L14.626,6.217C23.953,6.217 28.687,1.907 28.687,-6.219C28.687,-14.344 23.883,-18.3 14.626,-18.3L0,-18.3L0,6.217ZM30.595,27.838C29.535,27.838 29.535,27.838 28.898,26.99L17.241,11.022C16.534,10.032 15.827,9.538 13.425,9.538L0,9.538L0,27.838L-3.886,27.838L-3.886,-16.675C-3.886,-19.36 -5.157,-20.915 -7.066,-20.915L-7.066,-21.621L13.425,-21.621C27.556,-21.621 32.573,-16.11 32.573,-6.219C32.573,1.13 29.182,7.065 20.066,8.902C20.844,9.396 21.48,10.244 22.469,11.587L34.41,27.838L30.595,27.838Z" style="fill:rgb(4,72,179);fill-rule:nonzero;"/>
        </g>
        <g transform="matrix(1.14011,0,0,1.14011,968.319,252.805)">
            <path d="M0,-47.481C0.424,-48.47 0.424,-48.47 1.484,-48.47L4.027,-48.47L-17.311,0.989L-21.55,0.989L-40.769,-43.524C-42.041,-46.492 -43.241,-47.764 -44.655,-47.764L-44.655,-48.47L-41.475,-48.47C-39.426,-48.47 -38.296,-47.623 -37.448,-45.644L-24.306,-15.262L-19.078,-2.544L-13.919,-15.262L0,-47.481Z" style="fill:rgb(4,72,179);fill-rule:nonzero;"/>
        </g>
        <g transform="matrix(1.14011,0,0,1.14011,998.288,253.933)">
            <path d="M0,-49.459L3.18,-49.459C5.37,-49.459 6.995,-48.116 7.066,-46.138L7.066,0L3.18,0L3.18,-44.513C3.18,-47.198 1.908,-48.752 0,-48.752L0,-49.459Z" style="fill:rgb(4,72,179);fill-rule:nonzero;"/>
        </g>
        <g transform="matrix(1.14011,0,0,1.14011,1084.08,247.568)">
            <path d="M0,-38.295L-2.12,-35.822C-5.652,-39.143 -10.457,-40.909 -17.523,-40.909C-28.969,-40.909 -35.681,-36.246 -35.681,-25.224L-35.681,-13.071C-35.681,-2.049 -28.969,2.614 -17.523,2.614C-10.457,2.614 -5.652,0.848 -2.12,-2.473L0,0C-3.745,3.886 -9.679,5.935 -17.523,5.935C-30.947,5.935 -39.568,0.071 -39.568,-12.93L-39.568,-25.365C-39.568,-38.366 -30.947,-44.23 -17.523,-44.23C-9.679,-44.23 -3.745,-42.181 0,-38.295" style="fill:rgb(4,72,179);fill-rule:nonzero;"/>
        </g>
        <g transform="matrix(1.14011,0,0,1.14011,1111.47,253.933)">
            <path d="M0,-49.459L36.6,-49.459L36.6,-46.138L7.066,-46.138L7.066,-26.143L32.855,-26.143L32.855,-22.822L7.066,-22.822L7.066,-3.321L36.6,-3.321L36.6,0L3.18,0L3.18,-44.513C3.18,-47.198 1.908,-48.752 0,-48.752L0,-49.459Z" style="fill:rgb(4,72,179);fill-rule:nonzero;"/>
        </g>
        <g transform="matrix(1.14011,0,0,1.14011,1182.2,207.291)">
            <path d="M0,32.36C3.25,34.974 9.044,37.871 17.876,37.871C25.507,37.871 32.007,35.328 32.007,28.404C32.007,20.066 25.295,18.724 17.594,17.452C9.469,16.11 0.283,13.636 0.283,3.745C0.283,-4.734 8.055,-8.903 17.311,-8.903C23.953,-8.903 30.877,-6.854 34.975,-3.533L33.35,-0.707C29.747,-3.462 23.458,-5.582 17.311,-5.582C10.175,-5.582 4.169,-2.897 4.169,3.674C4.169,10.245 10.529,12.294 17.594,13.424C25.931,14.767 35.964,17.028 35.964,27.838C35.964,37.377 27.697,41.263 17.453,41.263C9.044,41.263 2.544,38.649 -1.625,35.257L0,32.36Z" style="fill:rgb(4,72,179);fill-rule:nonzero;"/>
        </g>
    </g>
</svg>
