<?xml version="1.0" encoding="UTF-8" standalone="no"?>
<!DOCTYPE svg PUBLIC "-//W3C//DTD SVG 1.1//EN" "http://www.w3.org/Graphics/SVG/1.1/DTD/svg11.dtd">
<svg width="100%" height="100%" viewBox="0 0 1234 319" version="1.1" xmlns="http://www.w3.org/2000/svg" xmlns:xlink="http://www.w3.org/1999/xlink" xml:space="preserve" xmlns:serif="http://www.serif.com/" style="fill-rule:evenodd;clip-rule:evenodd;stroke-linejoin:round;stroke-miterlimit:2;">
    <g transform="matrix(1.01364,0,0,1.01603,43.2816,-9.09085)">
        <g transform="matrix(0.951603,0,0,0.951603,549.442,121.494)">
            <path d="M0,13.903L-8.712,22.986L-8.712,39.39L-23.634,39.39L-23.634,-25.487L-8.712,-25.487L-8.712,4.82L20.019,-25.487L36.702,-25.487L9.824,3.429L38.277,39.39L20.761,39.39L0,13.903Z" style="fill:rgb(10,104,90);fill-rule:nonzero;"/>
        </g>
        <g transform="matrix(0.951603,0,0,0.951603,620.617,126.522)">
            <path d="M0,18.35L0,13.253L-9.917,13.253C-16.682,13.253 -18.814,15.755 -18.814,19.092C-18.814,22.707 -15.756,25.116 -10.658,25.116C-5.839,25.116 -1.668,22.892 0,18.35M14.459,5.654L14.459,34.106L0.927,34.106L0.927,27.897C-1.76,32.439 -6.951,34.848 -14.273,34.848C-25.95,34.848 -32.901,28.36 -32.901,19.741C-32.901,10.936 -26.692,4.819 -11.492,4.819L0,4.819C0,-1.391 -3.707,-5.006 -11.492,-5.006C-16.775,-5.006 -22.243,-3.244 -25.858,-0.371L-31.048,-10.474C-25.58,-14.367 -17.517,-16.498 -9.546,-16.498C5.654,-16.498 14.459,-9.454 14.459,5.654" style="fill:rgb(10,104,90);fill-rule:nonzero;"/>
        </g>
        <g transform="matrix(0.951603,0,0,0.951603,678.473,158.977)">
            <path d="M0,-50.604L0,-37.257C-1.205,-37.35 -2.132,-37.443 -3.244,-37.443C-11.215,-37.443 -16.497,-33.087 -16.497,-23.541L-16.497,0L-30.956,0L-30.956,-49.862L-17.146,-49.862L-17.146,-43.281C-13.624,-48.102 -7.693,-50.604 0,-50.604" style="fill:rgb(10,104,90);fill-rule:nonzero;"/>
        </g>
        <g transform="matrix(0.951603,0,0,0.951603,-328.983,-644.41)">
            <path d="M1069.63,794.384L1084.09,794.384L1084.09,844.246L1069.63,844.246L1069.63,794.384ZM1067.87,779.369C1067.87,774.827 1071.48,771.307 1076.86,771.307C1082.24,771.307 1085.85,774.642 1085.85,779.091C1085.85,783.91 1082.24,787.432 1076.86,787.432C1071.48,787.432 1067.87,783.91 1067.87,779.369" style="fill:rgb(10,104,90);fill-rule:nonzero;"/>
        </g>
        <g transform="matrix(0.951603,0,0,0.951603,529.157,229.978)">
            <path d="M0,8.896L0,-28.269L6.859,-28.269L6.859,8.618C6.859,24.003 14.088,31.048 26.692,31.048C39.39,31.048 46.619,24.003 46.619,8.618L46.619,-28.269L53.292,-28.269L53.292,8.896C53.292,27.525 43.282,37.165 26.692,37.165C10.102,37.165 0,27.525 0,8.896" style="fill:rgb(10,104,90);fill-rule:nonzero;"/>
        </g>
        <g transform="matrix(0.951603,0,0,0.951603,642.225,244.971)">
            <path d="M0,-7.414L0,20.853L-6.581,20.853L-6.581,-6.766C-6.581,-17.053 -11.956,-22.336 -21.224,-22.336C-31.697,-22.336 -38.278,-15.849 -38.278,-4.726L-38.278,20.853L-44.858,20.853L-44.858,-27.898L-38.555,-27.898L-38.555,-18.908C-35.034,-24.839 -28.453,-28.267 -20.02,-28.267C-8.156,-28.267 0,-21.41 0,-7.414" style="fill:rgb(10,104,90);fill-rule:nonzero;"/>
        </g>
        <g transform="matrix(0.951603,0,0,0.951603,-328.983,-428.768)">
            <path d="M1039.88,680.106L1046.46,680.106L1046.46,728.857L1039.88,728.857L1039.88,680.106ZM1038.4,664.722C1038.4,662.219 1040.53,660.087 1043.21,660.087C1045.9,660.087 1048.03,662.126 1048.03,664.629C1048.03,667.317 1046,669.448 1043.21,669.448C1040.53,669.448 1038.4,667.317 1038.4,664.722" style="fill:rgb(10,104,90);fill-rule:nonzero;"/>
        </g>
        <g transform="matrix(0.951603,0,0,0.951603,724.599,264.815)">
            <path d="M0,-48.751L-21.687,0L-28.453,0L-50.048,-48.751L-43.19,-48.751L-24.931,-7.23L-6.487,-48.751L0,-48.751Z" style="fill:rgb(10,104,90);fill-rule:nonzero;"/>
        </g>
        <g transform="matrix(0.951603,0,0,0.951603,735.007,244.442)">
            <path d="M0,-5.84L34.57,-5.84C33.736,-15.387 26.785,-22.059 17.239,-22.059C7.785,-22.059 0.834,-15.387 0,-5.84M40.78,-0.927L0,-0.927C0.741,9.267 8.526,16.033 19.185,16.033C25.117,16.033 30.399,13.902 34.107,9.638L37.814,13.902C33.458,19.092 26.692,21.872 19,21.872C3.8,21.872 -6.581,11.491 -6.581,-2.967C-6.581,-17.425 3.521,-27.712 17.239,-27.712C30.956,-27.712 40.872,-17.611 40.872,-2.967C40.872,-2.411 40.78,-1.669 40.78,-0.927" style="fill:rgb(10,104,90);fill-rule:nonzero;"/>
        </g>
        <g transform="matrix(0.951603,0,0,0.951603,811.383,264.815)">
            <path d="M0,-49.121L0,-42.727C-0.556,-42.727 -1.112,-42.82 -1.576,-42.82C-11.771,-42.82 -17.98,-36.332 -17.98,-24.84L-17.98,0L-24.56,0L-24.56,-48.751L-18.258,-48.751L-18.258,-39.205C-15.199,-45.693 -8.99,-49.121 0,-49.121" style="fill:rgb(10,104,90);fill-rule:nonzero;"/>
        </g>
        <g transform="matrix(0.951603,0,0,0.951603,817.91,223.804)">
            <path d="M0,37.536L2.966,32.346C6.859,35.405 13.439,37.814 20.298,37.814C29.565,37.814 33.366,34.663 33.366,29.843C33.366,17.146 1.761,27.155 1.761,7.878C1.761,-0.092 8.62,-6.024 21.039,-6.024C27.341,-6.024 34.199,-4.263 38.278,-1.483L35.404,3.799C31.141,0.834 26.044,-0.37 21.039,-0.37C12.234,-0.37 8.342,3.059 8.342,7.692C8.342,20.854 39.946,10.936 39.946,29.659C39.946,38.092 32.531,43.56 19.834,43.56C11.771,43.56 3.986,40.965 0,37.536" style="fill:rgb(10,104,90);fill-rule:nonzero;"/>
        </g>
        <g transform="matrix(0.951603,0,0,0.951603,-328.983,-428.768)">
            <path d="M1258.7,680.106L1265.28,680.106L1265.28,728.857L1258.7,728.857L1258.7,680.106ZM1257.22,664.722C1257.22,662.219 1259.35,660.087 1262.04,660.087C1264.72,660.087 1266.86,662.126 1266.86,664.629C1266.86,667.317 1264.82,669.448 1262.04,669.448C1259.35,669.448 1257.22,667.317 1257.22,664.722" style="fill:rgb(10,104,90);fill-rule:nonzero;"/>
        </g>
        <g transform="matrix(0.951603,0,0,0.951603,918.277,211.544)">
            <path d="M0,53.014C-2.595,55.331 -6.488,56.443 -10.287,56.443C-19.463,56.443 -24.56,51.254 -24.56,42.263L-24.56,12.791L-33.273,12.791L-33.273,7.229L-24.56,7.229L-24.56,-3.429L-17.98,-3.429L-17.98,7.229L-3.151,7.229L-3.151,12.791L-17.98,12.791L-17.98,41.893C-17.98,47.639 -15.015,50.79 -9.547,50.79C-6.857,50.79 -4.17,49.955 -2.317,48.288L0,53.014Z" style="fill:rgb(10,104,90);fill-rule:nonzero;"/>
        </g>
        <g transform="matrix(0.951603,0,0,0.951603,969.078,282.366)">
            <path d="M0,-67.195L-24.375,-12.605C-28.453,-3.059 -33.644,0 -40.594,0C-45.136,0 -49.491,-1.484 -52.457,-4.449L-49.399,-9.361C-46.989,-6.952 -44.023,-5.653 -40.501,-5.653C-36.146,-5.653 -33.18,-7.693 -30.4,-13.81L-28.267,-18.537L-50.048,-67.195L-43.189,-67.195L-24.839,-25.766L-6.488,-67.195L0,-67.195Z" style="fill:rgb(10,104,90);fill-rule:nonzero;"/>
        </g>
        <g transform="matrix(0,-0.951603,-0.951603,0,318.851,15.2843)">
            <path d="M-158.308,-158.308C-245.739,-158.308 -316.616,-87.431 -316.616,0C-316.616,87.431 -245.739,158.308 -158.308,158.308C-70.877,158.308 0,87.431 0,0C0,-87.431 -70.877,-158.308 -158.308,-158.308" style="fill:white;fill-rule:nonzero;"/>
        </g>
        <g transform="matrix(0.951603,0,0,0.951603,362.77,321.869)">
            <path d="M0,-6.591C-14.64,-2.296 -30.127,0 -46.153,0C-62.18,0 -77.666,-2.296 -92.307,-6.591L0,-6.591Z" style="fill:rgb(10,104,90);fill-rule:nonzero;"/>
        </g>
        <g transform="matrix(0.951603,0,0,0.951603,384.01,313.018)">
            <path d="M0,-117.184L0,-5.654L-13.92,0L-123.027,0C-129.609,-2.323 -135.993,-5.051 -142.151,-8.158L-142.151,-117.184L0,-117.184Z" style="fill:rgb(10,104,90);fill-rule:nonzero;"/>
        </g>
        <g transform="matrix(-0.951603,0,0,0.951603,251.199,199.008)">
            <path d="M-136.98,-7.345L-0.108,-7.345L2.208,0L-139.188,0L-136.98,-7.345Z" style="fill:rgb(10,104,90);fill-rule:nonzero;"/>
        </g>
        <g transform="matrix(0.951603,0,0,0.951603,372.975,152.876)">
            <path d="M0,7.345L-2.063,0L-116.895,0L-118.958,7.345L0,7.345Z" style="fill:rgb(10,104,90);fill-rule:nonzero;"/>
        </g>
        <g transform="matrix(0.951603,0,0,0.951603,369.737,148.805)">
            <path d="M0,-3.413L-4.017,-3.413L-4.017,-5.876L-108.137,-5.876L-108.137,-3.413L-112.154,-3.413L-112.154,2.463L0,2.463L0,-3.413Z" style="fill:rgb(10,104,90);fill-rule:nonzero;"/>
        </g>
        <g transform="matrix(0.951603,0,0,0.951603,333.577,83.3074)">
            <path d="M0,1.599L-0.905,1.599L-0.905,-2.808L-35.286,-2.808L-35.286,1.599L-36.19,1.599L-36.19,4.407L0,4.407L0,1.599Z" style="fill:rgb(10,104,90);fill-rule:nonzero;"/>
        </g>
        <g transform="matrix(0.951603,0,0,0.951603,328.721,69.9868)">
            <path d="M0,7.258L-1.158,7.258L-1.158,2.851L-0.543,2.851L-0.543,0.518L-1.701,0.518L-1.701,-2.42L-24.284,-2.42L-24.284,0.518L-25.442,0.518L-25.442,2.851L-24.826,2.851L-24.826,7.258L-25.948,7.258L-25.948,9.678L0,9.678L0,7.258Z" style="fill:rgb(10,104,90);fill-rule:nonzero;"/>
        </g>
        <g transform="matrix(-0.951603,0,0,0.951603,961.733,-791.75)">
            <rect x="667.594" y="884.201" width="21.171" height="1.984" style="fill:rgb(10,104,90);"/>
        </g>
        <g transform="matrix(-0.951603,0,0,0.951603,956.255,-773.816)">
            <rect x="674.071" y="868.331" width="2.461" height="14.878" style="fill:rgb(10,104,90);"/>
        </g>
        <g transform="matrix(-0.951603,0,0,0.951603,966.106,-773.816)">
            <rect x="679.247" y="868.331" width="2.461" height="14.878" style="fill:rgb(10,104,90);"/>
        </g>
        <g transform="matrix(-0.951603,0,0,0.951603,976.024,-773.816)">
            <rect x="684.458" y="868.331" width="2.461" height="14.878" style="fill:rgb(10,104,90);"/>
        </g>
        <g transform="matrix(-0.951603,0,0,0.951603,947.44,-773.816)">
            <rect x="669.439" y="868.331" width="2.461" height="14.878" style="fill:rgb(10,104,90);"/>
        </g>
        <g transform="matrix(0.951603,0,0,0.951603,325.225,38.3334)">
            <path d="M0,10.91C-0.072,10.316 -2.425,0 -2.425,0L-16.141,0C-16.141,0 -18.493,10.316 -18.602,10.91L0,10.91Z" style="fill:rgb(10,104,90);fill-rule:nonzero;"/>
        </g>
        <g transform="matrix(0.951603,0,0,0.951603,369.959,166.034)">
            <path d="M0,20.528L-2.98,20.528L-2.98,5.456C-2.98,3.925 -2.305,2.683 -1.486,2.683C-1.08,2.683 -0.702,2.998 -0.441,3.493C-0.171,3.997 0,4.69 0,5.456L0,20.528ZM-3.971,20.528L-6.942,20.528L-6.942,5.456C-6.942,3.925 -6.267,2.683 -5.456,2.683C-5.051,2.683 -4.673,2.998 -4.403,3.493C-4.142,3.997 -3.971,4.69 -3.971,5.456L-3.971,20.528ZM-9.922,20.528L-13.884,20.528L-13.884,5.456C-13.884,3.925 -12.992,2.683 -11.903,2.683C-11.363,2.683 -10.859,2.998 -10.507,3.493C-10.147,3.997 -9.922,4.69 -9.922,5.456L-9.922,20.528ZM-17.854,20.528L-21.825,20.528L-21.825,5.456C-21.825,3.925 -20.934,2.683 -19.835,2.683C-19.295,2.683 -18.8,2.998 -18.44,3.493C-18.08,3.997 -17.854,4.69 -17.854,5.456L-17.854,20.528ZM-24.796,20.528L-29.757,20.528L-29.757,5.456C-29.757,3.925 -28.641,2.683 -27.281,2.683C-26.597,2.683 -25.976,2.998 -25.526,3.493C-25.084,3.997 -24.796,4.69 -24.796,5.456L-24.796,20.528ZM-34.718,20.528L-39.68,20.528L-39.68,5.456C-39.68,3.925 -38.554,2.683 -37.195,2.683C-36.51,2.683 -35.898,2.998 -35.439,3.493C-35.007,3.997 -34.718,4.69 -34.718,5.456L-34.718,20.528ZM-44.632,20.528L-49.593,20.528L-49.593,5.456C-49.593,3.925 -48.476,2.683 -47.117,2.683C-46.432,2.683 -45.811,2.998 -45.361,3.493C-44.92,3.997 -44.632,4.69 -44.632,5.456L-44.632,20.528ZM-54.554,20.528L-59.515,20.528L-59.515,5.456C-59.515,3.925 -58.389,2.683 -57.03,2.683C-56.346,2.683 -55.733,2.998 -55.274,3.493C-54.842,3.997 -54.554,4.69 -54.554,5.456L-54.554,20.528ZM-64.476,20.528L-69.428,20.528L-69.428,5.456C-69.428,3.925 -68.311,2.683 -66.952,2.683C-66.268,2.683 -65.655,2.998 -65.196,3.493C-64.764,3.997 -64.476,4.69 -64.476,5.456L-64.476,20.528ZM-74.389,20.528L-79.35,20.528L-79.35,5.456C-79.35,3.925 -78.225,2.683 -76.874,2.683C-76.19,2.683 -75.569,2.998 -75.118,3.493C-74.677,3.997 -74.389,4.69 -74.389,5.456L-74.389,20.528ZM-83.321,20.528L-88.273,20.528L-88.273,5.456C-88.273,3.925 -87.156,2.683 -85.797,2.683C-85.112,2.683 -84.5,2.998 -84.041,3.493C-83.609,3.997 -83.321,4.69 -83.321,5.456L-83.321,20.528ZM-91.253,20.528L-96.214,20.528L-96.214,5.456C-96.214,3.925 -95.089,2.683 -93.729,2.683C-93.045,2.683 -92.433,2.998 -91.973,3.493C-91.541,3.997 -91.253,4.69 -91.253,5.456L-91.253,20.528ZM-99.185,20.528L-103.156,20.528L-103.156,5.456C-103.156,3.925 -102.265,2.683 -101.166,2.683C-100.626,2.683 -100.131,2.998 -99.771,3.493C-99.41,3.997 -99.185,4.69 -99.185,5.456L-99.185,20.528ZM-105.137,20.528L-108.117,20.528L-108.117,5.456C-108.117,3.925 -107.442,2.683 -106.622,2.683C-106.217,2.683 -105.839,2.998 -105.578,3.493C-105.308,3.997 -105.137,4.69 -105.137,5.456L-105.137,20.528ZM-110.098,20.528L-113.069,20.528L-113.069,5.456C-113.069,3.925 -112.394,2.683 -111.584,2.683C-111.178,2.683 -110.8,2.998 -110.53,3.493C-110.269,3.997 -110.098,4.69 -110.098,5.456L-110.098,20.528ZM-116.148,25.147L3.53,25.147L3.53,-4.619L-116.148,-4.619L-116.148,25.147Z" style="fill:rgb(10,104,90);fill-rule:nonzero;"/>
        </g>
        <g transform="matrix(0.951603,0,0,0.951603,323.709,93.2829)">
            <path d="M0,46.396C-1.089,46.396 -1.981,45.505 -1.981,44.415L-1.981,38.464C-1.981,37.374 -1.089,36.483 0,36.483C0.549,36.483 1.044,36.699 1.396,37.068C1.765,37.419 1.981,37.923 1.981,38.464L1.981,44.415C1.981,45.505 1.089,46.396 0,46.396M-0.27,7.923C-1.251,2.566 -2.368,-1.666 -3.602,-4.691L-5.627,-4.691C-4.214,5.123 -3.277,26.849 -3.205,51.087L3.205,51.087C3.052,34.664 1.828,19.331 -0.27,7.923" style="fill:rgb(10,104,90);fill-rule:nonzero;"/>
        </g>
        <g transform="matrix(0.951603,0,0,0.951603,331.608,93.2915)">
            <path d="M0,46.378C-1.089,46.459 -2.044,45.64 -2.125,44.541L-2.566,38.617C-2.647,37.527 -1.828,36.564 -0.738,36.483C-0.684,36.483 -0.63,36.474 -0.585,36.474C0.432,36.474 1.306,37.275 1.387,38.32L1.837,44.244C1.918,45.343 1.089,46.297 0,46.378M-2.71,8.004C-4.412,2.602 -6.402,-1.675 -8.572,-4.7L-10.895,-4.7C-6.942,5.447 -4.376,26.66 -4.16,51.078L3.331,51.078C3.088,34.655 0.945,19.412 -2.71,8.004" style="fill:rgb(10,104,90);fill-rule:nonzero;"/>
        </g>
        <g transform="matrix(0.951603,0,0,0.951603,339.157,93.2915)">
            <path d="M0,46.378C-1.089,46.459 -2.044,45.64 -2.116,44.541L-2.566,38.617C-2.647,37.527 -1.819,36.564 -0.729,36.483C-0.684,36.483 -0.63,36.474 -0.585,36.474C0.441,36.474 1.314,37.275 1.396,38.32L1.837,44.244C1.918,45.343 1.089,46.297 0,46.378M-4.925,8.049C-7.383,2.602 -10.201,-1.675 -13.317,-4.7L-15.27,-4.7C-8.464,5.501 -4.016,26.714 -3.62,51.078L3.583,51.078C3.214,34.709 0.225,19.448 -4.925,8.049" style="fill:rgb(10,104,90);fill-rule:nonzero;"/>
        </g>
        <g transform="matrix(0.951603,0,0,0.951603,345.763,93.2915)">
            <path d="M0,46.378C-1.089,46.459 -2.044,45.64 -2.116,44.541L-2.566,38.617C-2.647,37.527 -1.819,36.564 -0.729,36.483C-0.684,36.483 -0.63,36.474 -0.585,36.474C0.441,36.474 1.315,37.275 1.396,38.32L1.837,44.244C1.918,45.343 1.099,46.297 0,46.378M-7.302,8.085C-10.345,2.638 -13.857,-1.675 -17.692,-4.7L-18.782,-4.7C-9.22,5.537 -2.998,26.714 -2.458,51.078L3.187,51.078C2.764,34.709 -0.972,19.493 -7.302,8.085" style="fill:rgb(10,104,90);fill-rule:nonzero;"/>
        </g>
        <g transform="matrix(0.951603,0,0,0.951603,357.955,93.3771)">
            <path d="M0,46.243C-0.81,46.369 -1.585,45.811 -1.711,45L-2.791,38.149C-2.917,37.338 -2.359,36.573 -1.549,36.438C-1.468,36.429 -1.396,36.42 -1.324,36.42C-0.603,36.42 0.036,36.951 0.153,37.68L1.234,44.532C1.369,45.352 0.801,46.108 0,46.243M-25.652,-4.79L-26.264,-4.79C-22.185,-1.765 -18.449,2.341 -15.198,7.347C-7.635,18.926 -3.214,34.394 -2.674,51.033L2.719,51.033C1.81,26.489 -9.301,4.673 -25.652,-4.79" style="fill:rgb(10,104,90);fill-rule:nonzero;"/>
        </g>
        <g transform="matrix(0.951603,0,0,0.951603,362.796,95.2794)">
            <path d="M0,44.235C-0.387,44.298 -0.756,44.037 -0.819,43.65L-2.143,35.249C-2.206,34.862 -1.936,34.493 -1.549,34.43C-1.513,34.421 -1.468,34.421 -1.441,34.421C-1.098,34.421 -0.783,34.673 -0.738,35.015L0.594,43.416C0.648,43.803 0.387,44.172 0,44.235M-25.751,-4.754C-22.158,-2.035 -18.872,1.332 -15.901,5.267C-9.571,13.694 -5.123,24.148 -2.908,35.645L-1.855,42.686C-1.648,44.757 -1.504,46.873 -1.396,48.989L1.576,48.989C0.63,26.128 -9.931,5.573 -25.751,-4.754" style="fill:rgb(10,104,90);fill-rule:nonzero;"/>
        </g>
        <g transform="matrix(0.951603,0,0,0.951603,318.336,95.2966)">
            <path d="M0,42.164C-0.027,43.362 -1.017,44.316 -2.206,44.28C-3.412,44.262 -4.367,43.262 -4.331,42.074L-4.214,36.492C-4.187,35.294 -3.196,34.349 -1.99,34.376C-0.819,34.394 0.117,35.366 0.117,36.537L0.117,36.591L0,42.164ZM-0.882,-6.807L-3.241,-6.807C-4.367,1.224 -5.555,19.979 -5.663,48.971L1.54,48.971C1.432,19.934 0.243,1.224 -0.882,-6.807" style="fill:rgb(10,104,90);fill-rule:nonzero;"/>
        </g>
        <g transform="matrix(0.951603,0,0,0.951603,311.576,100.497)">
            <path d="M0,31.234L-0.306,36.753C-0.369,37.978 -1.423,38.914 -2.638,38.851C-3.854,38.779 -4.79,37.726 -4.727,36.51L-4.421,30.991C-4.349,29.775 -3.295,28.83 -2.08,28.902C-0.909,28.965 0,29.955 0,31.099L0,31.234ZM0.9,-12.272C-0.333,-9.247 -1.459,-5.015 -2.44,0.342C-4.529,11.75 -5.762,27.083 -5.906,43.506L0.504,43.506C0.567,19.223 1.513,-2.512 2.917,-12.272L0.9,-12.272Z" style="fill:rgb(10,104,90);fill-rule:nonzero;"/>
        </g>
        <g transform="matrix(0.951603,0,0,0.951603,304.096,100.437)">
            <path d="M0,31.36L-0.459,36.879C-0.558,38.095 -1.639,39.013 -2.863,38.914C-4.088,38.815 -4.997,37.717 -4.898,36.501L-4.439,31C-4.34,29.775 -3.25,28.857 -2.035,28.965C-0.873,29.064 0.009,30.036 0.009,31.189C0.009,31.243 0,31.306 0,31.36M5.42,-12.209C3.259,-9.184 1.27,-4.907 -0.468,0.495C-4.124,11.903 -6.258,27.2 -6.519,43.569L0.981,43.569C1.197,19.151 3.764,-2.062 7.707,-12.209L5.42,-12.209Z" style="fill:rgb(10,104,90);fill-rule:nonzero;"/>
        </g>
        <g transform="matrix(0.951603,0,0,0.951603,296.548,100.48)">
            <path d="M0,31.315L-0.459,36.834C-0.558,38.05 -1.639,38.968 -2.872,38.869C-4.088,38.77 -5.006,37.672 -4.907,36.456L-4.439,30.955C-4.34,29.73 -3.259,28.812 -2.035,28.92C-0.873,29.019 0.009,29.991 0.009,31.144C0.009,31.198 0,31.261 0,31.315M10.174,-12.218L10.174,-12.254C7.068,-9.229 4.277,-4.952 1.819,0.531C-3.322,11.894 -6.321,27.191 -6.69,43.569L0.513,43.569C0.882,19.196 5.321,-2.017 12.164,-12.218L10.174,-12.218Z" style="fill:rgb(10,104,90);fill-rule:nonzero;"/>
        </g>
        <g transform="matrix(0.951603,0,0,0.951603,289.222,100.899)">
            <path d="M0,30.433L-0.963,37.033C-1.107,37.96 -1.963,38.599 -2.899,38.473C-3.818,38.338 -4.475,37.474 -4.34,36.538L-3.376,29.938C-3.232,29.01 -2.377,28.371 -1.441,28.497C-0.594,28.623 0.018,29.362 0.018,30.19C0.018,30.271 0.009,30.352 0,30.433M15.306,-12.695C11.471,-9.67 7.959,-5.357 4.916,0.144C-1.414,11.498 -5.141,26.751 -5.573,43.128L0.063,43.128C0.612,18.719 6.843,-2.458 16.396,-12.695L15.306,-12.695Z" style="fill:rgb(10,104,90);fill-rule:nonzero;"/>
        </g>
        <g transform="matrix(0.951603,0,0,0.951603,283.182,101.122)">
            <path d="M0,29.92L-1.026,36.952C-1.143,37.762 -1.909,38.33 -2.71,38.212C-3.52,38.095 -4.088,37.33 -3.971,36.529L-2.944,29.497C-2.827,28.677 -2.062,28.11 -1.261,28.236C-0.522,28.344 0.018,28.975 0.018,29.704C0.018,29.767 0.009,29.848 0,29.92M19.34,-12.929C14.775,-9.904 10.687,-5.591 7.113,-0.089C-0.306,11.264 -4.691,26.517 -5.195,42.849L-0.135,42.849C-0.018,39.041 0.261,35.286 0.702,31.613L0.774,30.712C2.332,18.782 5.663,7.888 10.471,-0.792C13.262,-5.798 16.441,-9.904 19.952,-12.929L19.34,-12.929Z" style="fill:rgb(10,104,90);fill-rule:nonzero;"/>
        </g>
        <g transform="matrix(0.951603,0,0,0.951603,277.519,101.122)">
            <path d="M0,29.92L-1.026,36.952C-1.143,37.762 -1.909,38.33 -2.71,38.212C-3.521,38.095 -4.088,37.33 -3.971,36.529L-2.944,29.497C-2.827,28.677 -2.062,28.11 -1.261,28.236C-0.513,28.344 0.018,28.975 0.018,29.704C0.018,29.767 0.009,29.848 0,29.92M22.788,-12.929C6.438,-3.466 -4.673,18.35 -5.582,42.849L-0.189,42.849C0.351,26.255 4.772,10.751 12.335,-0.828C15.585,-5.843 19.322,-9.904 23.41,-12.929L22.788,-12.929Z" style="fill:rgb(10,104,90);fill-rule:nonzero;"/>
        </g>
        <g transform="matrix(0.951603,0,0,0.951603,272.215,103.547)">
            <path d="M0,26.858L-1.17,34.862C-1.242,35.367 -1.72,35.709 -2.224,35.646C-2.719,35.574 -3.079,35.096 -2.998,34.592L-1.837,26.588C-1.756,26.093 -1.297,25.733 -0.783,25.805C-0.333,25.877 0.009,26.273 0.009,26.723C0.009,26.768 0.009,26.813 0,26.858M-3.917,40.301L-0.945,40.301C-0.873,38.185 -0.738,36.069 -0.477,33.998L0.531,26.957C2.746,15.459 7.158,5.006 13.524,-3.422C16.495,-7.356 19.826,-10.724 23.374,-13.443C7.554,-3.115 -3.007,17.44 -3.917,40.301" style="fill:rgb(10,104,90);fill-rule:nonzero;"/>
        </g>
        <g transform="matrix(0.951603,0,0,0.951603,352.291,93.3343)">
            <path d="M0,46.288C-0.81,46.414 -1.585,45.856 -1.711,45.045L-2.791,38.194C-2.917,37.383 -2.35,36.618 -1.549,36.483C-1.468,36.474 -1.396,36.465 -1.324,36.465C-0.603,36.465 0.036,36.996 0.153,37.725L1.234,44.577C1.369,45.397 0.801,46.153 0,46.288M-10.003,8.094C-13.551,2.593 -17.674,-1.72 -22.203,-4.745L-22.852,-4.745C-19.349,-1.72 -16.162,2.386 -13.371,7.392C-8.554,16.071 -5.195,26.966 -3.674,38.896L-3.593,39.796C-3.169,43.47 -2.872,47.188 -2.764,51.033L2.296,51.033C1.765,34.7 -2.584,19.448 -10.003,8.094" style="fill:rgb(10,104,90);fill-rule:nonzero;"/>
        </g>
        <g transform="matrix(0.951603,0,0,0.951603,384.01,34.6517)">
            <path d="M0,275.911C-20.628,286.166 -43.875,291.938 -68.474,291.938C-95.161,291.938 -120.263,285.149 -142.151,273.201C-189.997,247.081 -222.456,196.309 -222.456,137.956C-222.456,52.915 -153.514,-16.027 -68.474,-16.027C16.567,-16.027 85.509,52.915 85.509,137.956C85.509,198.398 50.682,250.701 0,275.911M-68.474,-25.913C-158.979,-25.913 -232.342,47.45 -232.342,137.956C-232.342,201.963 -195.652,257.39 -142.151,284.366C-135.993,287.472 -129.609,290.2 -123.027,292.523C-120.263,293.504 -117.463,294.405 -114.627,295.233C-99.987,299.528 -84.5,301.824 -68.474,301.824C-52.447,301.824 -36.96,299.528 -22.32,295.233C-19.484,294.405 -16.684,293.504 -13.92,292.523C-9.175,290.848 -4.529,288.966 0,286.869C56.31,260.947 95.395,204.016 95.395,137.956C95.395,47.45 22.032,-25.913 -68.474,-25.913" style="fill:rgb(10,104,90);fill-rule:nonzero;"/>
        </g>
        <g transform="matrix(0,-0.951603,-0.951603,0,318.85,214.771)">
            <path d="M-35.783,-35.783C-55.545,-35.783 -71.566,-19.762 -71.566,0C-71.566,19.762 -55.545,35.783 -35.783,35.783C-16.021,35.783 0,19.762 0,0C0,-19.762 -16.021,-35.783 -35.783,-35.783" style="fill:white;fill-rule:nonzero;"/>
        </g>
        <g transform="matrix(0.951603,0,0,0.951603,318.851,220.056)">
            <path d="M0,60.46C-16.657,60.46 -30.226,46.891 -30.226,30.234C-30.226,13.568 -16.657,-0 0,-0C16.657,-0 30.226,13.568 30.226,30.234C30.226,46.891 16.657,60.46 0,60.46M0,-1.414C-17.431,-1.414 -31.639,12.794 -31.639,30.234C-31.639,47.666 -17.431,61.874 0,61.874C17.431,61.874 31.639,47.666 31.639,30.234C31.639,12.794 17.431,-1.414 0,-1.414" style="fill:rgb(10,104,90);fill-rule:nonzero;"/>
        </g>
        <g transform="matrix(0.951603,0,0,0.951603,318.851,217.688)">
            <path d="M0,65.436C-18.028,65.436 -32.713,50.751 -32.713,32.723C-32.713,14.685 -18.028,0 0,0C18.028,0 32.713,14.685 32.713,32.723C32.713,50.751 18.028,65.436 0,65.436M0,-1.53C-18.866,-1.53 -34.243,13.847 -34.243,32.723C-34.243,51.589 -18.866,66.966 0,66.966C18.866,66.966 34.243,51.589 34.243,32.723C34.243,13.847 18.866,-1.53 0,-1.53" style="fill:rgb(229,166,26);fill-rule:nonzero;"/>
        </g>
        <g transform="matrix(0.951603,0,0,0.951603,333.625,241.852)">
            <path d="M0,-1.34L-0.332,-1.803L-15.716,8.428C-15.943,8.233 -16.194,8.066 -16.475,7.951L-17.269,-14.748L-17.839,-14.748L-18.632,7.951C-19.663,8.375 -20.39,9.388 -20.39,10.572C-20.39,12.138 -19.12,13.408 -17.554,13.408C-15.987,13.408 -14.718,12.138 -14.718,10.572C-14.718,10.392 -14.739,10.217 -14.77,10.047L0,-1.34Z" style="fill:rgb(10,104,90);fill-rule:nonzero;"/>
        </g>
        <g transform="matrix(0.951603,0,0,0.951603,306.83,298.367)">
            <path d="M0,-1.234L5.654,-7.149L4.07,-7.149L-3.602,0.747L-3.602,-7.149L-4.979,-7.149L-4.979,5.915L-3.602,5.915L-3.602,2.485L-0.936,-0.226L4.403,5.915L6.042,5.915L0,-1.234Z" style="fill:white;fill-rule:nonzero;"/>
        </g>
        <g transform="matrix(0.951603,0,0,0.951603,320.787,297.475)">
            <path d="M0,3.908C-0.522,5.195 -1.621,5.898 -3.115,5.898C-4.682,5.898 -5.6,5.195 -5.6,4.052C-5.6,3.044 -4.979,2.296 -3.079,2.296L0,2.296L0,3.908ZM-2.647,-3.034C-4.196,-3.034 -5.654,-2.557 -6.645,-1.71L-6.05,-0.72C-5.24,-1.431 -4.052,-1.881 -2.782,-1.881C-0.954,-1.881 0,-0.963 0,0.712L0,1.306L-3.115,1.306C-5.933,1.306 -6.906,2.575 -6.906,4.088C-6.906,5.79 -5.546,6.942 -3.322,6.942C-1.702,6.942 -0.54,6.33 0.054,5.322L0.054,6.852L1.324,6.852L1.324,0.766C1.324,-1.764 -0.117,-3.034 -2.647,-3.034" style="fill:white;fill-rule:nonzero;"/>
        </g>
        <g transform="matrix(0.951603,0,0,0.951603,327.479,302.101)">
            <path d="M0,-5.906L0,-7.824L-1.269,-7.824L-1.269,1.99L0.054,1.99L0.054,-3.007C0.054,-5.321 1.306,-6.626 3.358,-6.626C3.457,-6.626 3.565,-6.608 3.674,-6.608L3.674,-7.896C1.864,-7.896 0.621,-7.212 0,-5.906" style="fill:white;fill-rule:nonzero;"/>
        </g>
        <g transform="matrix(0.951603,0,0,0.951603,-328.983,-298.142)">
            <path d="M696.754,632.761L698.078,632.761L698.078,622.947L696.754,622.947L696.754,632.761ZM697.429,618.914C696.889,618.914 696.457,619.346 696.457,619.85C696.457,620.372 696.889,620.804 697.429,620.804C697.987,620.804 698.393,620.372 698.393,619.832C698.393,619.328 697.969,618.914 697.429,618.914" style="fill:white;fill-rule:nonzero;"/>
        </g>
    </g>
</svg>
