<?xml version="1.0" encoding="UTF-8" standalone="no"?>
<!DOCTYPE svg PUBLIC "-//W3C//DTD SVG 1.1//EN" "http://www.w3.org/Graphics/SVG/1.1/DTD/svg11.dtd">
<svg width="100%" height="100%" viewBox="0 0 1234 319" version="1.1" xmlns="http://www.w3.org/2000/svg" xmlns:xlink="http://www.w3.org/1999/xlink" xml:space="preserve" xmlns:serif="http://www.serif.com/" style="fill-rule:evenodd;clip-rule:evenodd;stroke-linejoin:round;stroke-miterlimit:2;">
    <g transform="matrix(9.76998,0,0,9.76998,-208.128,-530.273)">
        <g id="Layer-1" serif:id="Layer 1">
            <g>
                <g id="Icon" transform="matrix(0.0481423,0,0,0.0481423,4.01721,55.6931)">
                    <g id="Shape">
                        <g id="Midnight-Blue" serif:id="Midnight Blue" transform="matrix(0.948161,0,0,1.00873,54.0411,-35.8886)">
                            <path d="M362.328,213.679C373.616,182.281 404.82,159.835 441.398,159.023C439.939,163.203 438.614,167.493 437.428,171.887C434.787,181.669 432.836,191.965 431.64,202.707C427.527,206.642 424.99,212.037 424.99,217.985C424.99,230.022 435.387,239.794 448.193,239.794C460.999,239.794 471.395,230.022 471.395,217.985C471.395,211.243 468.135,205.21 463.014,201.209C465.063,190.721 467.713,180.932 470.925,171.887C472.516,167.407 474.245,163.109 476.107,159L647.484,159C649.286,163.1 650.952,167.397 652.475,171.887C655.537,180.916 658.025,190.727 659.896,201.299C655.521,205.266 652.799,210.833 652.799,216.994C652.799,229.031 663.196,238.803 676.002,238.803C688.808,238.803 699.205,229.031 699.205,216.994C699.205,210.161 695.856,204.057 690.616,200.057C689.7,191.293 688.275,182.86 686.377,174.789C685.101,169.359 683.611,164.094 681.918,159L692.111,159C736.687,159 773.807,191.144 777.454,232.903L803.295,528.775C805.268,551.374 797.009,573.707 780.549,590.282C764.088,606.858 740.952,616.139 716.831,615.842L419.037,612.18C395.412,611.89 372.964,602.436 357.006,586.058C341.049,569.679 333.001,547.83 334.766,525.684L358.063,233.474C358.612,226.586 360.072,219.954 362.328,213.679ZM466.489,171.887C463.166,181.456 460.454,191.822 458.4,202.94C463.676,206.111 467.177,211.667 467.177,217.985C467.177,227.833 458.67,235.829 448.193,235.829C437.715,235.829 429.208,227.833 429.208,217.985C429.208,212.641 431.713,207.842 435.679,204.57C436.874,193.143 438.935,182.219 441.782,171.887C442.997,167.481 444.355,163.183 445.849,159L471.544,159C469.728,163.118 468.042,167.416 466.489,171.887ZM677.487,159C679.107,163.755 680.546,168.666 681.793,173.725C684.019,182.756 685.637,192.258 686.593,202.186C691.654,205.392 694.986,210.83 694.986,216.994C694.986,226.842 686.48,234.838 676.002,234.838C665.524,234.838 657.018,226.842 657.018,216.994C657.018,211.235 659.926,206.11 664.436,202.846C662.572,191.712 660.043,181.385 656.899,171.887C655.415,167.406 653.794,163.11 652.042,159L677.487,159Z" style="fill:rgb(19,17,34);"/>
                        </g>
                        <g id="Orange" transform="matrix(0.896406,0,0,0.980349,67.0148,-18.3755)">
                            <path d="M719.983,615.524C717.2,615.727 714.396,615.812 711.58,615.777L424.065,612.242C399.113,611.935 375.405,602.229 358.536,585.414C341.668,568.599 333.134,546.166 334.948,523.409L357.877,235.798C358.852,223.575 362.694,212.131 368.775,202.002C384.229,176.258 414.146,159.001 448.21,159C445.417,169.065 443.354,179.659 442.088,190.712C437.738,194.761 435.054,200.312 435.054,206.432C435.054,218.818 446.051,228.873 459.597,228.873C473.142,228.873 484.139,218.818 484.139,206.432C484.139,199.495 480.69,193.287 475.274,189.17C477.441,178.379 480.244,168.306 483.641,159L675.674,159C678.913,168.29 681.544,178.385 683.523,189.263C678.896,193.345 676.017,199.073 676.017,205.412C676.017,217.798 687.014,227.853 700.559,227.853C714.104,227.853 725.101,217.798 725.101,205.412C725.101,198.381 721.559,192.101 716.017,187.985C715.047,178.968 713.54,170.291 711.533,161.985C747.388,171.046 774.563,199.794 777.657,235.226L803.085,526.373C805.114,549.604 796.345,572.541 778.929,589.556C763.439,604.691 742.383,613.895 719.983,615.524ZM478.949,159C475.435,168.845 472.566,179.512 470.393,190.952C475.974,194.215 479.677,199.931 479.677,206.432C479.677,216.566 470.679,224.793 459.597,224.793C448.514,224.793 439.517,216.566 439.517,206.432C439.517,200.933 442.166,195.995 446.36,192.629C447.625,180.871 449.804,169.63 452.816,159L478.949,159ZM706.684,160.891C709.039,170.183 710.75,179.961 711.761,190.176C717.115,193.475 720.639,199.07 720.639,205.412C720.639,215.546 711.642,223.773 700.559,223.773C689.476,223.773 680.479,215.546 680.479,205.412C680.479,199.487 683.555,194.213 688.326,190.855C686.354,179.399 683.679,168.773 680.353,159L687.37,159C692.304,159 697.151,159.362 701.881,160.06C703.496,160.298 705.098,160.576 706.684,160.891Z" style="fill:rgb(255,101,0);"/>
                            <g>
                                <clipPath id="_clip1">
                                    <path d="M719.983,615.524C717.2,615.727 714.396,615.812 711.58,615.777L424.065,612.242C399.113,611.935 375.405,602.229 358.536,585.414C341.668,568.599 333.134,546.166 334.948,523.409L357.877,235.798C358.852,223.575 362.694,212.131 368.775,202.002C384.229,176.258 414.146,159.001 448.21,159C445.417,169.065 443.354,179.659 442.088,190.712C437.738,194.761 435.054,200.312 435.054,206.432C435.054,218.818 446.051,228.873 459.597,228.873C473.142,228.873 484.139,218.818 484.139,206.432C484.139,199.495 480.69,193.287 475.274,189.17C477.441,178.379 480.244,168.306 483.641,159L675.674,159C678.913,168.29 681.544,178.385 683.523,189.263C678.896,193.345 676.017,199.073 676.017,205.412C676.017,217.798 687.014,227.853 700.559,227.853C714.104,227.853 725.101,217.798 725.101,205.412C725.101,198.381 721.559,192.101 716.017,187.985C715.047,178.968 713.54,170.291 711.533,161.985C747.388,171.046 774.563,199.794 777.657,235.226L803.085,526.373C805.114,549.604 796.345,572.541 778.929,589.556C763.439,604.691 742.383,613.895 719.983,615.524ZM478.949,159C475.435,168.845 472.566,179.512 470.393,190.952C475.974,194.215 479.677,199.931 479.677,206.432C479.677,216.566 470.679,224.793 459.597,224.793C448.514,224.793 439.517,216.566 439.517,206.432C439.517,200.933 442.166,195.995 446.36,192.629C447.625,180.871 449.804,169.63 452.816,159L478.949,159ZM706.684,160.891C709.039,170.183 710.75,179.961 711.761,190.176C717.115,193.475 720.639,199.07 720.639,205.412C720.639,215.546 711.642,223.773 700.559,223.773C689.476,223.773 680.479,215.546 680.479,205.412C680.479,199.487 683.555,194.213 688.326,190.855C686.354,179.399 683.679,168.773 680.353,159L687.37,159C692.304,159 697.151,159.362 701.881,160.06C703.496,160.298 705.098,160.576 706.684,160.891Z"/>
                                </clipPath>
                                <g clip-path="url(#_clip1)">
                                    <g id="White" transform="matrix(1.11557,0,0,0.922577,-544.413,-5.68006)">
                                        <path d="M808.069,264.062L808.818,253.789C811.912,211.351 847.244,178.5 889.795,178.5L1104.18,178.5C1146.51,178.5 1181.74,211.028 1185.11,253.228L1188,289.425L992.659,482L808.069,264.062Z" style="fill:white;"/>
                                    </g>
                                </g>
                            </g>
                        </g>
                    </g>
                    <g id="Midnight-Blue1" serif:id="Midnight Blue" transform="matrix(0.932046,0,0,1,69.6564,-36)">
                        <path d="M462.943,160.5C461.096,164.654 459.381,168.989 457.801,173.5C454.42,183.152 451.661,193.609 449.572,204.824C454.939,208.023 458.5,213.627 458.5,220C458.5,229.934 449.847,238 439.188,238C428.529,238 419.876,229.934 419.876,220C419.876,214.609 422.424,209.768 426.458,206.468C427.674,194.941 429.77,183.921 432.667,173.5C433.903,169.056 435.284,164.72 436.804,160.5C456.67,105.368 500.338,70 554,70C608.767,70 653.21,104.523 672.447,160.5C674.095,165.297 675.559,170.251 676.828,175.354C679.092,184.464 680.738,194.049 681.71,204.063C686.859,207.297 690.249,212.783 690.249,219C690.249,228.934 681.595,237 670.936,237C660.277,237 651.624,228.934 651.624,219C651.624,213.191 654.582,208.021 659.171,204.729C657.274,193.498 654.702,183.08 651.503,173.5C649.994,168.98 648.345,164.646 646.562,160.5C628.15,117.695 595.414,95 554.02,95C513.64,95 481.606,118.513 462.943,160.5Z" style="fill:rgb(19,17,34);"/>
                    </g>
                </g>
                <g id="Colored-Logo" serif:id="Colored Logo" transform="matrix(1.61308,0,0,1.61308,-334.113,-93.3841)">
                    <path d="M246.216,106.09L244.74,106.09L243.849,101.461L242.121,106.201L241.576,106.201L239.847,101.461L238.922,106.09L237.451,106.09L239.179,97.5L239.988,97.5L241.845,103.283L243.662,97.5L244.465,97.5L246.216,106.09Z" style="fill:rgb(19,17,34);fill-rule:nonzero;"/>
                    <path d="M247.975,97.377C248.209,97.377 248.409,97.46 248.575,97.626C248.741,97.792 248.824,97.992 248.824,98.227C248.824,98.461 248.741,98.661 248.575,98.827C248.409,98.993 248.209,99.076 247.975,99.076C247.74,99.076 247.54,98.993 247.374,98.827C247.208,98.661 247.125,98.461 247.125,98.227C247.125,97.992 247.208,97.792 247.374,97.626C247.54,97.46 247.74,97.377 247.975,97.377ZM247.219,106.084L247.219,101.01L246.416,101.01L246.416,99.809L248.701,99.809L248.701,106.084L247.219,106.084Z" style="fill:rgb(19,17,34);fill-rule:nonzero;"/>
                    <g>
                        <clipPath id="_clip2">
                            <path d="M247.975,97.377C248.209,97.377 248.409,97.46 248.575,97.626C248.741,97.792 248.824,97.992 248.824,98.227C248.824,98.461 248.741,98.661 248.575,98.827C248.409,98.993 248.209,99.076 247.975,99.076C247.74,99.076 247.54,98.993 247.374,98.827C247.208,98.661 247.125,98.461 247.125,98.227C247.125,97.992 247.208,97.792 247.374,97.626C247.54,97.46 247.74,97.377 247.975,97.377ZM247.219,106.084L247.219,101.01L246.416,101.01L246.416,99.809L248.701,99.809L248.701,106.084L247.219,106.084Z"/>
                        </clipPath>
                        <g clip-path="url(#_clip2)">
                            <g transform="matrix(0.0847879,0,0,0.0847879,219.552,91.9412)">
                                <path d="M335.22,64.112C337.984,64.112 340.345,65.091 342.303,67.049C344.261,69.007 345.24,71.368 345.24,74.133C345.24,76.897 344.261,79.258 342.303,81.216C340.345,83.174 337.984,84.153 335.22,84.153C332.456,84.153 330.094,83.174 328.136,81.216C326.178,79.258 325.199,76.897 325.199,74.133C325.199,71.368 326.178,69.007 328.136,67.049C330.094,65.091 332.456,64.112 335.22,64.112Z" style="fill:rgb(255,101,0);"/>
                            </g>
                        </g>
                    </g>
                    <path d="M255.088,100.307L254.461,101.403C254.117,101.078 253.656,100.916 253.078,100.916C252.524,100.916 252.085,101.101 251.763,101.47C251.441,101.839 251.279,102.35 251.279,103.002C251.279,104.319 251.906,104.977 253.16,104.977C253.703,104.977 254.182,104.797 254.596,104.438L255.135,105.592C254.709,105.858 254.337,106.026 254.019,106.096C253.7,106.166 253.324,106.201 252.891,106.201C251.922,106.201 251.157,105.919 250.597,105.355C250.036,104.79 249.756,104.006 249.756,103.002C249.756,102.014 250.063,101.215 250.676,100.606C251.289,99.996 252.125,99.692 253.184,99.692C253.914,99.692 254.549,99.897 255.088,100.307Z" style="fill:rgb(19,17,34);fill-rule:nonzero;"/>
                    <path d="M259.694,101.174C259.432,101.002 259.145,100.916 258.832,100.916C258.493,100.916 258.191,101.071 257.927,101.379C257.663,101.688 257.532,102.065 257.532,102.51L257.532,106.084L256.067,106.084L256.067,99.809L257.532,99.809L257.532,100.383C257.942,99.922 258.487,99.692 259.166,99.692C259.666,99.692 260.049,99.768 260.315,99.92L259.694,101.174Z" style="fill:rgb(19,17,34);fill-rule:nonzero;"/>
                    <path d="M260.544,102.932C260.544,101.975 260.82,101.196 261.373,100.594C261.925,99.992 262.655,99.692 263.561,99.692C264.514,99.692 265.255,99.981 265.782,100.559C266.309,101.137 266.573,101.928 266.573,102.932C266.573,103.932 266.304,104.727 265.767,105.317C265.23,105.906 264.495,106.201 263.561,106.201C262.608,106.201 261.867,105.904 261.338,105.308C260.808,104.712 260.544,103.92 260.544,102.932ZM262.067,102.932C262.067,104.315 262.565,105.006 263.561,105.006C264.018,105.006 264.38,104.826 264.648,104.467C264.916,104.108 265.049,103.596 265.049,102.932C265.049,101.569 264.553,100.887 263.561,100.887C263.104,100.887 262.741,101.067 262.471,101.426C262.202,101.785 262.067,102.287 262.067,102.932Z" style="fill:rgb(19,17,34);fill-rule:nonzero;"/>
                    <path d="M271.542,106.084L271.542,105.703C271.421,105.836 271.216,105.952 270.927,106.052C270.638,106.152 270.339,106.201 270.03,106.201C269.155,106.201 268.467,105.924 267.965,105.369C267.463,104.815 267.212,104.041 267.212,103.049C267.212,102.057 267.5,101.249 268.076,100.626C268.652,100.003 269.374,99.692 270.241,99.692C270.718,99.692 271.151,99.789 271.542,99.985L271.542,97.471L273.007,97.119L273.007,106.084L271.542,106.084ZM271.542,101.309C271.229,101.059 270.903,100.934 270.563,100.934C269.977,100.934 269.526,101.113 269.21,101.47C268.893,101.827 268.735,102.34 268.735,103.008C268.735,104.313 269.364,104.965 270.622,104.965C270.763,104.965 270.935,104.923 271.14,104.839C271.346,104.755 271.479,104.67 271.542,104.584L271.542,101.309Z" style="fill:rgb(255,101,0);fill-rule:nonzero;"/>
                    <path d="M273.821,102.932C273.821,101.975 274.098,101.196 274.65,100.594C275.203,99.992 275.933,99.692 276.839,99.692C277.792,99.692 278.532,99.981 279.06,100.559C279.587,101.137 279.851,101.928 279.851,102.932C279.851,103.932 279.582,104.727 279.045,105.317C278.508,105.906 277.773,106.201 276.839,106.201C275.886,106.201 275.145,105.904 274.615,105.308C274.086,104.712 273.821,103.92 273.821,102.932ZM275.345,102.932C275.345,104.315 275.843,105.006 276.839,105.006C277.296,105.006 277.658,104.826 277.926,104.467C278.193,104.108 278.327,103.596 278.327,102.932C278.327,101.569 277.831,100.887 276.839,100.887C276.382,100.887 276.019,101.067 275.749,101.426C275.48,101.785 275.345,102.287 275.345,102.932Z" style="fill:rgb(255,101,0);fill-rule:nonzero;"/>
                    <path d="M284.796,106.084L282.951,103.242L282.247,103.987L282.247,106.084L280.783,106.084L280.783,97.471L282.247,97.119L282.247,102.217L284.339,99.809L286.103,99.809L283.982,102.188L286.536,106.084L284.796,106.084Z" style="fill:rgb(255,101,0);fill-rule:nonzero;"/>
                    <path d="M290.234,105.457C290.101,105.676 289.87,105.855 289.54,105.993C289.21,106.132 288.865,106.201 288.505,106.201C287.83,106.201 287.298,106.032 286.912,105.695C286.525,105.357 286.332,104.877 286.332,104.256C286.332,103.53 286.604,102.961 287.149,102.551C287.694,102.141 288.468,101.936 289.472,101.936C289.644,101.936 289.847,101.965 290.082,102.024C290.082,101.285 289.615,100.916 288.681,100.916C288.13,100.916 287.67,101.008 287.298,101.192L286.982,100.055C287.486,99.813 288.086,99.692 288.781,99.692C289.738,99.692 290.439,99.909 290.884,100.345C291.33,100.78 291.552,101.606 291.552,102.821L291.552,104.162C291.552,104.998 291.72,105.524 292.056,105.738C291.935,105.949 291.8,106.079 291.652,106.128C291.504,106.177 291.334,106.201 291.142,106.201C290.931,106.201 290.742,106.123 290.574,105.967C290.406,105.811 290.293,105.641 290.234,105.457ZM290.093,103.131C289.843,103.08 289.656,103.055 289.531,103.055C288.375,103.055 287.796,103.434 287.796,104.192C287.796,104.754 288.123,105.035 288.775,105.035C289.654,105.035 290.093,104.596 290.093,103.717L290.093,103.131Z" style="fill:rgb(255,101,0);fill-rule:nonzero;"/>
                    <path d="M296.931,106.084L296.931,102.457C296.931,101.922 296.829,101.531 296.624,101.285C296.419,101.039 296.084,100.916 295.619,100.916C295.404,100.916 295.175,100.977 294.93,101.098C294.686,101.219 294.496,101.369 294.359,101.549L294.359,106.084L292.894,106.084L292.894,99.809L293.949,99.809L294.219,100.395C294.617,99.926 295.205,99.692 295.982,99.692C296.728,99.692 297.317,99.915 297.749,100.363C298.18,100.81 298.396,101.434 298.396,102.235L298.396,106.084L296.931,106.084Z" style="fill:rgb(255,101,0);fill-rule:nonzero;"/>
                </g>
            </g>
        </g>
    </g>
</svg>
