<?xml version="1.0" encoding="UTF-8" standalone="no"?>
<!DOCTYPE svg PUBLIC "-//W3C//DTD SVG 1.1//EN" "http://www.w3.org/Graphics/SVG/1.1/DTD/svg11.dtd">
<svg width="100%" height="100%" viewBox="0 0 1234 319" version="1.1" xmlns="http://www.w3.org/2000/svg" xmlns:xlink="http://www.w3.org/1999/xlink" xml:space="preserve" xmlns:serif="http://www.serif.com/" style="fill-rule:evenodd;clip-rule:evenodd;stroke-linejoin:round;stroke-miterlimit:2;">
    <g transform="matrix(7.5758,0,0,7.5758,-62.3089,-380.437)">
        <g id="Layer-1" serif:id="Layer 1">
            <g>
                <g transform="matrix(0.593747,0,0,0.593747,-28.9837,55.4651)">
                    <path d="M100,40.1C100.2,37 98.5,33.6 96.5,31.5L96.5,31.6C96.3,34.7 98,38.1 100,40.2L100,40.1Z" style="fill:rgb(255,200,52);fill-rule:nonzero;"/>
                    <path d="M92.4,40.1L92.4,40.2C94.4,38.1 96.1,34.7 95.9,31.6L95.9,31.5C93.9,33.6 92.2,36.9 92.4,40.1Z" style="fill:rgb(255,200,52);fill-rule:nonzero;"/>
                    <path d="M100.4,41.4C100.3,42.5 100,44.3 99.9,45.2C101.8,44.6 102.7,44.1 103.3,43.5C102.3,42.9 100.4,41.4 100.4,41.4Z" style="fill:rgb(255,200,52);fill-rule:nonzero;"/>
                    <path d="M95.6,51.8C93.2,54.2 89.8,55.7 85.6,55.7C88,58.2 91.5,59.8 95.7,59.8C100,59.8 103.8,58.2 106.2,55.7L106,55.7C101.8,55.8 98,54.2 95.6,51.8Z" style="fill:rgb(255,200,52);fill-rule:nonzero;"/>
                    <path d="M99.5,45.3C97.1,45.8 94.7,45.6 92.3,44.9C92.8,47.2 93.9,49.4 95.6,51.2C97.4,49.5 98.7,47.5 99.5,45.3Z" style="fill:rgb(255,200,52);fill-rule:nonzero;"/>
                    <path d="M106.2,34.2C104.1,31.8 99.5,30.4 96.6,30.3C96.6,30.3 96.6,30.4 96.7,30.4C98.8,32.7 103.4,34.1 106.2,34.2C106.3,34.2 106.3,34.2 106.2,34.2Z" style="fill:rgb(255,200,52);fill-rule:nonzero;"/>
                    <path d="M107,34.7C107.7,35.5 108.8,37 109.3,37.7C110.2,36 110.7,35 110.8,34.1C109.7,34.4 107,34.7 107,34.7Z" style="fill:rgb(255,200,52);fill-rule:nonzero;"/>
                    <path d="M111,45.4C111,48.8 109.4,52.6 106.5,55.6C110,55.6 113.8,54.1 116.8,51C119.8,48 121.4,44.2 121.4,40.7L121.3,40.8C118.2,43.9 114.5,45.4 111,45.4Z" style="fill:rgb(255,200,52);fill-rule:nonzero;"/>
                    <path d="M109.1,38.1C107.8,40.1 106,42.1 103.9,43.2C105.9,44.4 108.1,44.9 110.6,45C110.7,42.5 110.2,40.1 109.1,38.1Z" style="fill:rgb(255,200,52);fill-rule:nonzero;"/>
                    <path d="M82.4,37.7C82.9,37 84,35.5 84.7,34.7C84.7,34.7 82.3,34.6 81.2,34.2C81.4,35 81.5,35.9 82.4,37.7Z" style="fill:rgb(255,200,52);fill-rule:nonzero;"/>
                    <path d="M70.6,40.9L70.5,40.8C70.5,44.2 72,48 75,51C78,54 81.8,55.6 85.3,55.6C82.3,52.6 80.8,48.9 80.8,45.4C77.4,45.4 73.6,43.9 70.6,40.9Z" style="fill:rgb(255,200,52);fill-rule:nonzero;"/>
                    <path d="M88,43.1C85.9,42 84,40.1 82.7,38.1C81.7,40.2 81.1,42.5 81.2,45C83.7,44.9 86,44.3 88,43.1Z" style="fill:rgb(255,200,52);fill-rule:nonzero;"/>
                    <path d="M106,4.1L106.2,4.1C103.7,1.6 99.9,0 95.7,0C91.4,0 88,1.7 85.5,4.1C89.7,4.1 93.1,5.6 95.5,8C98,5.6 101.8,4.1 106,4.1Z" style="fill:rgb(255,200,52);fill-rule:nonzero;"/>
                    <path d="M95.6,8.6C93.9,10.5 92.8,12.6 92.3,14.9C94.6,14.2 97.1,14.1 99.5,14.5C98.7,12.4 97.4,10.3 95.6,8.6Z" style="fill:rgb(255,200,52);fill-rule:nonzero;"/>
                    <path d="M121.2,19L121.3,19.1C121.3,15.6 119.8,11.8 116.7,8.8C113.7,5.8 109.9,4.2 106.4,4.2C109.4,7.2 110.9,10.9 110.9,14.4C114.5,14.4 118.2,16 121.2,19Z" style="fill:rgb(255,200,52);fill-rule:nonzero;"/>
                    <path d="M109.1,21.8C110.1,19.7 110.7,17.4 110.6,14.9C108.1,15 105.9,15.5 103.9,16.7C106.1,17.8 107.8,19.8 109.1,21.8Z" style="fill:rgb(255,200,52);fill-rule:nonzero;"/>
                    <path d="M80.8,14.4C80.8,11 82.4,7.2 85.3,4.2C81.8,4.2 78,5.7 75,8.8C72,11.8 70.4,15.6 70.4,19.1L70.5,19C73.6,16 77.4,14.4 80.8,14.4Z" style="fill:rgb(255,200,52);fill-rule:nonzero;"/>
                    <path d="M82.7,21.8C84,19.8 85.9,17.9 88,16.8C86,15.6 83.7,15 81.2,14.9C81.1,17.3 81.6,19.7 82.7,21.8Z" style="fill:rgb(255,200,52);fill-rule:nonzero;"/>
                    <path d="M82.1,22.4C81.6,23.1 81.1,23.8 80.5,25.7C81.4,25.6 83.2,25.3 84.3,25.2C84.2,25.2 82.6,23.5 82.1,22.4Z" style="fill:rgb(255,200,52);fill-rule:nonzero;"/>
                    <path d="M70.3,19.6L70.3,19.4C67.8,21.8 66.2,25.6 66.2,29.9C66.2,34.2 67.8,38 70.3,40.4C70.3,36.2 71.9,32.4 74.3,30C71.9,27.6 70.3,23.9 70.3,19.6Z" style="fill:rgb(255,200,52);fill-rule:nonzero;"/>
                    <path d="M74.4,30C76.3,31.7 78.4,32.8 80.7,33.3C80,31 79.9,28.5 80.3,26.1C78.1,26.9 76.1,28.2 74.4,30Z" style="fill:rgb(255,200,52);fill-rule:nonzero;"/>
                    <path d="M96.7,29.4C99.8,29.6 104.1,27.6 106.2,25.6L106.1,25.6C103,25.4 98.7,27.4 96.6,29.4C96.7,29.3 96.7,29.3 96.7,29.4Z" style="fill:rgb(255,200,52);fill-rule:nonzero;"/>
                    <path d="M95.7,30.3C95.8,30.3 95.8,30.3 95.7,30.3C92.9,30.3 88.2,31.8 86.2,34.1C86.2,34.1 86.2,34.2 86.1,34.2C89,34.1 93.7,32.7 95.7,30.3Z" style="fill:rgb(255,200,52);fill-rule:nonzero;"/>
                    <path d="M86.3,25.5L86.2,25.5C88.3,27.5 92.6,29.5 95.7,29.3L95.8,29.3C93.7,27.4 89.4,25.3 86.3,25.5Z" style="fill:rgb(255,200,52);fill-rule:nonzero;"/>
                    <path d="M109.7,22.4C109.1,23.5 107.5,25.2 107.5,25.2C108.6,25.3 110.4,25.6 111.3,25.7C110.8,23.9 110.2,23.1 109.7,22.4Z" style="fill:rgb(255,200,52);fill-rule:nonzero;"/>
                    <path d="M121.4,19.5L121.4,19.7C121.4,23.9 119.8,27.7 117.4,30.1C119.8,32.5 121.4,36.3 121.4,40.5C123.9,38.1 125.5,34.3 125.5,30C125.5,25.7 123.9,21.9 121.4,19.5Z" style="fill:rgb(255,200,52);fill-rule:nonzero;"/>
                    <path d="M111.4,26.2C111.9,28.6 111.7,31 111,33.4C113.3,32.9 115.5,31.8 117.3,30.1C115.7,28.2 113.6,26.9 111.4,26.2Z" style="fill:rgb(255,200,52);fill-rule:nonzero;"/>
                    <path d="M88.4,43.3C90.1,44.2 90.1,44.2 91.8,44.7C91.6,43.4 91.9,41.1 91.9,41.1C91.1,41.8 89.1,42.8 88.4,43.3Z" style="fill:rgb(255,200,52);fill-rule:nonzero;"/>
                    <path d="M100.4,18.6C100.4,18.6 102.3,17 103.3,16.5C102.6,16 101.8,15.4 99.9,14.8C100,15.6 100.3,17.4 100.4,18.6Z" style="fill:rgb(255,200,52);fill-rule:nonzero;"/>
                    <path d="M88.4,16.7C89.1,17.2 91.1,18.2 91.9,18.9C91.9,18.9 91.5,16.6 91.8,15.3C90.2,15.7 90.2,15.7 88.4,16.7Z" style="fill:rgb(255,200,52);fill-rule:nonzero;"/>
                    <path d="M96.5,28L96.5,28.1C98.5,26 100.2,22.6 100,19.5L100,19.4C98.1,21.6 96.3,24.9 96.5,28Z" style="fill:rgb(255,200,52);fill-rule:nonzero;"/>
                    <path d="M92.3,19.4L92.3,19.5C92.1,22.6 93.9,26 95.8,28.2L95.8,28.1C96.1,24.9 94.3,21.5 92.3,19.4Z" style="fill:rgb(255,200,52);fill-rule:nonzero;"/>
                </g>
                <g transform="matrix(1,0,0,1,-2.74706,1.99704)">
                    <g transform="matrix(0.60977,0,0,0.60977,55.051,-0.1526)">
                        <g>
                            <path d="M0.2,130.2L0.9,130.2L10.5,144.3L10.5,130.2L11.2,130.2L11.2,145.5L10.5,145.5L0.9,131.4L0.9,145.5L0.2,145.5L0.2,130.2Z" style="fill:rgb(255,200,52);fill-rule:nonzero;"/>
                            <path d="M11.5,145.7L10.4,145.7L10.3,145.6L1.1,132L1.1,145.7L0,145.7L0,130L1,130L1.1,130.1L10.4,143.7L10.4,130L11.5,130L11.5,145.7ZM10.6,145.3L11,145.3L11,130.3L10.7,130.3L10.7,144.8L0.8,130.3L0.4,130.3L0.4,145.3L0.7,145.3L0.7,130.8L10.6,145.3Z" style="fill:rgb(255,200,52);fill-rule:nonzero;"/>
                        </g>
                        <g>
                            <path d="M24.1,130.2L24.9,130.2L30.7,145.5L30,145.5L28,140.3L20.9,140.3L18.9,145.5L18.2,145.5L24.1,130.2ZM27.8,139.6L24.5,131L21.2,139.6L27.8,139.6Z" style="fill:rgb(255,200,52);fill-rule:nonzero;"/>
                            <path d="M31,145.7L29.9,145.7L29.9,145.6L28,140.5L21,140.5L19,145.7L17.9,145.7L23.9,130L25,130L25,130.1L31,145.7ZM30.2,145.3L30.5,145.3L24.8,130.3L24.2,130.3L18.4,145.3L18.7,145.3L20.7,140.1L28.1,140.1L28.1,140.2L30.2,145.3ZM28.1,139.8L20.9,139.8L21,139.5L24.5,130.4L28.1,139.8ZM21.4,139.4L27.5,139.4L24.5,131.5L21.4,139.4Z" style="fill:rgb(255,200,52);fill-rule:nonzero;"/>
                        </g>
                        <g>
                            <path d="M40.2,130.8L35.4,130.8L35.4,130.1L45.7,130.1L45.7,130.8L40.9,130.8L40.9,145.5L40.2,145.5L40.2,130.8Z" style="fill:rgb(255,200,52);fill-rule:nonzero;"/>
                            <path d="M41.1,145.7L40,145.7L40,131L35.2,131L35.2,130L45.9,130L45.9,131L41.1,131L41.1,145.7ZM40.4,145.3L40.7,145.3L40.7,130.6L45.5,130.6L45.5,130.3L35.6,130.3L35.6,130.6L40.4,130.6L40.4,145.3Z" style="fill:rgb(255,200,52);fill-rule:nonzero;"/>
                        </g>
                        <g>
                            <path d="M53.6,130.2L53.6,139.8C53.6,143.4 55.2,145.2 58.4,145.2C60,145.2 61.3,144.7 62.1,143.7C62.9,142.8 63.2,141.5 63.2,139.8L63.2,130.2L64,130.2L64,140.2C64,142 63.5,143.4 62.6,144.4C61.6,145.4 60.3,145.9 58.5,145.9C56.7,145.9 55.4,145.4 54.4,144.4C53.4,143.4 53,142 53,140.2L53,130.2L53.6,130.2Z" style="fill:rgb(255,200,52);fill-rule:nonzero;"/>
                            <path d="M58.5,146C56.7,146 55.3,145.5 54.3,144.4C53.3,143.4 52.8,142 52.8,140.1L52.8,130L53.9,130L53.9,139.8C53.9,143.3 55.4,145 58.5,145C60.1,145 61.3,144.5 62,143.6C62.7,142.7 63.1,141.4 63.1,139.8L63.1,130L64.2,130L64.2,140.2C64.2,142 63.7,143.5 62.7,144.5C61.7,145.5 60.2,146 58.5,146ZM53.1,130.4L53.1,140.2C53.1,141.9 53.6,143.3 54.5,144.2C55.4,145.2 56.8,145.7 58.5,145.7C60.2,145.7 61.5,145.2 62.5,144.2C63.4,143.2 63.9,141.9 63.9,140.2L63.9,130.4L63.6,130.4L63.6,139.8C63.6,141.5 63.2,142.9 62.4,143.8C61.5,144.8 60.3,145.4 58.6,145.4C55.3,145.4 53.6,143.5 53.6,139.8L53.6,130.4L53.1,130.4Z" style="fill:rgb(255,200,52);fill-rule:nonzero;"/>
                        </g>
                        <g>
                            <path d="M73.4,138.2L73.4,145.4L72.7,145.4L72.7,130.1L77.8,130.1C79.5,130.1 80.7,130.3 81.5,130.8C82.5,131.4 83,132.5 83,134.1C83,136 82.1,137.3 80.2,137.9C81.5,138.2 82.2,139 82.4,140.5L82.4,145.4L81.6,145.4L81.6,140.5C81.4,139.6 81,138.9 80.4,138.6C79.9,138.3 79.1,138.2 78.1,138.2L73.4,138.2ZM78.1,137.6C80.9,137.6 82.3,136.5 82.3,134.2C82.3,132.3 81.4,131.2 79.7,130.9C79.5,130.9 79.2,130.8 78.9,130.8L73.3,130.8L73.3,137.6L78.1,137.6Z" style="fill:rgb(255,200,52);fill-rule:nonzero;"/>
                            <path d="M82.6,145.7L81.4,145.7L81.4,140.6C81.3,139.7 80.9,139.1 80.3,138.8C79.8,138.6 79.1,138.4 78,138.4L73.6,138.4L73.6,145.6L72.5,145.6L72.5,130L77.8,130C79.5,130 80.8,130.3 81.6,130.8C82.7,131.5 83.2,132.6 83.2,134.2C83.2,136 82.4,137.3 80.8,138C81.8,138.4 82.4,139.3 82.5,140.6L82.5,142.6L82.6,145.7ZM81.7,145.3L82.3,145.3L82.3,140.6C82.2,139.2 81.5,138.3 80.3,138.1L79.6,138L80.3,137.8C82.1,137.3 82.9,136.1 82.9,134.2C82.9,132.7 82.4,131.7 81.5,131.1C80.7,130.6 79.5,130.4 77.9,130.4L73,130.4L73,145.4L73.3,145.4L73.3,138.2L78,138.2C79.1,138.2 79.9,138.3 80.4,138.6C81.1,139 81.5,139.6 81.7,140.6L81.7,145.3ZM78.1,137.8L73.2,137.8L73.2,130.6L79,130.6C79.4,130.6 79.6,130.6 79.8,130.7C81.6,131 82.5,132.2 82.5,134.2C82.5,136.6 81,137.8 78.1,137.8ZM73.6,137.4L78.1,137.4C80.8,137.4 82.1,136.4 82.1,134.2C82.1,132.4 81.3,131.4 79.7,131.1C79.5,131.1 79.3,131.1 78.9,131L73.6,131L73.6,137.4Z" style="fill:rgb(255,200,52);fill-rule:nonzero;"/>
                        </g>
                        <g>
                            <path d="M92.2,132.2C93.4,130.6 95.1,129.8 97.4,129.8C99.7,129.8 101.4,130.6 102.6,132.2C103.7,133.6 104.2,135.5 104.2,137.8C104.2,140.1 103.7,142 102.6,143.4C101.4,145 99.7,145.7 97.4,145.7C95.1,145.7 93.4,144.9 92.2,143.4C91.1,142 90.6,140.1 90.6,137.8C90.6,135.5 91.2,133.6 92.2,132.2ZM92.8,143C93.9,144.5 95.4,145.2 97.4,145.2C99.5,145.2 101,144.5 102.1,143C103,141.7 103.5,140 103.5,137.9C103.5,135.8 103,134.1 102.1,132.8C101,131.3 99.5,130.6 97.5,130.6C95.5,130.6 93.9,131.3 92.9,132.8C92,134.1 91.5,135.8 91.5,137.9C91.4,140 91.8,141.7 92.8,143Z" style="fill:rgb(255,200,52);fill-rule:nonzero;"/>
                            <path d="M97.4,146C95.1,146 93.3,145.2 92.1,143.6C91,142.2 90.5,140.2 90.5,137.9C90.5,135.6 91.1,133.6 92.1,132.2C93.3,130.6 95.1,129.7 97.4,129.7C99.7,129.7 101.5,130.5 102.8,132.1C103.9,133.6 104.4,135.5 104.4,137.9C104.4,140.3 103.8,142.2 102.8,143.6C101.5,145.2 99.7,146 97.4,146ZM97.4,130C95.2,130 93.5,130.8 92.4,132.3C91.4,133.7 90.8,135.6 90.8,137.8C90.8,140.1 91.3,141.9 92.4,143.3C93.5,144.8 95.2,145.6 97.4,145.6C99.6,145.6 101.3,144.8 102.5,143.3C103.5,141.9 104.1,140.1 104.1,137.8C104.1,135.5 103.6,133.7 102.5,132.3C101.3,130.8 99.6,130 97.4,130ZM97.4,145.4C95.3,145.4 93.7,144.6 92.6,143.1C91.7,141.8 91.2,140 91.2,137.9C91.2,135.8 91.7,134 92.6,132.7C93.7,131.2 95.3,130.4 97.4,130.4C99.5,130.4 101.1,131.2 102.2,132.7C103.2,134 103.6,135.8 103.6,137.9C103.6,140.1 103.1,141.8 102.2,143.1C101.1,144.6 99.5,145.4 97.4,145.4ZM97.4,130.6C95.4,130.6 93.9,131.3 92.9,132.8C92,134.1 91.6,135.8 91.6,137.8C91.6,139.9 92.1,141.6 93,142.8C94,144.2 95.5,144.9 97.5,144.9C99.5,144.9 101,144.2 102,142.8C102.9,141.5 103.4,139.9 103.4,137.8C103.4,135.7 102.9,134 102,132.8C100.9,131.4 99.4,130.6 97.4,130.6Z" style="fill:rgb(255,200,52);fill-rule:nonzero;"/>
                        </g>
                        <g>
                            <path d="M122.1,134.2C122.1,135.4 121.7,136.4 120.9,137.2C120.4,137.7 119.7,138.1 118.8,138.2C118.3,138.3 117.5,138.3 116.4,138.3L113,138.3L113,145.4L112.3,145.4L112.3,130.1L116.5,130.1C120.2,130.2 122.1,131.5 122.1,134.2ZM113.1,130.8L113.1,137.8L116,137.8C117.8,137.8 119,137.7 119.6,137.4C120.8,136.9 121.3,135.8 121.3,134.2C121.3,132.4 120.4,131.3 118.5,131C118,130.9 117.2,130.9 116,130.9L113.1,130.9L113.1,130.8Z" style="fill:rgb(255,200,52);fill-rule:nonzero;"/>
                            <path d="M113.3,145.7L112.2,145.7L112.2,130L116.6,130C120.4,130 122.3,131.4 122.3,134.2C122.3,135.5 121.9,136.5 121.1,137.4C120.6,137.9 119.8,138.3 118.9,138.5C118.4,138.6 117.6,138.7 116.5,138.7L113.3,138.7L113.3,145.7ZM112.6,145.3L112.9,145.3L112.9,138.2L116.5,138.2C117.6,138.2 118.3,138.2 118.8,138.1C119.6,137.9 120.3,137.6 120.8,137.1C121.5,136.4 121.9,135.4 121.9,134.2C121.9,131.6 120.2,130.3 116.6,130.3L112.6,130.3L112.6,145.3ZM116,138L112.9,138L112.9,130.7L116,130.7C117.1,130.7 118,130.7 118.5,130.8C120.5,131.1 121.5,132.3 121.5,134.2C121.5,135.9 120.9,137 119.6,137.6C119,137.8 117.9,138 116,138ZM113.2,137.6L116,137.6C117.7,137.6 118.9,137.5 119.5,137.2C120.6,136.7 121.1,135.7 121.1,134.2C121.1,132.4 120.2,131.5 118.4,131.2C117.9,131.1 117.1,131.1 116,131.1L113.2,131.1L113.2,137.6Z" style="fill:rgb(255,200,52);fill-rule:nonzero;"/>
                        </g>
                        <g>
                            <path d="M132.5,130.2L133.3,130.2L139.1,145.5L138.4,145.5L136.4,140.3L129.3,140.3L127.3,145.5L126.6,145.5L132.5,130.2ZM136.2,139.6L132.9,131L129.6,139.6L136.2,139.6Z" style="fill:rgb(255,200,52);fill-rule:nonzero;"/>
                            <path d="M139.4,145.7L138.3,145.7L138.3,145.6L136.4,140.5L129.5,140.5L127.5,145.7L126.4,145.7L132.4,130L133.5,130L133.5,130.1L139.4,145.7ZM138.5,145.3L138.8,145.3L133.1,130.3L132.5,130.3L126.7,145.3L127,145.3L129,140.1L136.4,140.1L136.4,140.2L138.5,145.3ZM136.4,139.8L129.2,139.8L129.3,139.5L132.8,130.4L136.4,139.8ZM129.8,139.4L135.9,139.4L132.9,131.5L129.8,139.4Z" style="fill:rgb(255,200,52);fill-rule:nonzero;"/>
                        </g>
                        <g>
                            <path d="M148.6,130.8L143.8,130.8L143.8,130.1L154.1,130.1L154.1,130.8L149.3,130.8L149.3,145.5L148.6,145.5L148.6,130.8Z" style="fill:rgb(255,200,52);fill-rule:nonzero;"/>
                            <path d="M149.5,145.7L148.4,145.7L148.4,131L143.6,131L143.6,130L154.3,130L154.3,131L149.5,131L149.5,145.7ZM148.8,145.3L149.1,145.3L149.1,130.6L153.9,130.6L153.9,130.3L144,130.3L144,130.6L148.8,130.6L148.8,145.3Z" style="fill:rgb(255,200,52);fill-rule:nonzero;"/>
                        </g>
                        <g>
                            <path d="M161.4,130.2L162.1,130.2L162.1,137L171.8,137L171.8,130.2L172.5,130.2L172.5,145.5L171.8,145.5L171.8,137.6L162.1,137.6L162.1,145.5L161.4,145.5L161.4,130.2Z" style="fill:rgb(255,200,52);fill-rule:nonzero;"/>
                            <path d="M172.7,145.7L171.6,145.7L171.6,137.8L162.3,137.8L162.3,145.7L161.2,145.7L161.2,130L162.3,130L162.3,136.8L171.6,136.8L171.6,130L172.7,130L172.7,145.7ZM172,145.3L172.3,145.3L172.3,130.3L172,130.3L172,137.1L161.9,137.1L161.9,130.3L161.6,130.3L161.6,145.3L161.9,145.3L161.9,137.4L172,137.4L172,145.3Z" style="fill:rgb(255,200,52);fill-rule:nonzero;"/>
                        </g>
                        <g>
                            <path d="M184.9,138.7L179.6,130.1L180.4,130.1L185.2,137.9L190,130.1L190.8,130.1L185.5,138.7L185.5,145.4L184.8,145.4L184.8,138.7L184.9,138.7Z" style="fill:rgb(255,200,52);fill-rule:nonzero;"/>
                            <path d="M186,145.7L184.7,145.7L184.7,138.8L179.3,130L180.6,130L180.7,130.1L185.4,137.7L190.1,130L191.4,130L186,138.8L186,145.7ZM185.1,145.3L185.4,145.3L185.4,138.7L190.5,130.3L190.1,130.3L185.2,138.3L180.3,130.3L180,130.3L185.1,138.6L185.1,145.3Z" style="fill:rgb(255,200,52);fill-rule:nonzero;"/>
                        </g>
                    </g>
                    <g transform="matrix(0.60977,0,0,0.60977,55.051,3.84149)">
                        <path d="M10.7,113.6C13,113.6 14.9,113.1 16.4,112.1C18.2,111 19.1,109.3 19.1,107.2C19.1,104.6 17.2,102.8 13.5,101.8C13.4,101.8 13.2,101.7 13,101.6C12.8,101.5 12.4,101.5 12,101.4C7.4,100.2 4.4,99.1 3.1,98C1.6,96.8 0.8,95.2 0.8,93.1C0.8,90.6 1.9,88.7 4,87.4C5.8,86.2 8,85.7 10.5,85.7C13.1,85.7 15.3,86.4 17,87.8C18.7,89.2 19.8,91.3 20.1,93.8L18.4,93.8C17.8,89.4 15.1,87.2 10.3,87.2C8.3,87.2 6.6,87.6 5.2,88.5C3.5,89.6 2.6,91 2.6,92.9C2.6,95.7 5.5,97.9 11.3,99.3C11.4,99.4 11.6,99.4 11.8,99.5C14.8,100.3 16.9,101 18,101.8C19.9,103.1 20.9,104.9 20.9,107.2C20.9,109.7 19.8,111.7 17.7,113.2C15.8,114.5 13.5,115.1 10.8,115.1C7.8,115.1 5.3,114.4 3.4,112.9C1.4,111.3 0.3,109 0,106.1L1.7,106.1C2.6,111.1 5.6,113.6 10.7,113.6Z" style="fill:rgb(71,75,78);fill-rule:nonzero;"/>
                        <path d="M43.5,115.2C39.4,115.2 36.2,113.8 34,110.9C32,108.3 31.1,104.8 31.1,100.5C31.1,96.2 32.1,92.7 34,90.1C36.2,87.2 39.4,85.7 43.5,85.7C48.8,85.7 52.3,88.1 54.2,92.8L54.2,86.3L55.9,86.3L55.9,114.5L54.2,114.5L54.2,108.4C52.3,113 48.8,115.2 43.5,115.2ZM35.2,109.7C37.1,112.4 39.9,113.8 43.5,113.8C47.1,113.8 49.9,112.4 51.7,109.7C53.3,107.4 54.2,104.3 54.2,100.5C54.2,96.7 53.4,93.7 51.7,91.3C49.8,88.6 47.1,87.2 43.5,87.2C39.9,87.2 37.1,88.6 35.3,91.3C33.6,93.6 32.8,96.7 32.8,100.5C32.7,104.3 33.5,107.4 35.2,109.7Z" style="fill:rgb(71,75,78);fill-rule:nonzero;"/>
                        <path d="M68.4,86.3L70.1,86.3L70.1,90.9C71.9,87.4 75.1,85.7 79.6,85.7C86.1,85.7 89.3,89.1 89.3,95.8L89.3,114.5L87.6,114.5L87.6,96.4C87.6,93.4 87.1,91.2 86,89.8C84.7,88.2 82.6,87.4 79.7,87.4C74.4,87.4 71.2,89.8 70.4,94.6C70.3,95.1 70.3,95.8 70.2,96.6C70.1,97.4 70.1,98.4 70.1,99.5L70.1,114.6L68.4,114.6L68.4,86.3Z" style="fill:rgb(71,75,78);fill-rule:nonzero;"/>
                        <path d="M113,115.2C108.9,115.2 105.7,113.8 103.5,110.9C101.5,108.3 100.6,104.8 100.6,100.5C100.6,96.2 101.6,92.7 103.5,90.1C105.7,87.2 108.9,85.7 113,85.7C118.3,85.7 121.8,88.1 123.7,92.8L123.7,86.3L125.4,86.3L125.4,114.5L123.7,114.5L123.7,108.4C121.9,113 118.3,115.2 113,115.2ZM104.7,109.7C106.6,112.4 109.4,113.8 113,113.8C116.6,113.8 119.4,112.4 121.2,109.7C122.8,107.4 123.7,104.3 123.7,100.5C123.7,96.7 122.9,93.7 121.2,91.3C119.3,88.6 116.6,87.2 113,87.2C109.4,87.2 106.6,88.6 104.8,91.3C103.1,93.6 102.3,96.7 102.3,100.5C102.3,104.3 103.1,107.4 104.7,109.7Z" style="fill:rgb(71,75,78);fill-rule:nonzero;"/>
                        <path d="M138.5,78.6L138.5,86.3L144.2,86.3L144.2,87.8L138.5,87.8L138.5,114.5L136.8,114.5L136.8,78.6L138.5,78.6Z" style="fill:rgb(71,75,78);fill-rule:nonzero;"/>
                        <path d="M154.1,75C154.9,75 155.3,75.9 155.3,77.6C155.3,79.3 154.9,80.2 154.1,80.2C153.3,80.2 153,79.3 153,77.6C152.9,75.9 153.3,75 154.1,75ZM153.2,86.3L154.9,86.3L154.9,114.5L153.2,114.5L153.2,86.3Z" style="fill:rgb(71,75,78);fill-rule:nonzero;"/>
                        <path d="M169.2,90.2C171.4,87.2 174.5,85.7 178.7,85.7C182.8,85.7 186,87.2 188.2,90.2C190.2,92.8 191.1,96.2 191.1,100.5C191.1,104.8 190.1,108.2 188.2,110.9C185.9,113.8 182.8,115.2 178.7,115.2C174.6,115.2 171.4,113.8 169.2,110.9C167.2,108.3 166.3,104.8 166.3,100.5C166.2,96.2 167.2,92.8 169.2,90.2ZM170.4,109.7C172.3,112.4 175,113.8 178.6,113.8C182.2,113.8 185,112.4 186.9,109.7C188.5,107.4 189.4,104.3 189.4,100.5C189.4,96.7 188.6,93.7 186.9,91.3C185,88.6 182.2,87.2 178.6,87.2C175,87.2 172.2,88.6 170.4,91.3C168.8,93.7 167.9,96.7 167.9,100.5C168,104.3 168.8,107.4 170.4,109.7Z" style="fill:rgb(71,75,78);fill-rule:nonzero;"/>
                    </g>
                </g>
            </g>
        </g>
    </g>
</svg>
