<?xml version="1.0" encoding="UTF-8" standalone="no"?>
<!DOCTYPE svg PUBLIC "-//W3C//DTD SVG 1.1//EN" "http://www.w3.org/Graphics/SVG/1.1/DTD/svg11.dtd">
<svg width="100%" height="100%" viewBox="0 0 1234 219" version="1.1" xmlns="http://www.w3.org/2000/svg" xmlns:xlink="http://www.w3.org/1999/xlink" xml:space="preserve" xmlns:serif="http://www.serif.com/" style="fill-rule:evenodd;clip-rule:evenodd;stroke-linejoin:round;stroke-miterlimit:2;">
    <g id="Logo-v1" serif:id="Logo v1" transform="matrix(1.73576,0,0,1.73576,-1048.27,-990.51)">
        <g id="Layer-1" serif:id="Layer 1">
            <g id="Logo-v11" serif:id="Logo v1">
                <g transform="matrix(0.810235,0,0,0.810235,126.604,130.664)">
                    <path d="M721.857,553.23L710.605,577.043L673.119,577.043L644.943,613.678L673.602,613.678L600.583,681.443L593.683,687.846L596.517,683.008L630.74,630.164L609.101,629.964L640.444,577.043L593.328,577.043L604.58,553.23L721.857,553.23Z" style="fill:rgb(239,239,240);"/>
                    <path d="M718.551,553.23L707.299,577.043L669.803,577.043L641.637,613.678L670.279,613.678L600.592,681.443L593.278,688.555L593.692,687.846L596.525,683.008L627.418,630.164L605.785,629.964L637.137,577.043L590.013,577.043L601.264,553.23L718.551,553.23Z" style="fill:rgb(9,25,49);"/>
                </g>
                <g transform="matrix(1,0,0,1,0,12.84)">
                    <g id="Themes">
                        <path d="M770.543,587.644L768.355,600.486L750.566,600.486L741.055,654.424L724.787,654.424L734.3,600.486L716.608,600.486L718.89,587.644L770.543,587.644Z" style="fill:rgb(9,25,49);fill-rule:nonzero;"/>
                        <path d="M836.559,587.644L824.763,654.424L808.498,654.424L813.348,626.741L788.045,626.741L783.192,654.424L766.927,654.424L778.722,587.644L794.988,587.644L790.328,613.899L815.631,613.899L820.293,587.644L836.559,587.644Z" style="fill:rgb(9,25,49);fill-rule:nonzero;"/>
                        <path d="M862.243,600.486L859.865,614.376L881.649,614.376L879.462,626.648L857.678,626.648L855.015,641.582L879.652,641.582L877.369,654.424L836.464,654.424L848.26,587.644L889.165,587.644L886.88,600.486L862.243,600.486Z" style="fill:rgb(9,25,49);fill-rule:nonzero;"/>
                        <path d="M975.344,587.644L963.548,654.424L947.283,654.424L954.418,614.376L932.349,654.424L919.221,654.424L911.23,614.186L904.19,654.424L887.924,654.424L899.72,587.644L918.936,587.644L929.59,633.876L956.225,587.644L975.344,587.644Z" style="fill:rgb(9,25,49);fill-rule:nonzero;"/>
                        <path d="M1001.03,600.486L998.652,614.376L1020.44,614.376L1018.25,626.648L996.465,626.648L993.802,641.582L1018.44,641.582L1016.16,654.424L975.251,654.424L987.047,587.644L1027.95,587.644L1025.67,600.486L1001.03,600.486Z" style="fill:rgb(9,25,49);fill-rule:nonzero;"/>
                        <path d="M1035.6,650.38C1031.07,647.24 1028.8,642.785 1028.8,637.017C1028.8,636.446 1028.87,635.588 1028.99,634.447L1045.93,634.447C1045.74,636.857 1046.31,638.76 1047.64,640.153C1048.97,641.551 1051,642.245 1053.73,642.245C1056.2,642.245 1058.15,641.71 1059.58,640.631C1061,639.551 1061.72,638.03 1061.72,636.066C1061.72,634.035 1060.81,632.385 1059.01,631.12C1057.2,629.85 1054.39,628.422 1050.59,626.838C1046.91,625.316 1043.91,623.874 1041.6,622.507C1039.28,621.145 1037.27,619.291 1035.56,616.942C1033.85,614.598 1032.99,611.651 1032.99,608.099C1032.93,603.72 1034,599.916 1036.22,596.682C1038.44,593.448 1041.52,590.975 1045.45,589.263C1049.38,587.552 1053.89,586.693 1058.96,586.693C1063.52,586.693 1067.58,587.406 1071.14,588.834C1074.69,590.263 1077.44,592.325 1079.41,595.019C1081.38,597.713 1082.36,600.902 1082.36,604.578C1082.36,605.529 1082.33,606.228 1082.27,606.671L1064.95,606.671C1065.02,606.418 1065.05,606.038 1065.05,605.529C1065.05,603.755 1064.43,602.313 1063.19,601.203C1061.96,600.093 1060.26,599.535 1058.1,599.535C1055.82,599.535 1053.97,600.093 1052.54,601.203C1051.11,602.313 1050.4,603.817 1050.4,605.719C1050.4,607.622 1051.28,609.223 1053.06,610.523C1054.84,611.824 1057.59,613.328 1061.34,615.04C1065.08,616.752 1068.14,618.34 1070.52,619.8C1072.89,621.255 1074.94,623.206 1076.65,625.648C1078.36,628.09 1079.22,631.085 1079.22,634.637C1079.22,638.569 1078.17,642.091 1076.08,645.196C1073.99,648.306 1070.98,650.73 1067.04,652.473C1063.11,654.22 1058.52,655.092 1053.25,655.092C1046.02,655.092 1040.14,653.521 1035.6,650.38Z" style="fill:rgb(9,25,49);fill-rule:nonzero;"/>
                    </g>
                    <g id="Bolt" transform="matrix(1,0,0,1,-21.84,0)">
                        <path d="M1153.99,603.627C1153.99,600.902 1153.04,598.774 1151.13,597.253C1149.23,595.731 1146.47,594.97 1142.86,594.97L1128.49,594.97L1124.59,616.942L1139.15,616.942C1143.14,616.942 1146.44,615.978 1149.04,614.045C1151.64,612.107 1153.23,609.431 1153.8,606.003C1153.92,605.432 1153.99,604.64 1153.99,603.627ZM1150.47,633.305C1150.47,630.39 1149.39,628.072 1147.23,626.36C1145.08,624.648 1142.13,623.794 1138.39,623.794L1123.36,623.794L1119.17,647.576L1134.49,647.576C1138.74,647.576 1142.25,646.527 1145.05,644.435C1147.84,642.343 1149.55,639.458 1150.18,635.778C1150.37,634.893 1150.47,634.066 1150.47,633.305ZM1157.84,614.708C1155.27,617.278 1152.15,619.132 1148.47,620.273C1151.58,620.782 1154.11,622.286 1156.08,624.794C1158.05,627.298 1159.03,630.262 1159.03,633.686C1159.03,634.703 1158.93,635.685 1158.74,636.636C1158.17,639.998 1156.79,643.024 1154.61,645.718C1152.42,648.416 1149.55,650.54 1146,652.092C1142.44,653.65 1138.45,654.424 1134.01,654.424L1109.28,654.424L1121.07,588.122L1144.86,588.122C1150.82,588.122 1155.34,589.392 1158.41,591.927C1161.49,594.461 1163.03,597.761 1163.03,601.818C1163.03,602.835 1162.93,603.879 1162.74,604.959C1162.04,608.891 1160.41,612.138 1157.84,614.708Z" style="fill:rgb(9,25,49);fill-rule:nonzero;"/>
                        <path d="M1214.06,642.962C1218.47,640.078 1221.91,636.194 1224.38,631.31C1226.85,626.426 1228.09,621.131 1228.09,615.42C1228.09,609.143 1226.28,604.198 1222.67,600.584C1219.06,596.969 1214.14,595.16 1207.93,595.16C1202.34,595.16 1197.35,596.602 1192.94,599.487C1188.53,602.375 1185.11,606.241 1182.67,611.094C1180.23,615.947 1179.01,621.224 1179.01,626.931C1179.01,633.212 1180.8,638.176 1184.38,641.821C1187.96,645.466 1192.86,647.288 1199.08,647.288C1204.66,647.288 1209.65,645.846 1214.06,642.962ZM1183.29,651.619C1179.1,649.301 1175.85,646.054 1173.54,641.865C1171.22,637.68 1170.06,632.894 1170.06,627.501C1170.06,620.021 1171.76,613.217 1175.15,607.1C1178.55,600.977 1183.22,596.16 1189.18,592.639C1195.15,589.122 1201.8,587.361 1209.16,587.361C1214.74,587.361 1219.64,588.516 1223.86,590.834C1228.08,593.147 1231.33,596.381 1233.61,600.535C1235.89,604.689 1237.03,609.462 1237.03,614.85C1237.03,622.401 1235.34,629.231 1231.94,635.349C1228.55,641.471 1223.87,646.289 1217.91,649.81C1211.95,653.331 1205.26,655.092 1197.84,655.092C1192.32,655.092 1187.47,653.933 1183.29,651.619Z" style="fill:rgb(9,25,49);fill-rule:nonzero;"/>
                        <path d="M1252.25,647.766L1275.46,647.766L1274.23,654.424L1242.36,654.424L1254.15,588.122L1262.81,588.122L1252.25,647.766Z" style="fill:rgb(9,25,49);fill-rule:nonzero;"/>
                        <path d="M1335.96,588.122L1334.73,594.873L1316.65,594.873L1306.19,654.424L1297.53,654.424L1307.99,594.873L1289.92,594.873L1291.16,588.122L1335.96,588.122Z" style="fill:rgb(9,25,49);fill-rule:nonzero;"/>
                    </g>
                </g>
            </g>
        </g>
    </g>
</svg>
